Georama-ExtraBold.ufo
<glyph name="exclam" format="2">
  <advance width="265.752"/>
  <unicode hex="0021"/>
  <outline>
    <contour>
      <point x="49.776" y="259.7" type="line"/>
      <point x="217.352" y="259.7" type="line"/>
      <point x="232.488" y="740.0" type="line"/>
      <point x="36.188" y="740.0" type="line"/>
    </contour>
    <contour>
      <point x="26.688" y="93.024" type="curve" smooth="yes"/>
      <point x="26.688" y="24.735999999999997"/>
      <point x="56.812" y="-8.943999999999999"/>
      <point x="132.876" y="-8.943999999999999" type="curve" smooth="yes"/>
      <point x="209.08" y="-8.943999999999999"/>
      <point x="239.06400000000002" y="24.735999999999997"/>
      <point x="239.06400000000002" y="93.024" type="curve" smooth="yes"/>
      <point x="239.06400000000002" y="162.172"/>
      <point x="209.08" y="195.852"/>
      <point x="132.876" y="195.852" type="curve" smooth="yes"/>
      <point x="56.672" y="195.852"/>
      <point x="26.688" y="162.172"/>
    </contour>
  </outline>
</glyph>
<glyph name="numbersign" format="2">
  <advance width="656.824"/>
  <unicode hex="0023"/>
  <outline>
    <contour>
      <point x="67.40800000000002" y="411.688" type="line"/>
      <point x="130.544" y="411.688" type="line"/>
      <point x="111.672" y="284.34799999999996" type="line"/>
      <point x="47.675999999999995" y="284.34799999999996" type="line"/>
      <point x="47.675999999999995" y="143.888" type="line"/>
      <point x="93.96800000000002" y="143.888" type="line"/>
      <point x="75.452" y="0.0" type="line"/>
      <point x="249.39200000000002" y="0.0" type="line"/>
      <point x="267.908" y="143.888" type="line"/>
      <point x="336.064" y="143.888" type="line"/>
      <point x="317.548" y="0.0" type="line"/>
      <point x="491.488" y="0.0" type="line"/>
      <point x="510.004" y="143.888" type="line"/>
      <point x="589.76" y="143.888" type="line"/>
      <point x="589.76" y="284.34799999999996" type="line"/>
      <point x="527.708" y="284.34799999999996" type="line"/>
      <point x="546.5799999999999" y="411.688" type="line"/>
      <point x="609.492" y="411.688" type="line"/>
      <point x="609.492" y="552.492" type="line"/>
      <point x="563.9680000000001" y="552.492" type="line"/>
      <point x="582.992" y="700.0" type="line"/>
      <point x="409.052" y="700.0" type="line"/>
      <point x="390.028" y="552.492" type="line"/>
      <point x="321.872" y="552.492" type="line"/>
      <point x="340.89599999999996" y="700.0" type="line"/>
      <point x="166.956" y="700.0" type="line"/>
      <point x="147.932" y="552.492" type="line"/>
      <point x="67.40800000000002" y="552.492" type="line"/>
    </contour>
    <contour>
      <point x="304.484" y="411.688" type="line"/>
      <point x="372.64" y="411.688" type="line"/>
      <point x="353.76800000000003" y="284.34799999999996" type="line"/>
      <point x="285.612" y="284.34799999999996" type="line"/>
    </contour>
  </outline>
</glyph>
<glyph name="dollar" format="2">
  <advance width="656.824"/>
  <unicode hex="0024"/>
  <outline>
    <contour>
      <point x="291.27599999999995" y="-10.0" type="curve" smooth="yes"/>
      <point x="476.83599999999996" y="-13.84"/>
      <point x="620.476" y="43.480000000000004"/>
      <point x="620.476" y="207.576" type="curve" smooth="yes"/>
      <point x="620.476" y="333.64"/>
      <point x="536.1280000000002" y="389.90000000000003"/>
      <point x="413.796" y="423.236" type="curve" smooth="yes"/>
      <point x="307.252" y="450.04"/>
      <point x="257.468" y="461.868"/>
      <point x="257.468" y="504.82800000000003" type="curve" smooth="yes"/>
      <point x="257.468" y="536.6639999999999"/>
      <point x="284.56399999999996" y="549.0400000000001"/>
      <point x="351.34000000000003" y="549.0400000000001" type="curve" smooth="yes"/>
      <point x="420.5520000000001" y="549.0400000000001"/>
      <point x="499.2600000000001" y="537.696"/>
      <point x="553.8" y="519.3720000000001" type="curve"/>
      <point x="588.176" y="673.8000000000001" type="line"/>
      <point x="526.4440000000001" y="694.412"/>
      <point x="436.172" y="710.0"/>
      <point x="345.79200000000003" y="710.0" type="curve" smooth="yes"/>
      <point x="166.79600000000002" y="709.888"/>
      <point x="54.376000000000005" y="640.136"/>
      <point x="54.376000000000005" y="493.99600000000004" type="curve" smooth="yes"/>
      <point x="54.376000000000005" y="378.212"/>
      <point x="125.05199999999999" y="318.76800000000003"/>
      <point x="221.79600000000005" y="284.07599999999996" type="curve" smooth="yes"/>
      <point x="345.948" y="246.68"/>
      <point x="416.8080000000001" y="236.84"/>
      <point x="416.8080000000001" y="193.10399999999998" type="curve" smooth="yes"/>
      <point x="416.8080000000001" y="161.104"/>
      <point x="386.836" y="145.772"/>
      <point x="319.104" y="145.772" type="curve" smooth="yes"/>
      <point x="245.428" y="145.772"/>
      <point x="155.756" y="161.604"/>
      <point x="71.89999999999999" y="190.06000000000003" type="curve"/>
      <point x="36.748000000000005" y="36.836" type="line"/>
      <point x="106.72800000000001" y="10.448"/>
      <point x="202.95600000000002" y="-8.335999999999999"/>
    </contour>
    <contour>
      <point x="257.684" y="-105.0" type="line"/>
      <point x="412.76" y="-105.0" type="line"/>
      <point x="412.76" y="16.372000000000003" type="line"/>
      <point x="257.684" y="7.983999999999999" type="line"/>
    </contour>
    <contour>
      <point x="257.684" y="683.504" type="line"/>
      <point x="412.76" y="692.3280000000001" type="line"/>
      <point x="412.76" y="803.968" type="line"/>
      <point x="257.684" y="803.968" type="line"/>
    </contour>
  </outline>
</glyph>
<glyph name="ampersand" format="2">
  <advance width="742.872"/>
  <unicode hex="0026"/>
  <outline>
    <contour>
      <point x="513.4960000000001" y="-1.68" type="line"/>
      <point x="740.304" y="8.81239525796218e-16" type="line"/>
      <point x="360.28000000000003" y="431.94399999999996" type="line" smooth="yes"/>
      <point x="324.16799999999995" y="470.912"/>
      <point x="312.904" y="492.824"/>
      <point x="312.904" y="514.728" type="curve" smooth="yes"/>
      <point x="312.904" y="544.552"/>
      <point x="330.80000000000007" y="559.7280000000001"/>
      <point x="366.0" y="559.7280000000001" type="curve" smooth="yes"/>
      <point x="399.512" y="559.7280000000001"/>
      <point x="415.552" y="543.3839999999999"/>
      <point x="415.552" y="511.8239999999999" type="curve" smooth="yes"/>
      <point x="415.552" y="488.81600000000003"/>
      <point x="408.32800000000003" y="473.62399999999997"/>
      <point x="390.14400000000006" y="460.69599999999997" type="curve"/>
      <point x="464.92" y="373.744" type="line"/>
      <point x="553.2959999999999" y="406.128"/>
      <point x="591.216" y="462.536"/>
      <point x="591.216" y="541.464" type="curve" smooth="yes"/>
      <point x="591.216" y="653.6879999999999"/>
      <point x="509.68" y="710.0"/>
      <point x="360.272" y="710.0" type="curve" smooth="yes"/>
      <point x="185.512" y="710.0"/>
      <point x="111.73600000000002" y="634.248"/>
      <point x="111.73600000000002" y="516.9040000000001" type="curve" smooth="yes"/>
      <point x="111.73600000000002" y="460.328"/>
      <point x="131.45599999999996" y="408.312"/>
      <point x="179.312" y="355.46399999999994" type="curve" smooth="yes"/>
    </contour>
    <contour>
      <point x="292.352" y="-10.0" type="curve" smooth="yes"/>
      <point x="384.584" y="-10.0"/>
      <point x="446.52000000000004" y="13.696000000000003"/>
      <point x="495.90400000000005" y="55.904" type="curve"/>
      <point x="403.93600000000004" y="162.888" type="line"/>
      <point x="388.03200000000004" y="145.75200000000004"/>
      <point x="364.88" y="133.976"/>
      <point x="321.04" y="133.976" type="curve" smooth="yes"/>
      <point x="255.368" y="133.976"/>
      <point x="210.04" y="169.72799999999998"/>
      <point x="210.04" y="219.10399999999998" type="curve" smooth="yes"/>
      <point x="210.04" y="255.79199999999997"/>
      <point x="227.25600000000003" y="276.66400000000004"/>
      <point x="260.38399999999996" y="293.696" type="curve"/>
      <point x="172.432" y="399.568" type="line"/>
      <point x="69.08" y="357.016"/>
      <point x="25.376000000000005" y="289.00800000000004"/>
      <point x="25.376000000000005" y="199.76799999999997" type="curve" smooth="yes"/>
      <point x="25.376000000000005" y="69.992"/>
      <point x="124.12800000000001" y="-10.0"/>
    </contour>
    <contour>
      <point x="608.816" y="122.19999999999997" type="line"/>
      <point x="654.8480000000001" y="176.04799999999994"/>
      <point x="681.872" y="238.15200000000002"/>
      <point x="681.872" y="307.39200000000005" type="curve" smooth="yes"/>
      <point x="681.872" y="328.67199999999997"/>
      <point x="680.5919999999999" y="343.66400000000004"/>
      <point x="678.6" y="360.8" type="curve"/>
      <point x="523.7440000000001" y="360.23999999999995" type="line"/>
      <point x="525.016" y="347.84000000000003"/>
      <point x="525.4399999999999" y="335.13599999999997"/>
      <point x="524.008" y="321.58400000000006" type="curve" smooth="yes"/>
      <point x="521.424" y="295.18399999999997"/>
      <point x="513.6" y="274.624"/>
      <point x="495.35200000000003" y="255.864" type="curve"/>
    </contour>
  </outline>
</glyph>
<glyph name="quotesingle" format="2">
  <advance width="228.228"/>
  <unicode hex="0027"/>
  <outline>
    <contour>
      <point x="34.24" y="427.0" type="line"/>
      <point x="192.44" y="427.0" type="line"/>
      <point x="201.224" y="700.0" type="line"/>
      <point x="27.003999999999998" y="700.0" type="line"/>
    </contour>
  </outline>
</glyph>
<glyph name="parenleft" format="2">
  <advance width="335.784"/>
  <unicode hex="0028"/>
  <outline>
    <contour>
      <point x="33.4" y="265.0" type="curve" smooth="yes"/>
      <point x="33.4" y="0.7840000000000025"/>
      <point x="113.83599999999998" y="-195.88"/>
      <point x="316.26" y="-220.08399999999997" type="curve"/>
      <point x="316.26" y="-77.544" type="line"/>
      <point x="223.98000000000002" y="-41.42400000000001"/>
      <point x="191.856" y="42.628"/>
      <point x="191.856" y="265.0" type="curve" smooth="yes"/>
      <point x="191.856" y="487.37199999999996"/>
      <point x="223.98000000000002" y="571.4240000000001"/>
      <point x="316.26" y="607.544" type="curve"/>
      <point x="316.26" y="750.0840000000001" type="line"/>
      <point x="113.83599999999998" y="725.88"/>
      <point x="33.4" y="529.216"/>
    </contour>
  </outline>
</glyph>
<glyph name="parenright" format="2">
  <advance width="335.784"/>
  <unicode hex="0029"/>
  <outline>
    <contour>
      <point x="19.524" y="-77.544" type="curve"/>
      <point x="19.524" y="-220.08399999999997" type="line"/>
      <point x="221.948" y="-195.88"/>
      <point x="302.384" y="0.7840000000000025"/>
      <point x="302.384" y="265.0" type="curve" smooth="yes"/>
      <point x="302.384" y="529.216"/>
      <point x="221.948" y="725.88"/>
      <point x="19.524" y="750.0840000000001" type="curve"/>
      <point x="19.524" y="607.544" type="line"/>
      <point x="111.804" y="571.4240000000001"/>
      <point x="143.92800000000003" y="487.37199999999996"/>
      <point x="143.92800000000003" y="265.0" type="curve" smooth="yes"/>
      <point x="143.92800000000003" y="42.628"/>
      <point x="111.804" y="-41.42400000000001"/>
    </contour>
  </outline>
</glyph>
<glyph name="asterisk" format="2">
  <advance width="388.824"/>
  <unicode hex="002A"/>
  <outline>
    <contour>
      <point x="121.35199999999999" y="368.704" type="line"/>
      <point x="194.468" y="451.056" type="line"/>
      <point x="267.36" y="368.648" type="line"/>
      <point x="336.084" y="416.43199999999996" type="line"/>
      <point x="281.828" y="513.2760000000001" type="line"/>
      <point x="380.184" y="559.86" type="line"/>
      <point x="354.032" y="638.928" type="line"/>
      <point x="248.07200000000003" y="616.8760000000001" type="line"/>
      <point x="237.23599999999996" y="726.676" type="line"/>
      <point x="151.7" y="726.676" type="line"/>
      <point x="140.86400000000003" y="616.8760000000001" type="line"/>
      <point x="34.792" y="638.928" type="line"/>
      <point x="8.639999999999999" y="559.86" type="line"/>
      <point x="107.10799999999999" y="513.2760000000001" type="line"/>
      <point x="52.571999999999996" y="416.544" type="line"/>
    </contour>
  </outline>
</glyph>
<glyph name="plus" format="2">
  <advance width="548.168"/>
  <unicode hex="002B"/>
  <outline>
    <contour>
      <point x="189.092" y="124.11599999999999" type="line"/>
      <point x="358.73199999999997" y="124.11599999999999" type="line"/>
      <point x="358.73199999999997" y="242.88000000000002" type="line"/>
      <point x="499.0520000000001" y="242.88000000000002" type="line"/>
      <point x="499.0520000000001" y="398.76" type="line"/>
      <point x="358.73199999999997" y="398.76" type="line"/>
      <point x="358.73199999999997" y="517.1800000000001" type="line"/>
      <point x="189.092" y="517.1800000000001" type="line"/>
      <point x="189.092" y="398.76" type="line"/>
      <point x="49.116" y="398.76" type="line"/>
      <point x="49.116" y="242.88000000000002" type="line"/>
      <point x="189.092" y="242.88000000000002" type="line"/>
    </contour>
  </outline>
</glyph>
<glyph name="comma" format="2">
  <advance width="257.296"/>
  <unicode hex="002C"/>
  <outline>
    <contour>
      <point x="37.348" y="99.88399999999999" type="line"/>
      <point x="42.28" y="68.36"/>
      <point x="43.29600000000001" y="39.74"/>
      <point x="43.29600000000001" y="22.748" type="curve" smooth="yes"/>
      <point x="43.29600000000001" y="-35.76"/>
      <point x="25.516" y="-100.83999999999999"/>
      <point x="-14.392" y="-159.684" type="curve"/>
      <point x="134.38400000000001" y="-188.46800000000002" type="line"/>
      <point x="197.88" y="-117.11200000000001"/>
      <point x="227.728" y="-52.22"/>
      <point x="227.728" y="23.031999999999996" type="curve" smooth="yes"/>
      <point x="227.728" y="55.032"/>
      <point x="222.668" y="80.72399999999999"/>
      <point x="216.132" y="101.83600000000001" type="curve"/>
    </contour>
  </outline>
</glyph>
<glyph name="hyphen" format="2">
  <advance width="368.788"/>
  <unicode hex="002D"/>
  <outline>
    <contour>
      <point x="38.931999999999995" y="236.94" type="line"/>
      <point x="329.85600000000005" y="236.94" type="line"/>
      <point x="329.85600000000005" y="401.076" type="line"/>
      <point x="38.931999999999995" y="401.076" type="line"/>
    </contour>
  </outline>
</glyph>
<glyph name="period" format="2">
  <advance width="262.8"/>
  <unicode hex="002E"/>
  <outline>
    <contour>
      <point x="25.240000000000002" y="94.572" type="curve" smooth="yes"/>
      <point x="25.240000000000002" y="26.284"/>
      <point x="55.364" y="-7.396"/>
      <point x="131.428" y="-7.396" type="curve" smooth="yes"/>
      <point x="207.632" y="-7.396"/>
      <point x="237.616" y="26.284"/>
      <point x="237.616" y="94.572" type="curve" smooth="yes"/>
      <point x="237.616" y="163.72"/>
      <point x="207.632" y="197.4"/>
      <point x="131.428" y="197.4" type="curve" smooth="yes"/>
      <point x="55.224" y="197.4"/>
      <point x="25.240000000000002" y="163.72"/>
    </contour>
  </outline>
</glyph>
<glyph name="slash" format="2">
  <advance width="463.832"/>
  <unicode hex="002F"/>
  <outline>
    <contour>
      <point x="-0.992" y="-210.0" type="line"/>
      <point x="156.12" y="-210.0" type="line"/>
      <point x="464.824" y="740.0" type="line"/>
      <point x="307.196" y="740.0" type="line"/>
    </contour>
  </outline>
</glyph>
<glyph name="zero" format="2">
  <advance width="656.824"/>
  <unicode hex="0030"/>
  <outline>
    <contour>
      <point x="26.072000000000003" y="350.0" type="curve" smooth="yes"/>
      <point x="26.072000000000003" y="76.82399999999998"/>
      <point x="144.764" y="-10.0"/>
      <point x="328.412" y="-10.0" type="curve" smooth="yes"/>
      <point x="510.624" y="-10.0"/>
      <point x="630.7520000000001" y="78.888"/>
      <point x="630.7520000000001" y="350.0" type="curve" smooth="yes"/>
      <point x="630.7520000000001" y="621.712"/>
      <point x="518.364" y="710.0"/>
      <point x="328.412" y="710.0" type="curve" smooth="yes"/>
      <point x="143.216" y="710.0"/>
      <point x="26.072000000000003" y="625.84"/>
    </contour>
    <contour>
      <point x="228.62" y="343.292" type="curve" smooth="yes"/>
      <point x="228.62" y="533.4360000000001"/>
      <point x="271.71599999999995" y="557.576"/>
      <point x="328.412" y="557.576" type="curve" smooth="yes"/>
      <point x="385.21999999999997" y="557.576"/>
      <point x="428.31600000000003" y="533.952"/>
      <point x="428.31600000000003" y="343.292" type="curve" smooth="yes"/>
      <point x="428.31600000000003" y="169.744"/>
      <point x="386.768" y="142.424"/>
      <point x="328.412" y="142.424" type="curve" smooth="yes"/>
      <point x="270.168" y="142.424"/>
      <point x="228.62" y="169.22799999999998"/>
    </contour>
  </outline>
</glyph>
<glyph name="one" format="2">
  <advance width="656.824"/>
  <unicode hex="0031"/>
  <outline>
    <contour>
      <point x="96.56800000000001" y="0.0" type="line"/>
      <point x="605.572" y="0.0" type="line"/>
      <point x="605.572" y="157.59999999999997" type="line"/>
      <point x="463.252" y="157.59999999999997" type="line"/>
      <point x="463.252" y="700.56" type="line"/>
      <point x="363.36" y="700.56" type="line"/>
      <point x="78.19999999999999" y="599.888" type="line"/>
      <point x="118.012" y="431.724" type="line"/>
      <point x="263.684" y="483.972" type="line"/>
      <point x="263.684" y="157.59999999999997" type="line"/>
      <point x="96.56800000000001" y="157.59999999999997" type="line"/>
    </contour>
  </outline>
</glyph>
<glyph name="two" format="2">
  <advance width="657.4480000000001"/>
  <unicode hex="0032"/>
  <outline>
    <contour>
      <point x="56.584" y="131.944" type="curve"/>
      <point x="57.712" y="0.0" type="line"/>
      <point x="606.712" y="0.0" type="line"/>
      <point x="606.712" y="157.87999999999997" type="line"/>
      <point x="348.088" y="157.87999999999997" type="line"/>
      <point x="516.096" y="306.24"/>
      <point x="558.9039999999999" y="372.53599999999994"/>
      <point x="558.9039999999999" y="486.77599999999995" type="curve" smooth="yes"/>
      <point x="558.9039999999999" y="622.712"/>
      <point x="462.96" y="710.0"/>
      <point x="304.304" y="710.0" type="curve" smooth="yes"/>
      <point x="213.51199999999997" y="710.0"/>
      <point x="116.256" y="683.552"/>
      <point x="46.488" y="639.816" type="curve"/>
      <point x="106.22399999999999" y="475.632" type="line"/>
      <point x="161.37599999999998" y="502.88"/>
      <point x="211.624" y="516.0"/>
      <point x="256.296" y="516.0" type="curve" smooth="yes"/>
      <point x="317.28000000000003" y="516.0"/>
      <point x="351.328" y="484.216"/>
      <point x="351.328" y="432.53599999999994" type="curve" smooth="yes"/>
      <point x="351.328" y="359.66400000000004"/>
      <point x="265.184" y="273.888"/>
    </contour>
  </outline>
</glyph>
<glyph name="three" format="2">
  <advance width="657.16"/>
  <unicode hex="0033"/>
  <outline>
    <contour>
      <point x="32.72" y="41.959999999999994" type="line"/>
      <point x="110.75999999999999" y="4.840000000000002"/>
      <point x="186.52" y="-10.0"/>
      <point x="293.12" y="-10.0" type="curve" smooth="yes"/>
      <point x="495.0400000000001" y="-10.0"/>
      <point x="601.7600000000001" y="69.0"/>
      <point x="601.7600000000001" y="206.44" type="curve" smooth="yes"/>
      <point x="601.7600000000001" y="283.68"/>
      <point x="559.52" y="342.24"/>
      <point x="479.44" y="370.0" type="curve"/>
      <point x="546.5600000000001" y="401.03999999999996"/>
      <point x="584.84" y="457.32"/>
      <point x="584.84" y="526.5600000000001" type="curve" smooth="yes"/>
      <point x="584.84" y="641.72"/>
      <point x="491.6" y="710.0"/>
      <point x="303.84000000000003" y="710.0" type="curve" smooth="yes"/>
      <point x="199.48" y="710.0"/>
      <point x="101.47999999999999" y="691.0"/>
      <point x="42.76" y="657.72" type="curve"/>
      <point x="87.88" y="511.04" type="line"/>
      <point x="139.8" y="529.5200000000001"/>
      <point x="204.4" y="539.08"/>
      <point x="263.55999999999995" y="539.08" type="curve" smooth="yes"/>
      <point x="351.12" y="539.08"/>
      <point x="389.11999999999995" y="519.08"/>
      <point x="389.11999999999995" y="481.84000000000003" type="curve" smooth="yes"/>
      <point x="389.11999999999995" y="443.72"/>
      <point x="356.20000000000005" y="423.72"/>
      <point x="272.91999999999996" y="423.72" type="curve" smooth="yes"/>
      <point x="169.28" y="423.72" type="line"/>
      <point x="169.28" y="281.32" type="line"/>
      <point x="279.36" y="281.32" type="line" smooth="yes"/>
      <point x="364.9200000000001" y="281.32"/>
      <point x="401.59999999999997" y="260.84000000000003"/>
      <point x="401.59999999999997" y="220.2" type="curve" smooth="yes"/>
      <point x="401.59999999999997" y="174.16"/>
      <point x="366.64" y="153.04"/>
      <point x="274.92" y="153.04" type="curve" smooth="yes"/>
      <point x="205.99999999999997" y="153.04"/>
      <point x="135.52" y="164.44"/>
      <point x="83.56000000000002" y="185.23999999999998" type="curve"/>
    </contour>
  </outline>
</glyph>
<glyph name="four" format="2">
  <advance width="657.1600000000001"/>
  <unicode hex="0034"/>
  <outline>
    <contour>
      <point x="18.4" y="96.52" type="line"/>
      <point x="334.84000000000003" y="96.52" type="line"/>
      <point x="334.84000000000003" y="0.0" type="line"/>
      <point x="535.6800000000001" y="0.0" type="line"/>
      <point x="535.6800000000001" y="96.52" type="line"/>
      <point x="627.28" y="96.52" type="line"/>
      <point x="627.28" y="244.92000000000002" type="line"/>
      <point x="535.6800000000001" y="244.92000000000002" type="line"/>
      <point x="535.6800000000001" y="700.0" type="line"/>
      <point x="359.44" y="700.84" type="line"/>
      <point x="17.839999999999996" y="237.48" type="line"/>
    </contour>
    <contour>
      <point x="166.67999999999998" y="244.92000000000002" type="line"/>
      <point x="340.0" y="473.40000000000003" type="line"/>
      <point x="340.0" y="244.92000000000002" type="line"/>
    </contour>
  </outline>
</glyph>
<glyph name="five" format="2">
  <advance width="657.16"/>
  <unicode hex="0035"/>
  <outline>
    <contour>
      <point x="39.455999999999996" y="36.104" type="line"/>
      <point x="115.776" y="3.544"/>
      <point x="193.72000000000003" y="-9.999999999999998"/>
      <point x="288.848" y="-9.999999999999998" type="curve" smooth="yes"/>
      <point x="480.424" y="-9.999999999999998"/>
      <point x="611.7919999999999" y="68.88"/>
      <point x="611.7919999999999" y="232.96" type="curve" smooth="yes"/>
      <point x="611.7919999999999" y="377.30400000000003"/>
      <point x="515.256" y="429.52000000000004"/>
      <point x="343.448" y="432.54400000000004" type="curve" smooth="yes"/>
      <point x="263.67999999999995" y="433.408" type="line"/>
      <point x="274.76000000000005" y="536.856" type="line"/>
      <point x="575.808" y="536.856" type="line"/>
      <point x="575.808" y="700.0" type="line"/>
      <point x="128.488" y="700.0" type="line"/>
      <point x="79.72" y="300.59200000000004" type="line"/>
      <point x="89.144" y="289.88" type="line"/>
      <point x="254.89600000000002" y="289.88" type="line" smooth="yes"/>
      <point x="383.17600000000004" y="289.88"/>
      <point x="412.93600000000004" y="267.408"/>
      <point x="412.93600000000004" y="224.64000000000001" type="curve" smooth="yes"/>
      <point x="412.93600000000004" y="182.90400000000002"/>
      <point x="375.216" y="157.328"/>
      <point x="272.072" y="157.328" type="curve" smooth="yes"/>
      <point x="194.864" y="157.328"/>
      <point x="126.15999999999998" y="169.86399999999998"/>
      <point x="78.488" y="186.53599999999997" type="curve"/>
    </contour>
  </outline>
</glyph>
<glyph name="six" format="2">
  <advance width="657.16"/>
  <unicode hex="0036"/>
  <outline>
    <contour>
      <point x="334.88000000000005" y="-10.0" type="curve" smooth="yes"/>
      <point x="529.76" y="-10.0"/>
      <point x="629.12" y="72.99999999999999"/>
      <point x="629.12" y="237.51999999999998" type="curve" smooth="yes"/>
      <point x="629.12" y="377.28"/>
      <point x="551.4" y="454.56"/>
      <point x="402.47999999999996" y="454.56" type="curve" smooth="yes"/>
      <point x="324.4" y="454.56"/>
      <point x="261.4" y="437.52000000000004"/>
      <point x="211.24000000000004" y="402.47999999999996" type="curve"/>
      <point x="210.76000000000002" y="266.56" type="line"/>
      <point x="254.03999999999996" y="294.0"/>
      <point x="293.88" y="309.00000000000006"/>
      <point x="333.4" y="309.00000000000006" type="curve" smooth="yes"/>
      <point x="397.8" y="309.00000000000006"/>
      <point x="436.40000000000003" y="280.84000000000003"/>
      <point x="436.40000000000003" y="228.76" type="curve" smooth="yes"/>
      <point x="436.40000000000003" y="168.4"/>
      <point x="401.24" y="141.84"/>
      <point x="345.48" y="141.84" type="curve" smooth="yes"/>
      <point x="273.67999999999995" y="141.84"/>
      <point x="230.12" y="178.35999999999999"/>
      <point x="230.12" y="351.2" type="curve" smooth="yes"/>
      <point x="230.12" y="481.84000000000003"/>
      <point x="266.55999999999995" y="544.5200000000001"/>
      <point x="407.36" y="544.5200000000001" type="curve" smooth="yes"/>
      <point x="462.03999999999996" y="544.5200000000001"/>
      <point x="509.28" y="534.6800000000001"/>
      <point x="567.84" y="517.4" type="curve"/>
      <point x="612.24" y="670.84" type="line"/>
      <point x="558.5600000000001" y="694.12"/>
      <point x="471.2" y="710.0"/>
      <point x="377.40000000000003" y="710.0" type="curve" smooth="yes"/>
      <point x="148.35999999999996" y="710.0"/>
      <point x="30.120000000000005" y="577.6399999999999"/>
      <point x="30.120000000000005" y="327.4" type="curve" smooth="yes"/>
      <point x="30.120000000000005" y="97.6"/>
      <point x="133.84000000000003" y="-10.0"/>
    </contour>
  </outline>
</glyph>
<glyph name="seven" format="2">
  <advance width="657.16"/>
  <unicode hex="0037"/>
  <outline>
    <contour>
      <point x="164.07199999999997" y="0.0" type="curve"/>
      <point x="372.88800000000003" y="0.0" type="line"/>
      <point x="375.75199999999995" y="114.91999999999999"/>
      <point x="407.17600000000004" y="203.0"/>
      <point x="480.48800000000006" y="337.05600000000004" type="curve" smooth="yes"/>
      <point x="609.7520000000001" y="571.6320000000001" type="line"/>
      <point x="609.7520000000001" y="700.0" type="line"/>
      <point x="57.04" y="700.0" type="line"/>
      <point x="57.04" y="535.48" type="line"/>
      <point x="382.5439999999999" y="535.48" type="line"/>
      <point x="269.872" y="354.512" type="line" smooth="yes"/>
      <point x="193.06400000000002" y="231.096"/>
      <point x="164.07199999999997" y="129.81600000000003"/>
    </contour>
  </outline>
</glyph>
<glyph name="eight" format="2">
  <advance width="657.4480000000001"/>
  <unicode hex="0038"/>
  <outline>
    <contour>
      <point x="348.44800000000004" y="410.03999999999996" type="curve"/>
      <point x="474.36000000000007" y="359.064" type="line"/>
      <point x="563.784" y="402.28"/>
      <point x="603.112" y="463.984"/>
      <point x="603.112" y="526.9359999999999" type="curve" smooth="yes"/>
      <point x="603.112" y="645.288"/>
      <point x="505.34399999999994" y="710.0"/>
      <point x="331.55199999999996" y="710.0" type="curve" smooth="yes"/>
      <point x="153.44799999999998" y="710.0"/>
      <point x="52.816" y="638.2479999999999"/>
      <point x="52.816" y="507.312" type="curve" smooth="yes"/>
      <point x="52.816" y="248.84799999999998"/>
      <point x="426.4079999999999" y="313.23999999999995"/>
      <point x="426.4079999999999" y="184.592" type="curve" smooth="yes"/>
      <point x="426.4079999999999" y="151.56"/>
      <point x="399.168" y="135.27200000000002"/>
      <point x="339.336" y="135.27200000000002" type="curve" smooth="yes"/>
      <point x="262.008" y="135.27200000000002"/>
      <point x="219.704" y="160.736"/>
      <point x="219.704" y="205.79999999999998" type="curve" smooth="yes"/>
      <point x="219.704" y="247.328"/>
      <point x="238.192" y="268.168"/>
      <point x="284.59999999999997" y="294.944" type="curve"/>
      <point x="164.25600000000003" y="363.144" type="line"/>
      <point x="66.25599999999999" y="331.98400000000004"/>
      <point x="22.855999999999998" y="266.992"/>
      <point x="22.855999999999998" y="192.33599999999998" type="curve" smooth="yes"/>
      <point x="22.855999999999998" y="62.879999999999995"/>
      <point x="129.92" y="-10.0"/>
      <point x="329.77599999999995" y="-10.0" type="curve" smooth="yes"/>
      <point x="537.448" y="-10.0"/>
      <point x="634.16" y="58.57599999999999"/>
      <point x="634.16" y="198.768" type="curve" smooth="yes"/>
      <point x="634.16" y="452.176"/>
      <point x="241.936" y="392.792"/>
      <point x="241.936" y="511.328" type="curve" smooth="yes"/>
      <point x="241.936" y="541.2560000000001"/>
      <point x="265.47999999999996" y="562.456"/>
      <point x="328.28799999999995" y="562.456" type="curve" smooth="yes"/>
      <point x="392.47999999999996" y="562.456"/>
      <point x="420.87999999999994" y="542.28"/>
      <point x="420.87999999999994" y="498.13599999999997" type="curve" smooth="yes"/>
      <point x="420.87999999999994" y="459.248"/>
      <point x="400.304" y="437.36"/>
    </contour>
  </outline>
</glyph>
<glyph name="nine" format="2">
  <advance width="657.16"/>
  <unicode hex="0039"/>
  <outline>
    <contour>
      <point x="281.56" y="-10.0" type="curve" smooth="yes"/>
      <point x="510.5999999999999" y="-10.0"/>
      <point x="627.8399999999999" y="119.92"/>
      <point x="627.8399999999999" y="367.44000000000005" type="curve" smooth="yes"/>
      <point x="627.8399999999999" y="599.6800000000001"/>
      <point x="529.9199999999998" y="710.0"/>
      <point x="326.2" y="710.0" type="curve" smooth="yes"/>
      <point x="131.04000000000002" y="710.0"/>
      <point x="28.84" y="625.56"/>
      <point x="28.84" y="461.04" type="curve" smooth="yes"/>
      <point x="28.84" y="319.99999999999994"/>
      <point x="110.43999999999998" y="245.44000000000003"/>
      <point x="259.0399999999999" y="245.44000000000003" type="curve" smooth="yes"/>
      <point x="330.4" y="245.44000000000003"/>
      <point x="400.32000000000005" y="263.52000000000004"/>
      <point x="446.71999999999997" y="296.40000000000003" type="curve"/>
      <point x="448.88" y="433.71999999999997" type="line"/>
      <point x="410.9599999999999" y="407.47999999999996"/>
      <point x="366.67999999999995" y="391.71999999999997"/>
      <point x="318.8" y="391.71999999999997" type="curve" smooth="yes"/>
      <point x="262.15999999999997" y="391.71999999999997"/>
      <point x="222.0" y="418.88"/>
      <point x="222.0" y="471.52000000000004" type="curve" smooth="yes"/>
      <point x="222.0" y="527.5600000000001"/>
      <point x="255.23999999999998" y="558.1600000000001"/>
      <point x="314.15999999999997" y="558.1600000000001" type="curve" smooth="yes"/>
      <point x="397.99999999999994" y="558.1600000000001"/>
      <point x="428.56000000000006" y="502.9200000000001"/>
      <point x="428.56000000000006" y="349.5199999999999" type="curve" smooth="yes"/>
      <point x="428.56000000000006" y="218.88000000000002"/>
      <point x="390.67999999999995" y="153.32000000000002"/>
      <point x="250.16000000000003" y="153.32000000000002" type="curve" smooth="yes"/>
      <point x="195.2" y="153.32000000000002"/>
      <point x="147.96" y="163.15999999999997"/>
      <point x="90.12" y="180.44" type="curve"/>
      <point x="45.71999999999999" y="29.72" type="line"/>
      <point x="99.4" y="6.4399999999999995"/>
      <point x="187.76000000000002" y="-10.0"/>
    </contour>
  </outline>
</glyph>
<glyph name="less" format="2">
  <advance width="548.168"/>
  <unicode hex="003C"/>
  <outline>
    <contour>
      <point x="509.804" y="74.292" type="line"/>
      <point x="509.804" y="224.08399999999997" type="line"/>
      <point x="210.524" y="310.92800000000005" type="line"/>
      <point x="509.804" y="398.14" type="line"/>
      <point x="509.804" y="547.88" type="line"/>
      <point x="38.364" y="387.836" type="line"/>
      <point x="38.364" y="232.98799999999997" type="line"/>
    </contour>
  </outline>
</glyph>
<glyph name="equal" format="2">
  <advance width="537.848"/>
  <unicode hex="003D"/>
  <outline>
    <contour>
      <point x="488.732" y="274.056" type="line"/>
      <point x="49.116" y="274.056" type="line"/>
      <point x="49.116" y="118.176" type="line"/>
      <point x="488.732" y="118.176" type="line"/>
    </contour>
    <contour>
      <point x="488.732" y="504.79200000000003" type="line"/>
      <point x="49.116" y="504.79200000000003" type="line"/>
      <point x="49.116" y="348.91200000000003" type="line"/>
      <point x="488.732" y="348.91200000000003" type="line"/>
    </contour>
  </outline>
</glyph>
<glyph name="greater" format="2">
  <advance width="548.168"/>
  <unicode hex="003E"/>
  <outline>
    <contour>
      <point x="509.804" y="232.904" type="line"/>
      <point x="509.804" y="387.752" type="line"/>
      <point x="38.364" y="547.88" type="line"/>
      <point x="38.364" y="397.916" type="line"/>
      <point x="337.644" y="310.844" type="line"/>
      <point x="38.364" y="223.916" type="line"/>
      <point x="38.364" y="74.292" type="line"/>
    </contour>
  </outline>
</glyph>
<glyph name="question" format="2">
  <advance width="503.232"/>
  <unicode hex="003F"/>
  <outline>
    <contour>
      <point x="151.09199999999998" y="259.532" type="line"/>
      <point x="319.18399999999997" y="259.532" type="line"/>
      <point x="319.87199999999996" y="322.584" type="line"/>
      <point x="444.164" y="365.796"/>
      <point x="489.50800000000004" y="439.62"/>
      <point x="489.50800000000004" y="539.8599999999999" type="curve" smooth="yes"/>
      <point x="489.50800000000004" y="683.66"/>
      <point x="380.744" y="749.484"/>
      <point x="239.61999999999998" y="749.484" type="curve" smooth="yes"/>
      <point x="162.212" y="749.484"/>
      <point x="69.68" y="723.328"/>
      <point x="12.008000000000001" y="684.8240000000001" type="curve"/>
      <point x="69.132" y="529.988" type="line"/>
      <point x="121.268" y="559.176"/>
      <point x="166.2" y="571.672"/>
      <point x="207.112" y="571.672" type="curve" smooth="yes"/>
      <point x="256.27200000000005" y="571.672"/>
      <point x="285.384" y="551.7480000000002"/>
      <point x="285.384" y="515.948" type="curve" smooth="yes"/>
      <point x="285.384" y="481.10799999999995"/>
      <point x="269.832" y="447.748"/>
      <point x="146.61999999999998" y="409.892" type="curve"/>
    </contour>
    <contour>
      <point x="129.0" y="93.024" type="curve" smooth="yes"/>
      <point x="129.0" y="24.735999999999997"/>
      <point x="158.776" y="-8.943999999999999"/>
      <point x="235.272" y="-8.943999999999999" type="curve" smooth="yes"/>
      <point x="310.876" y="-8.943999999999999"/>
      <point x="341.46" y="24.735999999999997"/>
      <point x="341.46" y="93.024" type="curve" smooth="yes"/>
      <point x="341.46" y="162.172"/>
      <point x="310.876" y="195.852"/>
      <point x="235.272" y="195.852" type="curve" smooth="yes"/>
      <point x="158.552" y="195.852"/>
      <point x="129.0" y="162.172"/>
    </contour>
  </outline>
</glyph>
<glyph name="at" format="2">
  <advance width="900.0800000000002"/>
  <unicode hex="0040"/>
  <outline>
    <contour>
      <point x="433.72" y="-124.432" type="curve" smooth="yes"/>
      <point x="501.592" y="-124.432"/>
      <point x="587.6800000000001" y="-109.736"/>
      <point x="644.7199999999999" y="-87.712" type="curve"/>
      <point x="622.0640000000001" y="-10.463999999999999" type="line"/>
      <point x="567.568" y="-27.816000000000006"/>
      <point x="502.528" y="-38.51199999999999"/>
      <point x="441.0160000000001" y="-38.51199999999999" type="curve" smooth="yes"/>
      <point x="263.752" y="-38.51199999999999"/>
      <point x="125.904" y="34.89600000000001"/>
      <point x="125.904" y="261.73600000000005" type="curve" smooth="yes"/>
      <point x="125.904" y="473.248"/>
      <point x="246.67199999999997" y="628.2320000000001"/>
      <point x="466.208" y="628.2320000000001" type="curve" smooth="yes"/>
      <point x="683.2080000000001" y="628.2320000000001"/>
      <point x="780.9359999999999" y="524.272"/>
      <point x="780.9359999999999" y="331.464" type="curve" smooth="yes"/>
      <point x="780.9359999999999" y="215.65600000000003"/>
      <point x="740.512" y="147.64000000000001"/>
      <point x="698.152" y="149.08" type="curve" smooth="yes"/>
      <point x="666.928" y="149.08"/>
      <point x="646.9839999999999" y="171.208"/>
      <point x="652.464" y="240.672" type="curve" smooth="yes"/>
      <point x="673.976" y="503.04800000000006" type="line"/>
      <point x="611.6080000000001" y="527.2479999999999"/>
      <point x="542.824" y="541.0319999999999"/>
      <point x="474.58400000000006" y="541.0319999999999" type="curve" smooth="yes"/>
      <point x="308.784" y="541.0319999999999"/>
      <point x="221.28799999999998" y="420.28"/>
      <point x="221.28799999999998" y="254.88" type="curve" smooth="yes"/>
      <point x="221.28799999999998" y="114.504"/>
      <point x="284.056" y="52.584"/>
      <point x="372.328" y="52.584" type="curve" smooth="yes"/>
      <point x="439.29600000000005" y="52.584"/>
      <point x="489.2879999999999" y="88.864"/>
      <point x="526.3359999999999" y="150.64000000000001" type="curve"/>
      <point x="544.1040000000002" y="87.96"/>
      <point x="584.128" y="43.93600000000001"/>
      <point x="667.672" y="43.93600000000001" type="curve" smooth="yes"/>
      <point x="804.0" y="41.05600000000001"/>
      <point x="873.7519999999998" y="174.09600000000003"/>
      <point x="873.7519999999998" y="341.03999999999996" type="curve" smooth="yes"/>
      <point x="873.7519999999998" y="583.64"/>
      <point x="717.2159999999999" y="710.0"/>
      <point x="481.3920000000001" y="710.0" type="curve" smooth="yes"/>
      <point x="189.12" y="710.0"/>
      <point x="27.471999999999994" y="525.1600000000001"/>
      <point x="27.471999999999994" y="268.16" type="curve" smooth="yes"/>
      <point x="27.471999999999994" y="-10.263999999999996"/>
      <point x="195.54400000000004" y="-124.432"/>
    </contour>
    <contour>
      <point x="433.6" y="192.912" type="curve" smooth="yes"/>
      <point x="408.44" y="192.912"/>
      <point x="388.752" y="213.72000000000003"/>
      <point x="388.752" y="259.048" type="curve" smooth="yes"/>
      <point x="388.752" y="346.576"/>
      <point x="423.296" y="428.93600000000004"/>
      <point x="468.20800000000014" y="428.93600000000004" type="curve" smooth="yes"/>
      <point x="485.52800000000013" y="428.93600000000004"/>
      <point x="500.216" y="425.80000000000007"/>
      <point x="516.712" y="419.296" type="curve"/>
      <point x="501.304" y="261.96799999999996" type="line" smooth="yes"/>
      <point x="485.24800000000005" y="210.70399999999998"/>
      <point x="462.63999999999993" y="192.912"/>
    </contour>
  </outline>
</glyph>
<glyph name="A" format="2">
  <advance width="690.692"/>
  <unicode hex="0041"/>
  <anchor x="685.7560000000001" y="0.0" name="ogonek"/>
  <anchor x="339.49600000000004" y="0.0" name="bottom"/>
  <anchor x="345.40000000000003" y="700.0" name="top"/>
  <outline>
    <contour>
      <point x="5.048" y="0.0" type="line"/>
      <point x="217.40000000000003" y="0.0" type="line"/>
      <point x="245.376" y="109.20000000000002" type="line"/>
      <point x="434.28000000000003" y="109.20000000000002" type="line"/>
      <point x="463.316" y="0.0" type="line"/>
      <point x="685.7560000000001" y="0.0" type="line"/>
      <point x="467.84399999999994" y="701.4" type="line"/>
      <point x="220.436" y="701.4" type="line"/>
    </contour>
    <contour>
      <point x="282.632" y="276.436" type="line"/>
      <point x="340.184" y="550.672" type="line"/>
      <point x="397.024" y="276.436" type="line"/>
    </contour>
  </outline>
</glyph>
<glyph name="B" format="2">
  <advance width="673.832"/>
  <unicode hex="0042"/>
  <anchor x="335.008" y="700.0" name="top"/>
  <anchor x="335.008" y="0.0" name="bottom"/>
  <outline>
    <contour>
      <point x="48.74400000000001" y="4.159999999999998" type="line"/>
      <point x="216.272" y="-8.0"/>
      <point x="226.568" y="-10.0"/>
      <point x="339.424" y="-10.0" type="curve" smooth="yes"/>
      <point x="578.4960000000001" y="-10.0"/>
      <point x="659.104" y="49.99999999999999"/>
      <point x="659.104" y="207.928" type="curve" smooth="yes"/>
      <point x="659.104" y="294.752"/>
      <point x="608.112" y="360.472"/>
      <point x="521.696" y="386.93600000000004" type="curve"/>
      <point x="521.696" y="388.93600000000004" type="line"/>
      <point x="590.5600000000001" y="419.688"/>
      <point x="621.0880000000001" y="469.2"/>
      <point x="621.0880000000001" y="540.872" type="curve" smooth="yes"/>
      <point x="621.0880000000001" y="659.856"/>
      <point x="542.312" y="710.0"/>
      <point x="338.304" y="710.0" type="curve" smooth="yes"/>
      <point x="263.24" y="710.0"/>
      <point x="169.68" y="705.2800000000001"/>
      <point x="48.74400000000001" y="695.56" type="curve"/>
    </contour>
    <contour>
      <point x="252.77599999999998" y="421.0079999999999" type="line"/>
      <point x="252.77599999999998" y="545.1280000000002" type="line"/>
      <point x="292.87199999999996" y="548.6880000000001"/>
      <point x="300.568" y="549.6880000000001"/>
      <point x="333.456" y="549.6880000000001" type="curve" smooth="yes"/>
      <point x="407.21599999999995" y="549.6880000000001"/>
      <point x="430.09600000000006" y="530.0640000000001"/>
      <point x="430.09600000000006" y="483.408" type="curve" smooth="yes"/>
      <point x="430.09600000000006" y="442.41600000000005"/>
      <point x="407.08" y="421.0079999999999"/>
      <point x="366.80799999999994" y="421.0079999999999" type="curve" smooth="yes"/>
    </contour>
    <contour>
      <point x="252.77599999999998" y="154.00799999999998" type="curve"/>
      <point x="252.77599999999998" y="281.95199999999994" type="line"/>
      <point x="364.06399999999996" y="281.95199999999994" type="line" smooth="yes"/>
      <point x="427.33599999999996" y="281.95199999999994"/>
      <point x="450.056" y="262.512"/>
      <point x="450.056" y="217.248" type="curve" smooth="yes"/>
      <point x="450.056" y="168.06400000000002"/>
      <point x="425.17600000000004" y="149.88"/>
      <point x="330.696" y="149.88" type="curve" smooth="yes"/>
      <point x="310.936" y="149.88"/>
      <point x="281.808" y="151.44799999999998"/>
    </contour>
  </outline>
</glyph>
<glyph name="C" format="2">
  <advance width="636.104"/>
  <unicode hex="0043"/>
  <anchor x="353.62800000000004" y="700.0" name="top"/>
  <anchor x="351.30800000000005" y="0.0" name="bottom"/>
  <outline>
    <contour>
      <point x="24.532000000000004" y="340.18399999999997" type="curve" smooth="yes"/>
      <point x="24.532000000000004" y="85.512"/>
      <point x="135.7" y="-10.0"/>
      <point x="359.6" y="-10.0" type="curve" smooth="yes"/>
      <point x="475.26399999999995" y="-10.0"/>
      <point x="545.272" y="4.476"/>
      <point x="611.24" y="26.088" type="curve"/>
      <point x="575.8240000000001" y="184.12" type="line"/>
      <point x="519.1360000000001" y="170.16"/>
      <point x="451.224" y="160.33200000000002"/>
      <point x="393.91200000000003" y="160.33200000000002" type="curve" smooth="yes"/>
      <point x="276.41200000000003" y="160.33200000000002"/>
      <point x="231.84" y="205.48000000000002"/>
      <point x="231.84" y="341.388" type="curve" smooth="yes"/>
      <point x="231.84" y="488.776"/>
      <point x="275.996" y="538.38"/>
      <point x="395.94000000000005" y="538.38" type="curve" smooth="yes"/>
      <point x="447.384" y="538.38"/>
      <point x="499.972" y="531.2320000000001"/>
      <point x="562.1919999999999" y="517.524" type="curve"/>
      <point x="602.252" y="677.88" type="line"/>
      <point x="535.7360000000001" y="699.756"/>
      <point x="474.75600000000003" y="710.0"/>
      <point x="376.764" y="710.0" type="curve" smooth="yes"/>
      <point x="140.804" y="710.0"/>
      <point x="24.532000000000004" y="603.0280000000001"/>
    </contour>
  </outline>
</glyph>
<glyph name="D" format="2">
  <advance width="705.232"/>
  <unicode hex="0044"/>
  <anchor x="348.856" y="700.0" name="top"/>
  <outline>
    <contour>
      <point x="336.31999999999994" y="-10.0" type="curve" smooth="yes"/>
      <point x="568.296" y="-10.0"/>
      <point x="680.6160000000001" y="101.29599999999999"/>
      <point x="680.6160000000001" y="349.72" type="curve" smooth="yes"/>
      <point x="680.6160000000001" y="601.856"/>
      <point x="581.1680000000001" y="710.0"/>
      <point x="326.88" y="710.0" type="curve" smooth="yes"/>
      <point x="226.168" y="710.0"/>
      <point x="147.256" y="707.0000000000001"/>
      <point x="48.74400000000001" y="699.136" type="curve"/>
      <point x="48.74400000000001" y="-0.5599999999999996" type="line"/>
      <point x="133.79200000000003" y="-5.856"/>
      <point x="220.4" y="-10.0"/>
    </contour>
    <contour>
      <point x="354.128" y="148.60000000000002" type="curve" smooth="yes"/>
      <point x="312.968" y="148.60000000000002"/>
      <point x="286.448" y="150.456"/>
      <point x="252.34400000000002" y="152.304" type="curve"/>
      <point x="252.34400000000002" y="546.9759999999999" type="line"/>
      <point x="276.96" y="549.264"/>
      <point x="311.8399999999999" y="550.544"/>
      <point x="349.55999999999995" y="550.544" type="curve" smooth="yes"/>
      <point x="431.87199999999996" y="550.544"/>
      <point x="471.432" y="502.8399999999999"/>
      <point x="471.432" y="348.57599999999996" type="curve" smooth="yes"/>
      <point x="471.432" y="203.89600000000002"/>
      <point x="429.6" y="148.60000000000002"/>
    </contour>
  </outline>
</glyph>
<glyph name="E" format="2">
  <advance width="616.864"/>
  <unicode hex="0045"/>
  <anchor x="591.7360000000001" y="0.0" name="ogonek"/>
  <anchor x="319.95199999999994" y="0.0" name="bottom"/>
  <anchor x="323.70399999999995" y="700.0" name="top"/>
  <outline>
    <contour>
      <point x="48.74400000000001" y="0.0" type="line"/>
      <point x="592.0160000000001" y="0.0" type="line"/>
      <point x="592.0160000000001" y="167.29600000000002" type="line"/>
      <point x="250.176" y="167.29600000000002" type="line"/>
      <point x="250.176" y="274.61600000000004" type="line"/>
      <point x="548.0000000000001" y="274.61600000000004" type="line"/>
      <point x="548.0000000000001" y="430.112" type="line"/>
      <point x="250.176" y="430.112" type="line"/>
      <point x="250.176" y="530.5439999999999" type="line"/>
      <point x="573.8720000000001" y="530.5439999999999" type="line"/>
      <point x="573.8720000000001" y="700.0" type="line"/>
      <point x="48.74400000000001" y="700.0" type="line"/>
    </contour>
  </outline>
</glyph>
<glyph name="F" format="2">
  <advance width="586.864"/>
  <unicode hex="0046"/>
  <outline>
    <contour>
      <point x="48.74400000000001" y="0.0" type="line"/>
      <point x="253.48799999999997" y="0.0" type="line"/>
      <point x="253.48799999999997" y="213.624" type="line"/>
      <point x="526.592" y="213.624" type="line"/>
      <point x="526.592" y="383.96000000000004" type="line"/>
      <point x="252.34400000000002" y="383.96000000000004" type="line"/>
      <point x="252.34400000000002" y="525.664" type="line"/>
      <point x="569.7199999999999" y="525.664" type="line"/>
      <point x="569.7199999999999" y="700.0" type="line"/>
      <point x="48.74400000000001" y="700.0" type="line"/>
    </contour>
  </outline>
</glyph>
<glyph name="G" format="2">
  <advance width="674.3080000000001"/>
  <unicode hex="0047"/>
  <anchor x="354.4" y="700.0" name="top"/>
  <anchor x="350.2" y="0.0" name="bottom"/>
  <outline>
    <contour>
      <point x="24.532000000000004" y="341.21599999999995" type="curve" smooth="yes"/>
      <point x="24.532000000000004" y="101.276"/>
      <point x="127.62400000000001" y="-10.0"/>
      <point x="343.984" y="-10.0" type="curve" smooth="yes"/>
      <point x="459.336" y="-10.0"/>
      <point x="554.924" y="8.452"/>
      <point x="637.404" y="47.8" type="curve"/>
      <point x="637.404" y="409.272" type="line"/>
      <point x="355.24" y="409.272" type="line"/>
      <point x="355.24" y="252.95999999999998" type="line"/>
      <point x="455.20799999999997" y="252.95999999999998" type="line"/>
      <point x="455.20799999999997" y="160.012" type="line"/>
      <point x="433.744" y="153.452"/>
      <point x="402.712" y="149.668"/>
      <point x="368.66400000000004" y="149.668" type="curve" smooth="yes"/>
      <point x="275.29200000000003" y="149.668"/>
      <point x="230.808" y="197.696"/>
      <point x="230.808" y="337.776" type="curve" smooth="yes"/>
      <point x="230.808" y="480.172"/>
      <point x="278.72" y="539.412"/>
      <point x="393.05999999999995" y="539.412" type="curve" smooth="yes"/>
      <point x="445.308" y="539.412"/>
      <point x="511.84800000000007" y="530.552"/>
      <point x="574.688" y="516.28" type="curve"/>
      <point x="611.652" y="677.556" type="line"/>
      <point x="541.604" y="698.88"/>
      <point x="467.312" y="710.0"/>
      <point x="376.464" y="710.0" type="curve" smooth="yes"/>
      <point x="137.64" y="710.0"/>
      <point x="24.532000000000004" y="591.416"/>
    </contour>
  </outline>
</glyph>
<glyph name="H" format="2">
  <advance width="713.5480000000001"/>
  <unicode hex="0048"/>
  <anchor x="357.06000000000006" y="700.0" name="top"/>
  <outline>
    <contour>
      <point x="48.71600000000001" y="0.0" type="line"/>
      <point x="251.89600000000002" y="0.0" type="line"/>
      <point x="251.89600000000002" y="230.916" type="line"/>
      <point x="461.65199999999993" y="230.916" type="line"/>
      <point x="461.65199999999993" y="0.0" type="line"/>
      <point x="664.832" y="0.0" type="line"/>
      <point x="664.832" y="700.0" type="line"/>
      <point x="461.65199999999993" y="700.0" type="line"/>
      <point x="461.65199999999993" y="411.652" type="line"/>
      <point x="251.89600000000002" y="411.652" type="line"/>
      <point x="251.89600000000002" y="700.0" type="line"/>
      <point x="48.71600000000001" y="700.0" type="line"/>
    </contour>
  </outline>
</glyph>
<glyph name="I" format="2">
  <advance width="300.612"/>
  <unicode hex="0049"/>
  <anchor x="251.89600000000002" y="0.0" name="ogonek"/>
  <anchor x="150.564" y="0.0" name="bottom"/>
  <anchor x="150.564" y="700.0" name="top"/>
  <outline>
    <contour>
      <point x="48.71600000000001" y="0.0" type="line"/>
      <point x="251.89600000000002" y="0.0" type="line"/>
      <point x="251.89600000000002" y="700.0" type="line"/>
      <point x="48.71600000000001" y="700.0" type="line"/>
    </contour>
  </outline>
</glyph>
<glyph name="J" format="2">
  <advance width="535.548"/>
  <unicode hex="004A"/>
  <anchor x="276.596" y="700.0" name="top"/>
  <outline>
    <contour>
      <point x="6.172000000000001" y="28.476" type="line"/>
      <point x="84.816" y="3.903999999999999"/>
      <point x="167.79999999999998" y="-10.056000000000001"/>
      <point x="249.316" y="-10.056000000000001" type="curve" smooth="yes"/>
      <point x="417.544" y="-10.056000000000001"/>
      <point x="492.37200000000007" y="69.44399999999999"/>
      <point x="492.37200000000007" y="230.916" type="curve" smooth="yes"/>
      <point x="492.37200000000007" y="700.0" type="line"/>
      <point x="59.484" y="700.0" type="line"/>
      <point x="59.484" y="523.2199999999999" type="line"/>
      <point x="289.192" y="523.2199999999999" type="line"/>
      <point x="289.192" y="279.684" type="line" smooth="yes"/>
      <point x="289.192" y="187.376"/>
      <point x="258.868" y="160.532"/>
      <point x="189.288" y="160.532" type="curve" smooth="yes"/>
      <point x="153.00400000000002" y="160.532"/>
      <point x="101.97200000000001" y="169.764"/>
      <point x="43.56400000000001" y="183.5" type="curve"/>
    </contour>
  </outline>
</glyph>
<glyph name="K" format="2">
  <advance width="750.4000000000001"/>
  <unicode hex="004B"/>
  <anchor x="374.55999999999995" y="700.0" name="top"/>
  <anchor x="369.64" y="0.0" name="bottom"/>
  <outline>
    <contour>
      <point x="692.12" y="-10.0" type="curve" smooth="yes"/>
      <point x="700.5600000000001" y="-10.0"/>
      <point x="709.7199999999999" y="-10.0"/>
      <point x="720.16" y="-8.0" type="curve"/>
      <point x="720.16" y="186.8" type="line"/>
      <point x="715.16" y="186.8"/>
      <point x="709.88" y="186.8"/>
      <point x="705.88" y="186.8" type="curve" smooth="yes"/>
      <point x="664.16" y="187.52"/>
      <point x="623.56" y="206.68"/>
      <point x="529.3199999999999" y="269.88" type="curve" smooth="yes"/>
      <point x="224.84" y="475.20000000000005" type="line"/>
      <point x="224.84" y="700.0" type="line"/>
      <point x="62.280000000000015" y="700.0" type="line"/>
      <point x="62.280000000000015" y="0.0" type="line"/>
      <point x="224.84" y="0.0" type="line"/>
      <point x="224.84" y="233.68" type="line"/>
      <point x="476.88" y="65.88" type="line" smooth="yes"/>
      <point x="555.08" y="13.56"/>
      <point x="616.5600000000001" y="-10.0"/>
    </contour>
    <contour>
      <point x="368.31999999999994" y="280.88" type="line"/>
      <point x="516.52" y="383.48"/>
      <point x="664.7199999999999" y="502.76"/>
      <point x="730.0400000000001" y="659.88" type="curve"/>
      <point x="584.8" y="703.12" type="line"/>
      <point x="521.5600000000001" y="571.6"/>
      <point x="365.64" y="453.43999999999994"/>
      <point x="273.36" y="402.12000000000006" type="curve"/>
    </contour>
  </outline>
</glyph>
<glyph name="L" format="2">
  <advance width="576.46"/>
  <unicode hex="004C"/>
  <anchor x="288.516" y="350.0" name="center"/>
  <anchor x="150.564" y="700.0" name="top"/>
  <anchor x="350.82" y="700.0" name="topright"/>
  <anchor x="303.49600000000004" y="0.0" name="bottom"/>
  <outline>
    <contour>
      <point x="48.71600000000001" y="0.0" type="line"/>
      <point x="557.3" y="0.0" type="line"/>
      <point x="557.3" y="177.12400000000002" type="line"/>
      <point x="252.41199999999998" y="177.12400000000002" type="line"/>
      <point x="252.41199999999998" y="700.0" type="line"/>
      <point x="48.71600000000001" y="700.0" type="line"/>
    </contour>
  </outline>
</glyph>
<glyph name="M" format="2">
  <advance width="807.3480000000001"/>
  <unicode hex="004D"/>
  <outline>
    <contour>
      <point x="49.116" y="0.0" type="line"/>
      <point x="234.408" y="0.0" type="line"/>
      <point x="234.408" y="414.25600000000003" type="line"/>
      <point x="353.572" y="137.65999999999997" type="line"/>
      <point x="449.164" y="137.65999999999997" type="line"/>
      <point x="572.9399999999999" y="420.24399999999997" type="line"/>
      <point x="572.9399999999999" y="0.0" type="line"/>
      <point x="758.232" y="0.0" type="line"/>
      <point x="758.232" y="700.0" type="line"/>
      <point x="556.5999999999999" y="700.0" type="line"/>
      <point x="407.528" y="370.436" type="line"/>
      <point x="260.208" y="700.0" type="line"/>
      <point x="49.116" y="700.0" type="line"/>
    </contour>
  </outline>
</glyph>
<glyph name="N" format="2">
  <advance width="691.68"/>
  <unicode hex="004E"/>
  <anchor x="346.2" y="700.0" name="top"/>
  <anchor x="346.2" y="0.0" name="bottom"/>
  <outline>
    <contour>
      <point x="48.599999999999994" y="0.0" type="line"/>
      <point x="228.84" y="0.0" type="line"/>
      <point x="228.84" y="377.2" type="line"/>
      <point x="451.08" y="-0.56" type="line"/>
      <point x="643.08" y="-0.56" type="line"/>
      <point x="643.08" y="700.0" type="line"/>
      <point x="463.56000000000006" y="700.0" type="line"/>
      <point x="463.56000000000006" y="310.76" type="line"/>
      <point x="241.32" y="700.56" type="line"/>
      <point x="48.599999999999994" y="700.56" type="line"/>
    </contour>
  </outline>
</glyph>
<glyph name="O" format="2">
  <advance width="706.5"/>
  <unicode hex="004F"/>
  <anchor x="454.4" y="5.16" name="ogonek"/>
  <anchor x="353.76" y="700.0" name="top"/>
  <anchor x="555.0600000000001" y="692.48" name="topright"/>
  <anchor x="353.90000000000003" y="0.0" name="bottom"/>
  <outline>
    <contour>
      <point x="353.76" y="149.32" type="curve" smooth="yes"/>
      <point x="275.94" y="149.32"/>
      <point x="232.37999999999997" y="191.52"/>
      <point x="232.37999999999997" y="349.86" type="curve" smooth="yes"/>
      <point x="232.37999999999997" y="507.74"/>
      <point x="274.94" y="550.96"/>
      <point x="353.76" y="550.96" type="curve" smooth="yes"/>
      <point x="435.3" y="550.96"/>
      <point x="474.7" y="506.1600000000001"/>
      <point x="474.7" y="350.71999999999997" type="curve" smooth="yes"/>
      <point x="474.7" y="195.84"/>
      <point x="434.58000000000004" y="149.32"/>
    </contour>
    <contour>
      <point x="353.90000000000003" y="-10.0" type="curve" smooth="yes"/>
      <point x="568.26" y="-10.0"/>
      <point x="681.6" y="86.96000000000001"/>
      <point x="681.6" y="352.86" type="curve" smooth="yes"/>
      <point x="681.6" y="611.3199999999999"/>
      <point x="574.58" y="710.0"/>
      <point x="353.76" y="710.0" type="curve" smooth="yes"/>
      <point x="132.94" y="710.0"/>
      <point x="24.9" y="610.32"/>
      <point x="24.9" y="350.0" type="curve" smooth="yes"/>
      <point x="24.9" y="87.08000000000001"/>
      <point x="139.96" y="-10.0"/>
    </contour>
  </outline>
</glyph>
<glyph name="P" format="2">
  <advance width="693.0000000000001"/>
  <unicode hex="0050"/>
  <outline>
    <contour>
      <point x="48.71600000000001" y="0.0" type="line"/>
      <point x="252.41199999999998" y="0.0" type="line"/>
      <point x="252.41199999999998" y="177.24" type="line"/>
      <point x="332.156" y="173.49200000000002"/>
      <point x="317.536" y="173.436"/>
      <point x="395.08" y="173.436" type="curve" smooth="yes"/>
      <point x="602.2080000000001" y="173.436"/>
      <point x="673.9159999999999" y="256.664"/>
      <point x="673.9159999999999" y="446.736" type="curve" smooth="yes"/>
      <point x="673.9159999999999" y="633.788"/>
      <point x="604.772" y="710.0"/>
      <point x="342.676" y="710.0" type="curve" smooth="yes"/>
      <point x="302.92400000000004" y="710.0"/>
      <point x="201.79600000000002" y="708.172"/>
      <point x="48.71600000000001" y="701.3679999999999" type="curve"/>
    </contour>
    <contour>
      <point x="252.92799999999997" y="546.3399999999999" type="line"/>
      <point x="310.012" y="549.9639999999999"/>
      <point x="324.81600000000003" y="550.1600000000001"/>
      <point x="358.24" y="550.1600000000001" type="curve" smooth="yes"/>
      <point x="445.40400000000005" y="550.1600000000001"/>
      <point x="467.812" y="519.352"/>
      <point x="467.812" y="452.332" type="curve" smooth="yes"/>
      <point x="467.812" y="364.564"/>
      <point x="451.036" y="332.928"/>
      <point x="329.63199999999995" y="332.928" type="curve" smooth="yes"/>
      <point x="304.804" y="332.928"/>
      <point x="289.42" y="333.44000000000005"/>
      <point x="252.92799999999997" y="336.1" type="curve"/>
    </contour>
  </outline>
</glyph>
<glyph name="Q" format="2">
  <advance width="707.0160000000001"/>
  <unicode hex="0051"/>
  <outline>
    <contour>
      <point x="513.184" y="45.687999999999995" type="curve"/>
      <point x="342.47999999999996" y="8.944" type="line"/>
      <point x="383.67199999999997" y="-121.64000000000001"/>
      <point x="442.528" y="-184.232"/>
      <point x="546.8000000000001" y="-184.232" type="curve" smooth="yes"/>
      <point x="580.088" y="-184.232"/>
      <point x="614.872" y="-178.232"/>
      <point x="647.528" y="-167.016" type="curve"/>
      <point x="626.0799999999999" y="-1.7840000000000078" type="line"/>
      <point x="612.904" y="-7.18400000000001"/>
      <point x="598.3199999999999" y="-9.71200000000001"/>
      <point x="583.1999999999999" y="-9.71200000000001" type="curve" smooth="yes"/>
      <point x="552.944" y="-9.71200000000001"/>
      <point x="531.36" y="9.447999999999976"/>
    </contour>
    <component base="O"/>
  </outline>
</glyph>
<glyph name="R" format="2">
  <advance width="761.12"/>
  <unicode hex="0052"/>
  <anchor x="365.16" y="700.0" name="top"/>
  <anchor x="372.88" y="0.0" name="bottom"/>
  <outline>
    <contour>
      <point x="696.84" y="-10.0" type="curve" smooth="yes"/>
      <point x="720.9200000000001" y="-10.0"/>
      <point x="735.2399999999999" y="-8.719999999999999"/>
      <point x="746.12" y="-7.0" type="curve"/>
      <point x="747.28" y="172.60000000000002" type="line"/>
      <point x="742.5600000000001" y="172.60000000000002"/>
      <point x="735.2800000000001" y="172.32000000000002"/>
      <point x="731.56" y="172.32000000000002" type="curve" smooth="yes"/>
      <point x="668.0" y="172.32000000000002"/>
      <point x="585.0799999999999" y="240.27999999999997"/>
      <point x="518.52" y="271.48" type="curve"/>
      <point x="631.08" y="296.28"/>
      <point x="683.32" y="373.84000000000003"/>
      <point x="683.32" y="483.88" type="curve" smooth="yes"/>
      <point x="683.32" y="641.1999999999999"/>
      <point x="581.32" y="709.28"/>
      <point x="356.8" y="709.28" type="curve" smooth="yes"/>
      <point x="246.04" y="709.28"/>
      <point x="166.0" y="705.5600000000001"/>
      <point x="62.280000000000015" y="698.84" type="curve"/>
      <point x="62.280000000000015" y="0.0" type="line"/>
      <point x="223.4" y="0.0" type="line"/>
      <point x="223.4" y="219.60000000000002" type="line"/>
      <point x="266.8" y="218.60000000000002"/>
      <point x="305.84" y="217.88000000000002"/>
      <point x="342.2" y="217.88000000000002" type="curve" smooth="yes"/>
      <point x="352.20000000000005" y="217.88000000000002"/>
      <point x="365.96" y="217.88000000000002"/>
      <point x="376.68" y="217.44" type="curve"/>
      <point x="482.84" y="61.24"/>
      <point x="598.5199999999999" y="-10.0"/>
    </contour>
    <contour>
      <point x="361.16" y="343.76" type="curve" smooth="yes"/>
      <point x="315.52000000000004" y="343.76"/>
      <point x="274.16" y="345.48"/>
      <point x="223.4" y="347.48" type="curve"/>
      <point x="223.4" y="555.04" type="line"/>
      <point x="278.4" y="559.04"/>
      <point x="302.0" y="559.76"/>
      <point x="353.32" y="559.76" type="curve" smooth="yes"/>
      <point x="479.47999999999996" y="559.76"/>
      <point x="519.64" y="533.6800000000001"/>
      <point x="519.64" y="458.96000000000004" type="curve" smooth="yes"/>
      <point x="519.64" y="376.91999999999996"/>
      <point x="478.04" y="343.76"/>
    </contour>
  </outline>
</glyph>
<glyph name="S" format="2">
  <advance width="642.0799999999999"/>
  <unicode hex="0053"/>
  <anchor x="325.32" y="700.0" name="top"/>
  <anchor x="313.728" y="0.0" name="bottom"/>
  <outline>
    <contour>
      <point x="596.328" y="673.688" type="line"/>
      <point x="544.6080000000001" y="691.12"/>
      <point x="439.344" y="710.0"/>
      <point x="339.2" y="710.0" type="curve" smooth="yes"/>
      <point x="118.08" y="710.0"/>
      <point x="24.183999999999997" y="609.712"/>
      <point x="24.183999999999997" y="481.608" type="curve" smooth="yes"/>
      <point x="24.183999999999997" y="386.96000000000004"/>
      <point x="51.36000000000001" y="327.944"/>
      <point x="198.344" y="285.82400000000007" type="curve" smooth="yes"/>
      <point x="374.5919999999999" y="241.11999999999998"/>
      <point x="413.936" y="233.10400000000004"/>
      <point x="413.936" y="205.776" type="curve" smooth="yes"/>
      <point x="413.936" y="172.83200000000002"/>
      <point x="388.15200000000004" y="145.584"/>
      <point x="307.464" y="145.584" type="curve" smooth="yes"/>
      <point x="239.944" y="145.584"/>
      <point x="139.072" y="158.40800000000002"/>
      <point x="43.864" y="190.76" type="curve"/>
      <point x="5.768" y="36.744" type="line"/>
      <point x="104.136" y="1.096"/>
      <point x="217.168" y="-10.0"/>
      <point x="295.568" y="-10.0" type="curve" smooth="yes"/>
      <point x="514.96" y="-10.0"/>
      <point x="627.312" y="79.704"/>
      <point x="627.312" y="220.96" type="curve" smooth="yes"/>
      <point x="627.312" y="325.07199999999995"/>
      <point x="592.9839999999999" y="379.21599999999995"/>
      <point x="414.016" y="420.48" type="curve" smooth="yes"/>
      <point x="251.104" y="457.15999999999997"/>
      <point x="239.0" y="466.736"/>
      <point x="239.0" y="489.752" type="curve" smooth="yes"/>
      <point x="239.0" y="528.032"/>
      <point x="276.71200000000005" y="549.3919999999999"/>
      <point x="340.208" y="549.3919999999999" type="curve" smooth="yes"/>
      <point x="412.264" y="549.3919999999999"/>
      <point x="506.224" y="537.3919999999999"/>
      <point x="559.952" y="518.24" type="curve"/>
    </contour>
  </outline>
</glyph>
<glyph name="T" format="2">
  <advance width="643.704"/>
  <unicode hex="0054"/>
  <anchor x="321.852" y="700.0" name="top"/>
  <anchor x="321.852" y="0.0" name="bottom"/>
  <outline>
    <contour>
      <point x="625.7479999999999" y="520.8679999999999" type="line"/>
      <point x="625.7479999999999" y="700.0" type="line"/>
      <point x="17.956000000000003" y="700.0" type="line"/>
      <point x="17.956000000000003" y="520.8679999999999" type="line"/>
      <point x="220.52" y="520.8679999999999" type="line"/>
      <point x="220.52" y="0.0" type="line"/>
      <point x="423.7" y="0.0" type="line"/>
      <point x="423.7" y="520.8679999999999" type="line"/>
    </contour>
  </outline>
</glyph>
<glyph name="U" format="2">
  <advance width="699.0"/>
  <unicode hex="0055"/>
  <anchor x="444.12399999999997" y="1.032" name="ogonek"/>
  <anchor x="349.79999999999995" y="700.0" name="top"/>
  <anchor x="655.8240000000001" y="700.0" name="topright"/>
  <anchor x="349.79999999999995" y="0.0" name="bottom"/>
  <outline>
    <contour>
      <point x="43.176" y="233.488" type="line"/>
      <point x="43.176" y="60.8"/>
      <point x="148.144" y="-10.0"/>
      <point x="348.768" y="-10.0" type="curve" smooth="yes"/>
      <point x="553.004" y="-10.0"/>
      <point x="655.8240000000001" y="60.8"/>
      <point x="655.8240000000001" y="233.488" type="curve" smooth="yes"/>
      <point x="655.8240000000001" y="700.0" type="line"/>
      <point x="454.36400000000003" y="700.0" type="line"/>
      <point x="454.36400000000003" y="231.596" type="line" smooth="yes"/>
      <point x="454.36400000000003" y="177.684"/>
      <point x="417.444" y="153.104"/>
      <point x="349.8" y="153.104" type="curve" smooth="yes"/>
      <point x="285.08" y="153.104"/>
      <point x="243.60399999999998" y="174.588"/>
      <point x="243.60399999999998" y="231.596" type="curve" smooth="yes"/>
      <point x="243.60399999999998" y="700.0" type="line"/>
      <point x="43.176" y="700.0" type="line"/>
    </contour>
  </outline>
</glyph>
<glyph name="V" format="2">
  <advance width="677.592"/>
  <unicode hex="0056"/>
  <outline>
    <contour>
      <point x="219.744" y="0.0" type="line"/>
      <point x="461.6" y="0.0" type="line"/>
      <point x="679.352" y="699.72" type="line"/>
      <point x="456.82400000000007" y="700.904" type="line"/>
      <point x="341.36" y="165.35999999999999" type="line"/>
      <point x="222.52000000000004" y="700.904" type="line"/>
      <point x="-1.7600000000000007" y="699.72" type="line"/>
    </contour>
  </outline>
</glyph>
<glyph name="W" format="2">
  <advance width="842.5200000000001"/>
  <unicode hex="0057"/>
  <anchor x="421.12" y="700.0" name="top"/>
  <anchor x="421.12" y="0.0" name="bottom"/>
  <outline>
    <contour>
      <point x="701.608" y="0.0" type="line"/>
      <point x="842.904" y="700.032" type="line"/>
      <point x="623.728" y="700.592" type="line"/>
      <point x="591.184" y="190.512" type="line"/>
      <point x="512.584" y="656.1039999999999" type="line"/>
      <point x="334.84000000000003" y="656.1039999999999" type="line"/>
      <point x="250.39200000000002" y="189.856" type="line"/>
      <point x="216.728" y="700.592" type="line"/>
      <point x="-0.38400000000000034" y="700.032" type="line"/>
      <point x="136.47199999999998" y="0.0" type="line"/>
      <point x="340.64" y="0.0" type="line"/>
      <point x="418.808" y="392.1600000000001" type="line"/>
      <point x="488.8159999999999" y="0.0" type="line"/>
    </contour>
  </outline>
</glyph>
<glyph name="X" format="2">
  <advance width="660.336"/>
  <unicode hex="0058"/>
  <outline>
    <contour>
      <point x="-1.3440000000000007" y="0.27200000000000024" type="line"/>
      <point x="248.62400000000002" y="-1.128" type="line"/>
      <point x="334.07199999999995" y="241.136" type="line"/>
      <point x="419.67999999999995" y="-1.128" type="line"/>
      <point x="660.992" y="0.27200000000000024" type="line"/>
      <point x="472.24" y="360.992" type="line"/>
      <point x="649.9919999999998" y="699.728" type="line"/>
      <point x="416.55199999999996" y="700.848" type="line"/>
      <point x="335.41599999999994" y="472.56" type="line"/>
      <point x="256.776" y="700.848" type="line"/>
      <point x="15.784000000000002" y="699.728" type="line"/>
      <point x="193.65599999999998" y="356.984" type="line"/>
    </contour>
  </outline>
</glyph>
<glyph name="Y" format="2">
  <advance width="675.84"/>
  <unicode hex="0059"/>
  <anchor x="338.004" y="700.0" name="top"/>
  <anchor x="338.312" y="0.0" name="bottom"/>
  <outline>
    <contour>
      <point x="236.54799999999997" y="0.0" type="line"/>
      <point x="439.728" y="0.0" type="line"/>
      <point x="439.728" y="229.06" type="line"/>
      <point x="677.7480000000002" y="699.3000000000001" type="line"/>
      <point x="449.384" y="700.6999999999999" type="line"/>
      <point x="339.084" y="352.904" type="line"/>
      <point x="227.49599999999998" y="700.6999999999999" type="line"/>
      <point x="-2.2439999999999993" y="699.3000000000001" type="line"/>
      <point x="236.54799999999997" y="229.06" type="line"/>
    </contour>
  </outline>
</glyph>
<glyph name="Z" format="2">
  <advance width="636.3600000000001"/>
  <unicode hex="005A"/>
  <anchor x="318.88000000000005" y="350.0" name="center"/>
  <anchor x="318.88000000000005" y="0.0" name="bottom"/>
  <anchor x="321.75199999999995" y="700.0" name="top"/>
  <outline>
    <contour>
      <point x="21.696" y="0.0" type="line"/>
      <point x="614.208" y="0.0" type="line"/>
      <point x="614.208" y="163.90400000000002" type="line"/>
      <point x="278.71200000000005" y="163.90400000000002" type="line"/>
      <point x="278.71200000000005" y="165.472" type="line"/>
      <point x="596.808" y="539.24" type="line"/>
      <point x="596.808" y="700.0" type="line"/>
      <point x="38.832" y="700.0" type="line"/>
      <point x="38.832" y="536.0960000000001" type="line"/>
      <point x="345.96000000000004" y="536.0960000000001" type="line"/>
      <point x="345.96000000000004" y="534.528" type="line"/>
      <point x="21.696" y="160.76" type="line"/>
    </contour>
  </outline>
</glyph>
<glyph name="bracketleft" format="2">
  <advance width="335.784"/>
  <unicode hex="005B"/>
  <outline>
    <contour>
      <point x="183.388" y="-76.48" type="line"/>
      <point x="183.388" y="606.4799999999999" type="line"/>
      <point x="315.504" y="606.4799999999999" type="line"/>
      <point x="315.504" y="740.0" type="line"/>
      <point x="32.84" y="740.0" type="line"/>
      <point x="32.84" y="-210.0" type="line"/>
      <point x="315.504" y="-210.0" type="line"/>
      <point x="315.504" y="-76.48" type="line"/>
    </contour>
  </outline>
</glyph>
<glyph name="backslash" format="2">
  <advance width="463.832"/>
  <unicode hex="005C"/>
  <outline>
    <contour>
      <point x="156.63600000000002" y="740.0" type="line"/>
      <point x="-0.992" y="740.0" type="line"/>
      <point x="307.71199999999993" y="-210.0" type="line"/>
      <point x="464.824" y="-210.0" type="line"/>
    </contour>
  </outline>
</glyph>
<glyph name="bracketright" format="2">
  <advance width="335.784"/>
  <unicode hex="005D"/>
  <outline>
    <contour>
      <point x="20.279999999999998" y="-76.48" type="line"/>
      <point x="20.279999999999998" y="-210.0" type="line"/>
      <point x="302.944" y="-210.0" type="line"/>
      <point x="302.944" y="740.0" type="line"/>
      <point x="20.279999999999998" y="740.0" type="line"/>
      <point x="20.279999999999998" y="606.4799999999999" type="line"/>
      <point x="152.39600000000002" y="606.4799999999999" type="line"/>
      <point x="152.39600000000002" y="-76.48" type="line"/>
    </contour>
  </outline>
</glyph>
<glyph name="asciicircum" format="2">
  <advance width="548.168"/>
  <unicode hex="005E"/>
  <outline>
    <contour>
      <point x="46.84" y="233.252" type="line"/>
      <point x="195.232" y="233.252" type="line"/>
      <point x="274.084" y="502.4720000000001" type="line"/>
      <point x="353.796" y="233.252" type="line"/>
      <point x="501.32800000000003" y="233.252" type="line"/>
      <point x="362.688" y="701.4" type="line"/>
      <point x="185.48000000000002" y="701.4" type="line"/>
    </contour>
  </outline>
</glyph>
<glyph name="underscore" format="2">
  <advance width="787.848"/>
  <unicode hex="005F"/>
  <outline>
    <contour>
      <point x="17.2" y="-199.124" type="line"/>
      <point x="770.6479999999999" y="-199.124" type="line"/>
      <point x="770.6479999999999" y="-51.844" type="line"/>
      <point x="17.2" y="-51.844" type="line"/>
    </contour>
  </outline>
</glyph>
<glyph name="a" format="2">
  <advance width="610.6"/>
  <unicode hex="0061"/>
  <anchor x="601.1199999999999" y="13.879999999999999" name="ogonek"/>
  <anchor x="309.64" y="0.0" name="bottom"/>
  <anchor x="301.16" y="547.1999999999999" name="top"/>
  <outline>
    <contour>
      <point x="30.040000000000003" y="161.32" type="curve" smooth="yes"/>
      <point x="30.040000000000003" y="68.48"/>
      <point x="78.68" y="-10.0"/>
      <point x="180.95999999999998" y="-10.0" type="curve" smooth="yes"/>
      <point x="276.52" y="-10.0"/>
      <point x="339.99999999999994" y="25.04"/>
      <point x="390.71999999999997" y="68.36" type="curve"/>
      <point x="408.03999999999996" y="12.72"/>
      <point x="441.92" y="-10.0"/>
      <point x="504.00000000000006" y="-10.0" type="curve" smooth="yes"/>
      <point x="547.52" y="-10.0"/>
      <point x="576.6800000000001" y="0.8799999999999997"/>
      <point x="601.1199999999999" y="14.16" type="curve"/>
      <point x="590.84" y="154.56" type="line"/>
      <point x="585.7199999999999" y="152.72"/>
      <point x="577.88" y="151.72"/>
      <point x="571.6" y="151.72" type="curve" smooth="yes"/>
      <point x="552.16" y="151.72"/>
      <point x="538.0" y="163.16"/>
      <point x="538.0" y="210.07999999999998" type="curve" smooth="yes"/>
      <point x="538.0" y="335.72" type="line" smooth="yes"/>
      <point x="538.0" y="481.08"/>
      <point x="455.04" y="557.1999999999999"/>
      <point x="276.55999999999995" y="557.1999999999999" type="curve" smooth="yes"/>
      <point x="211.36" y="557.1999999999999"/>
      <point x="123.64" y="541.16"/>
      <point x="57.44" y="518.84" type="curve"/>
      <point x="89.24" y="369.71999999999997" type="line"/>
      <point x="166.39999999999998" y="392.48"/>
      <point x="220.36" y="398.47999999999996"/>
      <point x="263.52" y="398.47999999999996" type="curve" smooth="yes"/>
      <point x="334.24" y="398.47999999999996"/>
      <point x="380.15999999999997" y="376.08"/>
      <point x="380.15999999999997" y="333.28" type="curve" smooth="yes"/>
      <point x="380.15999999999997" y="341.64" type="line"/>
      <point x="141.68" y="326.08000000000004"/>
      <point x="30.040000000000003" y="302.4"/>
    </contour>
    <contour>
      <point x="188.15999999999997" y="176.51999999999998" type="curve" smooth="yes"/>
      <point x="188.15999999999997" y="240.88000000000002"/>
      <point x="256.12" y="244.2"/>
      <point x="380.15999999999997" y="245.28" type="curve"/>
      <point x="380.15999999999997" y="155.48" type="line"/>
      <point x="338.52000000000004" y="124.36000000000001"/>
      <point x="286.08" y="111.0"/>
      <point x="245.24" y="111.0" type="curve" smooth="yes"/>
      <point x="211.72" y="111.0"/>
      <point x="188.15999999999997" y="126.36"/>
    </contour>
  </outline>
</glyph>
<glyph name="b" format="2">
  <advance width="603.436"/>
  <unicode hex="0062"/>
  <outline>
    <contour>
      <point x="39.019999999999996" y="19.227999999999998" type="line"/>
      <point x="129.92000000000002" y="0.8719999999999999"/>
      <point x="218.72" y="-10.0"/>
      <point x="289.58400000000006" y="-10.0" type="curve" smooth="yes"/>
      <point x="497.076" y="-10.0"/>
      <point x="581.7199999999999" y="73.792"/>
      <point x="581.7199999999999" y="286.82400000000007" type="curve" smooth="yes"/>
      <point x="581.7199999999999" y="466.38399999999996"/>
      <point x="515.8" y="557.2"/>
      <point x="390.32" y="557.2" type="curve" smooth="yes"/>
      <point x="338.144" y="557.2"/>
      <point x="285.904" y="541.472"/>
      <point x="235.32000000000002" y="510.86" type="curve"/>
      <point x="235.32000000000002" y="740.0" type="line"/>
      <point x="39.019999999999996" y="740.0" type="line"/>
    </contour>
    <contour>
      <point x="235.32000000000002" y="139.04" type="curve"/>
      <point x="235.32000000000002" y="372.24" type="line"/>
      <point x="266.076" y="387.244"/>
      <point x="291.28400000000005" y="393.92"/>
      <point x="315.08" y="393.92" type="curve" smooth="yes"/>
      <point x="357.408" y="393.92"/>
      <point x="378.368" y="362.652"/>
      <point x="378.368" y="271.172" type="curve" smooth="yes"/>
      <point x="378.368" y="162.54399999999998"/>
      <point x="353.156" y="130.09199999999998"/>
      <point x="298.45200000000006" y="130.09199999999998" type="curve" smooth="yes"/>
      <point x="278.672" y="130.09199999999998"/>
      <point x="257.16" y="133.0"/>
    </contour>
  </outline>
</glyph>
<glyph name="c" format="2">
  <advance width="532.9440000000001"/>
  <unicode hex="0063"/>
  <anchor x="306.48" y="547.1999999999999" name="top"/>
  <anchor x="309.144" y="0.0" name="bottom"/>
  <outline>
    <contour>
      <point x="21.856" y="265.312" type="curve" smooth="yes"/>
      <point x="21.856" y="79.64799999999998"/>
      <point x="112.12800000000001" y="-10.0"/>
      <point x="300.384" y="-10.0" type="curve" smooth="yes"/>
      <point x="374.008" y="-10.0"/>
      <point x="457.592" y="1.4399999999999995"/>
      <point x="518.136" y="18.312" type="curve"/>
      <point x="488.024" y="171.096" type="line"/>
      <point x="434.10400000000004" y="160.984"/>
      <point x="391.624" y="155.73600000000002"/>
      <point x="344.328" y="155.73600000000002" type="curve" smooth="yes"/>
      <point x="267.82399999999996" y="155.73600000000002"/>
      <point x="224.648" y="189.072"/>
      <point x="224.648" y="272.4080000000001" type="curve" smooth="yes"/>
      <point x="224.648" y="356.256"/>
      <point x="262.19199999999995" y="389.36800000000005"/>
      <point x="339.704" y="389.36800000000005" type="curve" smooth="yes"/>
      <point x="382.68" y="389.36800000000005"/>
      <point x="430.944" y="384.52000000000004"/>
      <point x="480.42400000000004" y="374.72" type="curve"/>
      <point x="507.1600000000001" y="535.448" type="line"/>
      <point x="457.36" y="548.88"/>
      <point x="384.56800000000004" y="557.1999999999999"/>
      <point x="317.08000000000004" y="557.1999999999999" type="curve" smooth="yes"/>
      <point x="124.46399999999998" y="557.1999999999999"/>
      <point x="21.856" y="457.416"/>
    </contour>
  </outline>
</glyph>
<glyph name="d" format="2">
  <advance width="604.3520000000001"/>
  <unicode hex="0064"/>
  <anchor x="302.75199999999995" y="275.0" name="center"/>
  <anchor x="295.44" y="740.0" name="top"/>
  <anchor x="607.032" y="740.0" name="topright"/>
  <anchor x="302.75199999999995" y="0.0" name="bottom"/>
  <outline>
    <contour>
      <point x="393.10400000000004" y="-1.4320000000000002" type="line"/>
      <point x="565.4720000000001" y="-1.4320000000000002" type="line"/>
      <point x="565.4720000000001" y="740.0" type="line"/>
      <point x="368.31999999999994" y="740.0" type="line"/>
      <point x="368.31999999999994" y="551.656" type="line"/>
      <point x="343.816" y="555.2080000000001"/>
      <point x="316.16" y="557.2"/>
      <point x="291.496" y="557.2" type="curve" smooth="yes"/>
      <point x="108.25599999999999" y="557.2"/>
      <point x="21.632" y="461.024"/>
      <point x="21.632" y="265.048" type="curve" smooth="yes"/>
      <point x="21.632" y="86.584"/>
      <point x="88.928" y="-10.0"/>
      <point x="210.104" y="-10.0" type="curve" smooth="yes"/>
      <point x="266.952" y="-10.0"/>
      <point x="319.232" y="5.559999999999999"/>
      <point x="370.47200000000004" y="37.23199999999999" type="curve"/>
    </contour>
    <contour>
      <point x="368.032" y="172.032" type="line"/>
      <point x="338.87999999999994" y="158.85600000000002"/>
      <point x="312.52799999999996" y="152.04"/>
      <point x="289.36" y="152.04" type="curve" smooth="yes"/>
      <point x="246.82400000000004" y="152.04"/>
      <point x="225.80800000000002" y="185.71999999999997"/>
      <point x="225.80800000000002" y="284.68799999999993" type="curve" smooth="yes"/>
      <point x="225.80800000000002" y="384.656"/>
      <point x="250.824" y="415.224"/>
      <point x="304.81600000000003" y="415.224" type="curve" smooth="yes"/>
      <point x="325.624" y="415.224"/>
      <point x="346.13599999999997" y="412.512"/>
      <point x="368.032" y="404.95199999999994" type="curve"/>
    </contour>
  </outline>
</glyph>
<glyph name="e" format="2">
  <advance width="575.4159999999999"/>
  <unicode hex="0065"/>
  <anchor x="495.272" y="11.576000000000002" name="ogonek"/>
  <anchor x="291.37600000000003" y="0.0" name="bottom"/>
  <anchor x="297.27199999999993" y="547.1999999999999" name="top"/>
  <outline>
    <contour>
      <point x="302.312" y="-10.0" type="curve" smooth="yes"/>
      <point x="397.232" y="-10.0"/>
      <point x="470.80799999999994" y="0.8560000000000028"/>
      <point x="547.488" y="25.744000000000003" type="curve"/>
      <point x="524.568" y="165.41599999999997" type="line"/>
      <point x="457.0640000000001" y="151.128"/>
      <point x="392.232" y="141.712"/>
      <point x="338.85600000000005" y="141.712" type="curve" smooth="yes"/>
      <point x="254.36800000000002" y="141.712"/>
      <point x="224.51999999999998" y="164.58399999999997"/>
      <point x="223.94399999999996" y="207.28799999999998" type="curve" smooth="yes"/>
      <point x="223.94399999999996" y="210.55200000000002"/>
      <point x="223.944" y="212.81599999999997"/>
      <point x="224.224" y="216.07999999999998" type="curve"/>
      <point x="348.728" y="219.376"/>
      <point x="475.37600000000003" y="230.944"/>
      <point x="547.888" y="236.808" type="curve"/>
      <point x="549.1759999999999" y="256.112"/>
      <point x="549.888" y="283.59999999999997"/>
      <point x="549.888" y="298.0559999999999" type="curve" smooth="yes"/>
      <point x="549.888" y="480.72799999999995"/>
      <point x="473.112" y="557.1999999999999"/>
      <point x="304.52" y="557.1999999999999" type="curve" smooth="yes"/>
      <point x="139.68" y="557.1999999999999"/>
      <point x="21.632" y="476.88800000000003"/>
      <point x="21.632" y="264.208" type="curve" smooth="yes"/>
      <point x="21.632" y="67.25600000000001"/>
      <point x="125.888" y="-10.0"/>
    </contour>
    <contour>
      <point x="224.792" y="326.01599999999996" type="curve"/>
      <point x="232.48" y="402.472"/>
      <point x="257.68" y="421.256"/>
      <point x="293.79200000000003" y="421.256" type="curve" smooth="yes"/>
      <point x="334.288" y="421.256"/>
      <point x="352.17600000000004" y="400.656"/>
      <point x="355.04" y="331.11999999999995" type="curve"/>
      <point x="324.90400000000005" y="329.272"/>
      <point x="272.52000000000004" y="326.872"/>
    </contour>
  </outline>
</glyph>
<glyph name="f" format="2">
  <advance width="415.252"/>
  <unicode hex="0066"/>
  <outline>
    <contour>
      <point x="81.684" y="0.0" type="line"/>
      <point x="274.544" y="0.0" type="line"/>
      <point x="274.544" y="365.528" type="line"/>
      <point x="392.78000000000003" y="365.528" type="line"/>
      <point x="392.78000000000003" y="507.22" type="line"/>
      <point x="275.06" y="507.22" type="line"/>
      <point x="275.06" y="520.812" type="line" smooth="yes"/>
      <point x="275.06" y="575.208"/>
      <point x="300.012" y="596.496"/>
      <point x="345.3" y="596.496" type="curve" smooth="yes"/>
      <point x="369.636" y="596.496"/>
      <point x="400.74799999999993" y="591.956"/>
      <point x="427.704" y="584.112" type="curve"/>
      <point x="453.26" y="721.248" type="line"/>
      <point x="402.984" y="741.128"/>
      <point x="351.86400000000003" y="750.0559999999999"/>
      <point x="297.776" y="750.0559999999999" type="curve" smooth="yes"/>
      <point x="157.944" y="750.0559999999999"/>
      <point x="81.684" y="670.704"/>
      <point x="81.684" y="523.9080000000001" type="curve" smooth="yes"/>
      <point x="81.684" y="507.22" type="line"/>
      <point x="10.84" y="495.944" type="line"/>
      <point x="10.84" y="365.528" type="line"/>
      <point x="81.684" y="365.528" type="line"/>
    </contour>
  </outline>
</glyph>
<glyph name="g" format="2">
  <advance width="594.144"/>
  <unicode hex="0067"/>
  <anchor x="276.488" y="547.1999999999999" name="top"/>
  <anchor x="280.808" y="-214.0" name="bottom"/>
  <outline>
    <contour>
      <point x="256.29599999999994" y="-220.0" type="curve" smooth="yes"/>
      <point x="466.52000000000004" y="-220.0"/>
      <point x="574.272" y="-147.53599999999997"/>
      <point x="574.272" y="-16.999999999999996" type="curve" smooth="yes"/>
      <point x="574.272" y="78.176"/>
      <point x="509.36000000000007" y="135.656"/>
      <point x="396.632" y="135.656" type="curve" smooth="yes"/>
      <point x="223.97600000000003" y="135.656" type="line" smooth="yes"/>
      <point x="193.264" y="135.656"/>
      <point x="178.464" y="145.6"/>
      <point x="178.464" y="165.52000000000004" type="curve" smooth="yes"/>
      <point x="178.464" y="184.59199999999996"/>
      <point x="187.96" y="195.97600000000003"/>
      <point x="210.02399999999997" y="208.67200000000003" type="curve"/>
      <point x="114.09599999999999" y="232.67999999999998" type="line"/>
      <point x="63.8" y="207.12"/>
      <point x="30.184000000000005" y="168.80800000000002"/>
      <point x="30.184000000000005" y="109.904" type="curve" smooth="yes"/>
      <point x="30.184000000000005" y="24.119999999999997"/>
      <point x="108.16799999999999" y="-15.007999999999997"/>
      <point x="228.99200000000002" y="-15.007999999999997" type="curve" smooth="yes"/>
      <point x="329.98400000000004" y="-15.007999999999997" type="line" smooth="yes"/>
      <point x="381.99199999999996" y="-15.007999999999997"/>
      <point x="390.59200000000004" y="-21.215999999999994"/>
      <point x="390.59200000000004" y="-41.36800000000001" type="curve" smooth="yes"/>
      <point x="390.59200000000004" y="-68.312"/>
      <point x="349.016" y="-83.328"/>
      <point x="270.04800000000006" y="-83.328" type="curve" smooth="yes"/>
      <point x="184.02400000000003" y="-83.328"/>
      <point x="158.58400000000003" y="-71.736"/>
      <point x="158.58400000000003" y="-40.60800000000002" type="curve" smooth="yes"/>
      <point x="158.58400000000003" y="-21.735999999999997"/>
      <point x="167.928" y="-12.535999999999996"/>
      <point x="186.792" y="-1.6000000000000012" type="curve"/>
      <point x="94.352" y="33.336" type="line"/>
      <point x="37.36000000000001" y="9.079999999999998"/>
      <point x="7.783999999999999" y="-30.191999999999997"/>
      <point x="7.783999999999999" y="-85.04799999999999" type="curve" smooth="yes"/>
      <point x="7.783999999999999" y="-174.88"/>
      <point x="92.39200000000001" y="-220.0"/>
    </contour>
    <contour>
      <point x="276.36" y="177.60799999999998" type="curve" smooth="yes"/>
      <point x="437.93600000000004" y="177.60799999999998"/>
      <point x="520.424" y="241.632"/>
      <point x="520.424" y="367.408" type="curve" smooth="yes"/>
      <point x="520.424" y="493.464"/>
      <point x="437.93600000000004" y="557.4879999999999"/>
      <point x="276.36" y="557.4879999999999" type="curve" smooth="yes"/>
      <point x="114.78399999999999" y="557.4879999999999"/>
      <point x="32.296" y="493.464"/>
      <point x="32.296" y="367.408" type="curve" smooth="yes"/>
      <point x="32.296" y="241.632"/>
      <point x="114.78399999999999" y="177.60799999999998"/>
    </contour>
    <contour>
      <point x="276.36" y="298.2" type="curve" smooth="yes"/>
      <point x="235.56" y="298.2"/>
      <point x="216.81600000000003" y="313.81600000000003"/>
      <point x="216.81600000000003" y="367.408" type="curve" smooth="yes"/>
      <point x="216.81600000000003" y="421.56000000000006"/>
      <point x="235.56" y="437.176"/>
      <point x="276.36" y="437.176" type="curve" smooth="yes"/>
      <point x="317.16" y="437.176"/>
      <point x="335.90400000000005" y="421.56000000000006"/>
      <point x="335.90400000000005" y="367.408" type="curve" smooth="yes"/>
      <point x="335.90400000000005" y="313.81600000000003"/>
      <point x="317.16" y="298.2"/>
    </contour>
    <contour>
      <point x="489.52000000000004" y="409.02399999999994" type="line"/>
      <point x="499.64000000000004" y="425.816"/>
      <point x="513.736" y="434.08"/>
      <point x="531.528" y="434.08" type="curve" smooth="yes"/>
      <point x="544.8240000000001" y="434.08"/>
      <point x="558.4080000000001" y="432.36"/>
      <point x="569.8480000000001" y="429.504" type="curve"/>
      <point x="592.488" y="576.056" type="line"/>
      <point x="576.472" y="581.9279999999999"/>
      <point x="556.7199999999999" y="585.3680000000002"/>
      <point x="534.8240000000001" y="585.3680000000002" type="curve" smooth="yes"/>
      <point x="475.64000000000004" y="585.3680000000002"/>
      <point x="435.91200000000003" y="560.064"/>
      <point x="416.76" y="508.15200000000004" type="curve"/>
    </contour>
  </outline>
</glyph>
<glyph name="h" format="2">
  <advance width="593.688"/>
  <unicode hex="0068"/>
  <anchor x="293.264" y="395.0" name="center"/>
  <anchor x="296.704" y="0.0" name="bottom"/>
  <anchor x="299.848" y="740.0" name="top"/>
  <outline>
    <contour>
      <point x="38.879999999999995" y="0.0" type="line"/>
      <point x="235.60000000000002" y="0.0" type="line"/>
      <point x="235.60000000000002" y="373.13599999999997" type="line"/>
      <point x="262.04" y="384.92"/>
      <point x="284.20799999999997" y="392.29599999999994"/>
      <point x="307.6240000000001" y="392.29599999999994" type="curve" smooth="yes"/>
      <point x="338.29600000000005" y="392.29599999999994"/>
      <point x="358.52" y="376.104"/>
      <point x="358.52" y="331.34400000000005" type="curve" smooth="yes"/>
      <point x="358.52" y="0.0" type="line"/>
      <point x="555.672" y="0.0" type="line"/>
      <point x="555.672" y="394.408" type="line" smooth="yes"/>
      <point x="555.672" y="497.43199999999996"/>
      <point x="499.66400000000004" y="557.2"/>
      <point x="392.59999999999997" y="557.2" type="curve" smooth="yes"/>
      <point x="338.104" y="557.2"/>
      <point x="289.84799999999996" y="540.792"/>
      <point x="235.60000000000002" y="505.216" type="curve"/>
      <point x="235.60000000000002" y="740.0" type="line"/>
      <point x="38.879999999999995" y="740.0" type="line"/>
    </contour>
  </outline>
</glyph>
<glyph name="i" format="2">
  <advance width="274.34000000000003"/>
  <unicode hex="0069"/>
  <anchor x="235.264" y="0.0" name="ogonek"/>
  <anchor x="137.428" y="0.0" name="bottom"/>
  <outline>
    <contour>
      <point x="137.428" y="584.464" type="curve" smooth="yes"/>
      <point x="217.244" y="584.464"/>
      <point x="252.04399999999998" y="616.768"/>
      <point x="252.04399999999998" y="681.4440000000001" type="curve" smooth="yes"/>
      <point x="252.04399999999998" y="747.152"/>
      <point x="216.21200000000002" y="778.94"/>
      <point x="137.428" y="778.94" type="curve" smooth="yes"/>
      <point x="58.128" y="778.94"/>
      <point x="22.296" y="747.152"/>
      <point x="22.296" y="681.4440000000001" type="curve" smooth="yes"/>
      <point x="22.296" y="616.2520000000001"/>
      <point x="58.268" y="584.464"/>
    </contour>
    <contour>
      <point x="39.019999999999996" y="0.0" type="line"/>
      <point x="235.32000000000002" y="0.0" type="line"/>
      <point x="235.32000000000002" y="547.2" type="line"/>
      <point x="39.019999999999996" y="547.2" type="line"/>
    </contour>
  </outline>
</glyph>
<glyph name="j" format="2">
  <advance width="284.0"/>
  <unicode hex="006A"/>
  <outline>
    <contour>
      <point x="245.036" y="547.2" type="line"/>
      <point x="48.736000000000004" y="547.2" type="line"/>
      <point x="48.736000000000004" y="42.036" type="line" smooth="yes"/>
      <point x="48.736000000000004" y="-17.956"/>
      <point x="32.04" y="-40.39600000000001"/>
      <point x="-8.528000000000002" y="-44.876" type="curve" smooth="yes"/>
      <point x="-17.42" y="-45.632000000000005"/>
      <point x="-25.28" y="-44.69999999999999"/>
      <point x="-35.86" y="-42.596" type="curve"/>
      <point x="-51.916" y="-207.284" type="line"/>
      <point x="-21.676" y="-213.51999999999998"/>
      <point x="15.704" y="-216.80799999999996"/>
      <point x="42.30800000000001" y="-215.96799999999996" type="curve" smooth="yes"/>
      <point x="187.152" y="-210.9"/>
      <point x="245.036" y="-127.152"/>
      <point x="245.036" y="31.372" type="curve" smooth="yes"/>
    </contour>
    <contour>
      <point x="147.032" y="584.464" type="curve" smooth="yes"/>
      <point x="226.764" y="584.464"/>
      <point x="261.648" y="616.768"/>
      <point x="261.648" y="681.4440000000001" type="curve" smooth="yes"/>
      <point x="261.648" y="747.152"/>
      <point x="225.73199999999997" y="778.94"/>
      <point x="147.032" y="778.94" type="curve" smooth="yes"/>
      <point x="67.732" y="778.94"/>
      <point x="31.9" y="747.152"/>
      <point x="31.9" y="681.4440000000001" type="curve" smooth="yes"/>
      <point x="31.9" y="616.2520000000001"/>
      <point x="67.872" y="584.464"/>
    </contour>
  </outline>
</glyph>
<glyph name="k" format="2">
  <advance width="598.1199999999999"/>
  <unicode hex="006B"/>
  <anchor x="127.4" y="740.0" name="top"/>
  <anchor x="301.2" y="0.0" name="bottom"/>
  <outline>
    <contour>
      <point x="537.84" y="-11.160000000000002" type="curve" smooth="yes"/>
      <point x="551.56" y="-11.160000000000002"/>
      <point x="564.44" y="-10.16"/>
      <point x="579.48" y="-7.44" type="curve"/>
      <point x="578.2" y="164.2" type="line"/>
      <point x="573.64" y="164.2"/>
      <point x="570.8" y="163.92"/>
      <point x="568.2400000000001" y="163.92" type="curve" smooth="yes"/>
      <point x="530.1999999999999" y="163.92"/>
      <point x="486.68" y="192.0"/>
      <point x="382.20000000000005" y="283.68" type="curve" smooth="yes"/>
      <point x="202.95999999999998" y="441.92" type="line"/>
      <point x="202.95999999999998" y="740.0" type="line"/>
      <point x="51.84" y="740.0" type="line"/>
      <point x="51.84" y="0.0" type="line"/>
      <point x="202.95999999999998" y="0.0" type="line"/>
      <point x="202.95999999999998" y="202.72000000000003" type="line"/>
      <point x="344.67999999999995" y="86.32" type="line" smooth="yes"/>
      <point x="441.68" y="5.879999999999999"/>
      <point x="483.76" y="-11.160000000000002"/>
    </contour>
    <contour>
      <point x="333.0" y="227.48" type="line"/>
      <point x="436.32000000000005" y="323.64"/>
      <point x="542.32" y="442.88"/>
      <point x="575.16" y="545.04" type="curve"/>
      <point x="420.2" y="556.1999999999999" type="line"/>
      <point x="394.08" y="462.44"/>
      <point x="319.67999999999995" y="398.08"/>
      <point x="227.23999999999998" y="319.24" type="curve"/>
    </contour>
  </outline>
</glyph>
<glyph name="l" format="2">
  <advance width="335.552"/>
  <unicode hex="006C"/>
  <anchor x="167.76" y="395.0" name="center"/>
  <anchor x="137.428" y="740.0" name="top"/>
  <anchor x="277.02000000000004" y="740.0" name="topright"/>
  <anchor x="185.44" y="0.0" name="bottom"/>
  <outline>
    <contour>
      <point x="235.32000000000002" y="740.0" type="line"/>
      <point x="39.019999999999996" y="740.0" type="line"/>
      <point x="39.019999999999996" y="191.088" type="line" smooth="yes"/>
      <point x="39.019999999999996" y="43.54"/>
      <point x="96.832" y="-10.0"/>
      <point x="215.088" y="-10.0" type="curve" smooth="yes"/>
      <point x="264.416" y="-10.0"/>
      <point x="305.68399999999997" y="2.6"/>
      <point x="337.38800000000003" y="16.94" type="curve"/>
      <point x="319.97200000000004" y="165.684" type="line"/>
      <point x="301.948" y="161.14800000000002"/>
      <point x="287.388" y="158.436"/>
      <point x="275.804" y="158.436" type="curve" smooth="yes"/>
      <point x="250.872" y="158.436"/>
      <point x="235.32000000000002" y="167.38400000000001"/>
      <point x="235.32000000000002" y="209.836" type="curve" smooth="yes"/>
    </contour>
  </outline>
</glyph>
<glyph name="m" format="2">
  <advance width="880.5360000000001"/>
  <unicode hex="006D"/>
  <outline>
    <contour>
      <point x="39.019999999999996" y="0.0" type="line"/>
      <point x="235.836" y="0.0" type="line"/>
      <point x="235.836" y="373.192" type="line"/>
      <point x="256.056" y="383.884"/>
      <point x="274.88800000000003" y="390.71599999999995"/>
      <point x="294.74" y="390.71599999999995" type="curve" smooth="yes"/>
      <point x="327.212" y="390.71599999999995"/>
      <point x="342.51599999999996" y="368.67199999999997"/>
      <point x="342.51599999999996" y="331.204" type="curve" smooth="yes"/>
      <point x="342.51599999999996" y="0.0" type="line"/>
      <point x="539.332" y="0.0" type="line"/>
      <point x="539.332" y="347.028" type="line" smooth="yes"/>
      <point x="539.332" y="355.388"/>
      <point x="538.968" y="364.83199999999994"/>
      <point x="537.588" y="373.22" type="curve"/>
      <point x="558.888" y="383.564"/>
      <point x="578.488" y="391.34"/>
      <point x="599.1080000000001" y="391.34" type="curve" smooth="yes"/>
      <point x="631.46" y="391.34"/>
      <point x="645.732" y="369.584"/>
      <point x="645.732" y="331.428" type="curve" smooth="yes"/>
      <point x="645.732" y="0.0" type="line"/>
      <point x="842.548" y="0.0" type="line"/>
      <point x="842.548" y="396.96" type="line" smooth="yes"/>
      <point x="842.548" y="493.804"/>
      <point x="789.58" y="557.2"/>
      <point x="691.7159999999999" y="557.2" type="curve" smooth="yes"/>
      <point x="631.5799999999999" y="557.2"/>
      <point x="581.432" y="540.84"/>
      <point x="508.776" y="495.084" type="curve"/>
      <point x="485.04400000000004" y="536.3360000000001"/>
      <point x="447.32000000000005" y="556.9200000000001"/>
      <point x="383.56399999999996" y="556.9200000000001" type="curve" smooth="yes"/>
      <point x="330.68000000000006" y="556.9200000000001"/>
      <point x="277.572" y="540.864"/>
      <point x="216.4" y="500.05600000000004" type="curve"/>
      <point x="216.4" y="547.2" type="line"/>
      <point x="39.019999999999996" y="547.2" type="line"/>
    </contour>
  </outline>
</glyph>
<glyph name="n" format="2">
  <advance width="593.952"/>
  <unicode hex="006E"/>
  <anchor x="294.76" y="547.2" name="top"/>
  <anchor x="295.03999999999996" y="0.0" name="bottom"/>
  <outline>
    <contour>
      <point x="39.019999999999996" y="0.0" type="line"/>
      <point x="235.836" y="0.0" type="line"/>
      <point x="235.836" y="373.248" type="line"/>
      <point x="261.872" y="384.68399999999997"/>
      <point x="284.584" y="392.71599999999995"/>
      <point x="308.196" y="392.71599999999995" type="curve" smooth="yes"/>
      <point x="338.868" y="392.71599999999995"/>
      <point x="359.14799999999997" y="376.328"/>
      <point x="359.14799999999997" y="331.48400000000004" type="curve" smooth="yes"/>
      <point x="359.14799999999997" y="0.0" type="line"/>
      <point x="555.964" y="0.0" type="line"/>
      <point x="555.964" y="397.016" type="line" smooth="yes"/>
      <point x="555.964" y="492.56399999999996"/>
      <point x="503.708" y="557.2"/>
      <point x="392.892" y="557.2" type="curve" smooth="yes"/>
      <point x="332.344" y="557.2"/>
      <point x="282.116" y="540.884"/>
      <point x="216.4" y="500.02799999999996" type="curve"/>
      <point x="216.4" y="547.2" type="line"/>
      <point x="39.019999999999996" y="547.2" type="line"/>
    </contour>
  </outline>
</glyph>
<glyph name="o" format="2">
  <advance width="594.9999999999999"/>
  <unicode hex="006F"/>
  <anchor x="401.604" y="5.56" name="ogonek"/>
  <anchor x="297.49999999999994" y="547.2" name="top"/>
  <anchor x="461.0079999999999" y="537.76" name="topright"/>
  <anchor x="297.78799999999995" y="0.0" name="bottom"/>
  <outline>
    <contour>
      <point x="21.772000000000002" y="274.916" type="curve" smooth="yes"/>
      <point x="21.772000000000002" y="100.076"/>
      <point x="90.876" y="-10.0"/>
      <point x="297.78799999999995" y="-10.0" type="curve" smooth="yes"/>
      <point x="504.12399999999997" y="-10.0"/>
      <point x="573.2280000000002" y="100.076"/>
      <point x="573.2280000000002" y="274.916" type="curve" smooth="yes"/>
      <point x="573.2280000000002" y="444.556"/>
      <point x="511.212" y="557.2"/>
      <point x="297.78799999999995" y="557.2" type="curve" smooth="yes"/>
      <point x="83.676" y="557.2"/>
      <point x="21.772000000000002" y="444.556"/>
    </contour>
    <contour>
      <point x="224.38" y="274.628" type="curve" smooth="yes"/>
      <point x="224.38" y="378.572"/>
      <point x="241.93200000000002" y="409.128"/>
      <point x="297.49999999999994" y="409.128" type="curve" smooth="yes"/>
      <point x="352.84" y="409.128"/>
      <point x="370.50800000000004" y="378.572"/>
      <point x="370.50800000000004" y="274.628" type="curve" smooth="yes"/>
      <point x="370.50800000000004" y="168.23599999999996"/>
      <point x="349.88" y="138.58800000000002"/>
      <point x="297.49999999999994" y="138.58800000000002" type="curve" smooth="yes"/>
      <point x="244.604" y="138.58800000000002"/>
      <point x="224.38" y="168.23599999999996"/>
    </contour>
  </outline>
</glyph>
<glyph name="p" format="2">
  <advance width="603.952"/>
  <unicode hex="0070"/>
  <outline>
    <contour>
      <point x="39.019999999999996" y="-210.0" type="line"/>
      <point x="236.18" y="-210.0" type="line"/>
      <point x="236.18" y="-4.204" type="line"/>
      <point x="262.18399999999997" y="-7.952"/>
      <point x="289.252" y="-10.0"/>
      <point x="312.288" y="-10.0" type="curve" smooth="yes"/>
      <point x="495.528" y="-10.0"/>
      <point x="582.2360000000001" y="86.69200000000001"/>
      <point x="582.2360000000001" y="282.696" type="curve" smooth="yes"/>
      <point x="582.2360000000001" y="461.224"/>
      <point x="515.2840000000001" y="557.2"/>
      <point x="393.932" y="557.2" type="curve" smooth="yes"/>
      <point x="335.73600000000005" y="557.2"/>
      <point x="281.60400000000004" y="540.9559999999999"/>
      <point x="222.592" y="505.012" type="curve"/>
      <point x="216.4" y="548.0400000000001" type="line"/>
      <point x="39.019999999999996" y="548.0400000000001" type="line"/>
    </contour>
    <contour>
      <point x="298.968" y="132.156" type="curve" smooth="yes"/>
      <point x="278.672" y="132.156"/>
      <point x="257.16" y="135.57999999999998"/>
      <point x="235.836" y="142.65200000000002" type="curve"/>
      <point x="235.836" y="375.852" type="line"/>
      <point x="265.56" y="389.824"/>
      <point x="291.28400000000005" y="395.984"/>
      <point x="314.56399999999996" y="395.984" type="curve" smooth="yes"/>
      <point x="357.408" y="395.984"/>
      <point x="378.368" y="363.684"/>
      <point x="378.368" y="262.91600000000005" type="curve" smooth="yes"/>
      <point x="378.368" y="163.57600000000002"/>
      <point x="353.156" y="132.156"/>
    </contour>
  </outline>
</glyph>
<glyph name="q" format="2">
  <advance width="604.4680000000001"/>
  <unicode hex="0071"/>
  <outline>
    <contour>
      <point x="565.4480000000001" y="530.12" type="line"/>
      <point x="478.42400000000004" y="547.444"/>
      <point x="389.35999999999996" y="557.2"/>
      <point x="314.884" y="557.2" type="curve" smooth="yes"/>
      <point x="112.55200000000002" y="557.2"/>
      <point x="21.716" y="469.79600000000005"/>
      <point x="21.716" y="274.824" type="curve" smooth="yes"/>
      <point x="21.716" y="83.48"/>
      <point x="87.20400000000001" y="-10.0"/>
      <point x="214.148" y="-10.0" type="curve" smooth="yes"/>
      <point x="267.35599999999994" y="-10.0"/>
      <point x="319.59599999999995" y="5.7280000000000015"/>
      <point x="369.14799999999997" y="35.824" type="curve"/>
      <point x="369.14799999999997" y="-210.0" type="line"/>
      <point x="565.4480000000001" y="-210.0" type="line"/>
    </contour>
    <contour>
      <point x="368.632" y="407.044" type="curve"/>
      <point x="368.632" y="173.928" type="line"/>
      <point x="338.90799999999996" y="159.44"/>
      <point x="313.18399999999997" y="152.24800000000002"/>
      <point x="289.388" y="152.24800000000002" type="curve" smooth="yes"/>
      <point x="247.14400000000003" y="152.24800000000002"/>
      <point x="226.1" y="183.684"/>
      <point x="226.1" y="274.996" type="curve" smooth="yes"/>
      <point x="226.1" y="383.62399999999997"/>
      <point x="251.312" y="416.076"/>
      <point x="306.016" y="416.076" type="curve" smooth="yes"/>
      <point x="325.54" y="416.076"/>
      <point x="347.30800000000005" y="413.16799999999995"/>
    </contour>
  </outline>
</glyph>
<glyph name="r" format="2">
  <advance width="432.592"/>
  <unicode hex="0072"/>
  <anchor x="224.452" y="547.2" name="top"/>
  <anchor x="136.912" y="0.0" name="bottom"/>
  <outline>
    <contour>
      <point x="215.88400000000001" y="547.2" type="line"/>
      <point x="39.019999999999996" y="547.2" type="line"/>
      <point x="39.019999999999996" y="0.0" type="line"/>
      <point x="234.804" y="0.0" type="line"/>
      <point x="234.804" y="349.4920000000001" type="line"/>
      <point x="271.46000000000004" y="370.58"/>
      <point x="300.79200000000003" y="377.064"/>
      <point x="329.928" y="377.064" type="curve" smooth="yes"/>
      <point x="349.512" y="377.064"/>
      <point x="373.44" y="374.384"/>
      <point x="398.216" y="368.328" type="curve"/>
      <point x="428.616" y="546.488" type="line"/>
      <point x="403.172" y="554.292"/>
      <point x="380.684" y="557.2"/>
      <point x="361.008" y="557.2" type="curve" smooth="yes"/>
      <point x="303.988" y="557.2"/>
      <point x="271.156" y="537.4719999999999"/>
      <point x="215.88400000000001" y="485.13599999999997" type="curve"/>
    </contour>
  </outline>
</glyph>
<glyph name="s" format="2">
  <advance width="489.84"/>
  <unicode hex="0073"/>
  <anchor x="244.95999999999998" y="547.1999999999999" name="top"/>
  <anchor x="246.67999999999995" y="0.0" name="bottom"/>
  <outline>
    <contour>
      <point x="18.840000000000003" y="20.28" type="line"/>
      <point x="85.91999999999999" y="-1.4400000000000004"/>
      <point x="151.64000000000001" y="-10.0"/>
      <point x="225.24000000000004" y="-10.0" type="curve" smooth="yes"/>
      <point x="359.32" y="-10.0"/>
      <point x="476.03999999999996" y="34.84"/>
      <point x="476.03999999999996" y="179.6" type="curve" smooth="yes"/>
      <point x="476.03999999999996" y="292.23999999999995"/>
      <point x="403.56" y="330.55999999999995"/>
      <point x="309.15999999999997" y="346.91999999999996" type="curve" smooth="yes"/>
      <point x="239.2" y="358.72"/>
      <point x="206.0" y="360.08"/>
      <point x="206.0" y="384.2" type="curve" smooth="yes"/>
      <point x="206.0" y="403.76"/>
      <point x="226.20000000000002" y="410.80000000000007"/>
      <point x="261.28000000000003" y="410.80000000000007" type="curve" smooth="yes"/>
      <point x="330.91999999999996" y="410.80000000000007"/>
      <point x="376.8" y="400.80000000000007"/>
      <point x="424.56" y="386.35999999999996" type="curve"/>
      <point x="447.76" y="528.3199999999999" type="line"/>
      <point x="396.84" y="545.4799999999999"/>
      <point x="332.91999999999996" y="557.1999999999999"/>
      <point x="261.28" y="557.1999999999999" type="curve" smooth="yes"/>
      <point x="103.56" y="557.1999999999999"/>
      <point x="23.64" y="495.6"/>
      <point x="23.64" y="366.0" type="curve" smooth="yes"/>
      <point x="23.64" y="277.23999999999995"/>
      <point x="67.16" y="227.52000000000004"/>
      <point x="153.68" y="207.68000000000004" type="curve" smooth="yes"/>
      <point x="228.12" y="190.71999999999997"/>
      <point x="287.80000000000007" y="189.56000000000003"/>
      <point x="287.80000000000007" y="161.11999999999998" type="curve" smooth="yes"/>
      <point x="287.80000000000007" y="142.88"/>
      <point x="269.32000000000005" y="131.96"/>
      <point x="229.39999999999995" y="131.96" type="curve" smooth="yes"/>
      <point x="175.28" y="131.96"/>
      <point x="89.47999999999999" y="143.96"/>
      <point x="39.16" y="160.24" type="curve"/>
    </contour>
  </outline>
</glyph>
<glyph name="t" format="2">
  <advance width="423.212"/>
  <unicode hex="0074"/>
  <anchor x="205.35599999999997" y="275.0" name="center"/>
  <anchor x="186.488" y="659.324" name="top"/>
  <anchor x="322.724" y="773.18" name="topright"/>
  <anchor x="235.78400000000002" y="0.0" name="bottom"/>
  <outline>
    <contour>
      <point x="250.65599999999995" y="-10.0" type="curve" smooth="yes"/>
      <point x="303.096" y="-10.0"/>
      <point x="357.396" y="-3.083999999999999"/>
      <point x="416.272" y="16.792" type="curve"/>
      <point x="390.488" y="165.74" type="line"/>
      <point x="361.508" y="159.56"/>
      <point x="340.16" y="155.60000000000002"/>
      <point x="321.056" y="155.60000000000002" type="curve" smooth="yes"/>
      <point x="288.896" y="155.60000000000002"/>
      <point x="273.18" y="169.488"/>
      <point x="273.18" y="215.984" type="curve" smooth="yes"/>
      <point x="273.18" y="405.50800000000004" type="line"/>
      <point x="393.072" y="405.50800000000004" type="line"/>
      <point x="393.072" y="547.2" type="line"/>
      <point x="273.18" y="547.2" type="line"/>
      <point x="273.18" y="659.324" type="line"/>
      <point x="99.71199999999999" y="659.324" type="line"/>
      <point x="76.88" y="547.2" type="line"/>
      <point x="5.299999999999999" y="536.44" type="line"/>
      <point x="5.299999999999999" y="406.024" type="line"/>
      <point x="76.88" y="406.024" type="line"/>
      <point x="76.88" y="199.816" type="line" smooth="yes"/>
      <point x="76.88" y="50.284000000000006"/>
      <point x="139.01999999999998" y="-10.0"/>
    </contour>
  </outline>
</glyph>
<glyph name="u" format="2">
  <advance width="609.848"/>
  <unicode hex="0075"/>
  <anchor x="608.032" y="20.328" name="ogonek"/>
  <anchor x="299.428" y="547.2" name="top"/>
  <anchor x="552.008" y="547.2" name="topright"/>
  <anchor x="305.568" y="0.0" name="bottom"/>
  <outline>
    <contour>
      <point x="204.808" y="-10.0" type="curve" smooth="yes"/>
      <point x="270.644" y="-10.0"/>
      <point x="323.57599999999996" y="9.928"/>
      <point x="379.29200000000003" y="44.471999999999994" type="curve"/>
      <point x="402.58000000000004" y="10.236"/>
      <point x="434.68000000000006" y="-10.0"/>
      <point x="489.45599999999996" y="-10.0" type="curve" smooth="yes"/>
      <point x="537.232" y="-10.0"/>
      <point x="581.136" y="3.752"/>
      <point x="608.032" y="20.328" type="curve"/>
      <point x="593.176" y="160.768" type="line"/>
      <point x="587.076" y="158.176"/>
      <point x="580.0880000000001" y="156.98"/>
      <point x="573.5" y="156.98" type="curve" smooth="yes"/>
      <point x="560.8280000000001" y="156.98"/>
      <point x="552.008" y="164.78"/>
      <point x="552.008" y="190.036" type="curve" smooth="yes"/>
      <point x="552.008" y="547.2" type="line"/>
      <point x="355.708" y="547.2" type="line"/>
      <point x="355.708" y="171.83199999999997" type="line"/>
      <point x="328.624" y="158.96"/>
      <point x="309.404" y="153.10800000000003"/>
      <point x="285.892" y="153.10800000000003" type="curve" smooth="yes"/>
      <point x="255.428" y="153.10800000000003"/>
      <point x="234.804" y="169.216"/>
      <point x="234.804" y="209.77999999999997" type="curve" smooth="yes"/>
      <point x="234.804" y="547.2" type="line"/>
      <point x="37.988" y="547.2" type="line"/>
      <point x="37.988" y="161.96400000000003" type="line" smooth="yes"/>
      <point x="37.988" y="43.800000000000004"/>
      <point x="105.78800000000001" y="-10.0"/>
    </contour>
  </outline>
</glyph>
<glyph name="v" format="2">
  <advance width="615.252"/>
  <unicode hex="0076"/>
  <outline>
    <contour>
      <point x="193.47200000000004" y="0.0" type="line"/>
      <point x="419.144" y="0.0" type="line"/>
      <point x="609.9079999999999" y="546.6959999999999" type="line"/>
      <point x="402.65199999999993" y="547.7040000000001" type="line"/>
      <point x="313.244" y="164.33599999999998" type="line"/>
      <point x="214.32" y="547.7040000000001" type="line"/>
      <point x="4.484000000000001" y="546.6959999999999" type="line"/>
    </contour>
  </outline>
</glyph>
<glyph name="w" format="2">
  <advance width="829.928"/>
  <unicode hex="0077"/>
  <anchor x="414.63599999999997" y="547.2" name="top"/>
  <anchor x="414.63599999999997" y="0.0" name="bottom"/>
  <outline>
    <contour>
      <point x="122.49599999999998" y="0.0" type="line"/>
      <point x="355.73199999999997" y="0.0" type="line"/>
      <point x="411.884" y="335.384" type="line"/>
      <point x="472.992" y="0.0" type="line"/>
      <point x="700.208" y="0.0" type="line"/>
      <point x="821.572" y="546.468" type="line"/>
      <point x="628.336" y="547.964" type="line"/>
      <point x="582.268" y="169.86" type="line"/>
      <point x="519.064" y="547.2" type="line"/>
      <point x="309.86400000000003" y="547.2" type="line"/>
      <point x="247.94" y="169.892" type="line"/>
      <point x="205.548" y="547.964" type="line"/>
      <point x="7.356" y="546.468" type="line"/>
    </contour>
  </outline>
</glyph>
<glyph name="x" format="2">
  <advance width="608.304"/>
  <unicode hex="0078"/>
  <outline>
    <contour>
      <point x="2.824" y="0.2879999999999995" type="line"/>
      <point x="239.416" y="-0.9760000000000005" type="line"/>
      <point x="308.4" y="176.616" type="line"/>
      <point x="377.81600000000003" y="-0.9760000000000005" type="line"/>
      <point x="606.6320000000001" y="0.2879999999999995" type="line"/>
      <point x="438.872" y="281.192" type="line"/>
      <point x="597.648" y="546.9279999999999" type="line"/>
      <point x="376.67199999999997" y="548.4720000000001" type="line"/>
      <point x="309.07199999999995" y="371.25600000000003" type="line"/>
      <point x="244.63199999999998" y="548.04" type="line"/>
      <point x="16.68" y="546.64" type="line"/>
      <point x="174.01600000000002" y="276.896" type="line"/>
    </contour>
  </outline>
</glyph>
<glyph name="y" format="2">
  <advance width="620.244"/>
  <unicode hex="0079"/>
  <anchor x="293.324" y="547.1999999999999" name="top"/>
  <anchor x="515.196" y="0.0" name="bottom"/>
  <outline>
    <contour>
      <point x="158.912" y="-209.608" type="line"/>
      <point x="367.928" y="-210.67200000000003" type="line"/>
      <point x="615.6759999999999" y="547.032" type="line"/>
      <point x="408.9240000000001" y="547.928" type="line"/>
      <point x="315.288" y="156.22400000000002" type="line"/>
      <point x="220.816" y="547.9280000000001" type="line"/>
      <point x="4.567999999999999" y="546.9200000000001" type="line"/>
      <point x="204.1" y="0.0" type="line"/>
      <point x="225.91199999999998" y="0.0" type="line"/>
    </contour>
  </outline>
</glyph>
<glyph name="z" format="2">
  <advance width="540.048"/>
  <unicode hex="007A"/>
  <anchor x="272.44" y="547.2" name="top"/>
  <outline>
    <contour>
      <point x="23.984000000000005" y="0.0" type="line"/>
      <point x="516.1759999999999" y="0.0" type="line"/>
      <point x="516.1759999999999" y="151.14400000000003" type="line"/>
      <point x="266.848" y="151.14400000000003" type="line"/>
      <point x="502.624" y="414.68" type="line"/>
      <point x="502.624" y="547.2" type="line"/>
      <point x="36.87200000000001" y="547.2" type="line"/>
      <point x="36.87200000000001" y="397.2" type="line"/>
      <point x="263.76" y="397.2" type="line"/>
      <point x="23.984000000000005" y="134.096" type="line"/>
    </contour>
  </outline>
</glyph>
<glyph name="braceleft" format="2">
  <advance width="337.716"/>
  <unicode hex="007B"/>
  <outline>
    <contour>
      <point x="52.08400000000001" y="-38.891999999999996" type="curve" smooth="yes"/>
      <point x="52.08400000000001" y="-160.74399999999997"/>
      <point x="127.27600000000001" y="-210.51600000000002"/>
      <point x="217.86" y="-210.51600000000002" type="curve" smooth="yes"/>
      <point x="314.944" y="-210.51600000000002" type="line"/>
      <point x="314.944" y="-76.996" type="line"/>
      <point x="269.46" y="-76.996" type="line" smooth="yes"/>
      <point x="233.58" y="-76.996"/>
      <point x="218.972" y="-52.704"/>
      <point x="218.972" y="-15.671999999999997" type="curve" smooth="yes"/>
      <point x="218.972" y="32.592"/>
      <point x="249.736" y="79.896"/>
      <point x="249.736" y="136.264" type="curve" smooth="yes"/>
      <point x="249.736" y="182.668"/>
      <point x="236.40800000000002" y="230.588"/>
      <point x="176.048" y="265.0" type="curve"/>
      <point x="236.352" y="299.19599999999997"/>
      <point x="249.736" y="346.70400000000006"/>
      <point x="249.736" y="393.108" type="curve" smooth="yes"/>
      <point x="249.736" y="449.112"/>
      <point x="218.972" y="496.13599999999997"/>
      <point x="218.972" y="545.0440000000001" type="curve" smooth="yes"/>
      <point x="218.972" y="582.0759999999999"/>
      <point x="233.58" y="606.4799999999999"/>
      <point x="269.46" y="606.4799999999999" type="curve" smooth="yes"/>
      <point x="314.944" y="606.4799999999999" type="line"/>
      <point x="314.944" y="740.0" type="line"/>
      <point x="217.86" y="740.0" type="line" smooth="yes"/>
      <point x="127.27600000000001" y="740.0"/>
      <point x="52.08400000000001" y="690.116"/>
      <point x="52.08400000000001" y="568.264" type="curve" smooth="yes"/>
      <point x="52.08400000000001" y="480.9"/>
      <point x="88.868" y="434.296"/>
      <point x="88.868" y="387.088" type="curve" smooth="yes"/>
      <point x="88.868" y="353.94"/>
      <point x="80.536" y="333.48"/>
      <point x="49.724000000000004" y="333.48" type="curve" smooth="yes"/>
      <point x="32.336" y="333.48" type="line"/>
      <point x="32.336" y="196.004" type="line"/>
      <point x="49.724000000000004" y="196.004" type="line" smooth="yes"/>
      <point x="80.536" y="196.004"/>
      <point x="88.868" y="175.51600000000002"/>
      <point x="88.868" y="142.284" type="curve" smooth="yes"/>
      <point x="88.868" y="94.93599999999999"/>
      <point x="52.08400000000001" y="47.772"/>
    </contour>
  </outline>
</glyph>
<glyph name="bar" format="2">
  <advance width="237.656"/>
  <unicode hex="007C"/>
  <outline>
    <contour>
      <point x="198.488" y="790.516" type="line"/>
      <point x="39.168000000000006" y="790.516" type="line"/>
      <point x="39.168000000000006" y="-210.0" type="line"/>
      <point x="198.488" y="-210.0" type="line"/>
    </contour>
  </outline>
</glyph>
<glyph name="braceright" format="2">
  <advance width="337.716"/>
  <unicode hex="007D"/>
  <outline>
    <contour>
      <point x="22.772000000000002" y="-76.996" type="line"/>
      <point x="22.772000000000002" y="-210.51600000000002" type="line"/>
      <point x="119.94" y="-210.51600000000002" type="line" smooth="yes"/>
      <point x="210.524" y="-210.51600000000002"/>
      <point x="285.716" y="-160.74399999999997"/>
      <point x="285.716" y="-38.891999999999996" type="curve" smooth="yes"/>
      <point x="285.716" y="47.772"/>
      <point x="248.932" y="94.93599999999999"/>
      <point x="248.932" y="142.284" type="curve" smooth="yes"/>
      <point x="248.932" y="175.51600000000002"/>
      <point x="257.264" y="196.004"/>
      <point x="288.076" y="196.004" type="curve" smooth="yes"/>
      <point x="305.38" y="196.004" type="line"/>
      <point x="305.38" y="333.48" type="line"/>
      <point x="288.076" y="333.48" type="line" smooth="yes"/>
      <point x="257.18" y="333.48"/>
      <point x="248.932" y="353.94"/>
      <point x="248.932" y="387.088" type="curve" smooth="yes"/>
      <point x="248.932" y="434.296"/>
      <point x="285.716" y="480.9"/>
      <point x="285.716" y="568.264" type="curve" smooth="yes"/>
      <point x="285.716" y="690.116"/>
      <point x="210.524" y="740.0"/>
      <point x="119.94" y="740.0" type="curve" smooth="yes"/>
      <point x="22.772000000000002" y="740.0" type="line"/>
      <point x="22.772000000000002" y="606.4799999999999" type="line"/>
      <point x="59.568000000000005" y="606.4799999999999" type="line" smooth="yes"/>
      <point x="95.364" y="606.4799999999999"/>
      <point x="110.056" y="582.0759999999999"/>
      <point x="110.056" y="545.0440000000001" type="curve" smooth="yes"/>
      <point x="110.056" y="496.13599999999997"/>
      <point x="79.292" y="449.112"/>
      <point x="79.292" y="393.108" type="curve" smooth="yes"/>
      <point x="79.292" y="346.70400000000006"/>
      <point x="92.59199999999998" y="299.19599999999997"/>
      <point x="152.98000000000002" y="265.0" type="curve"/>
      <point x="92.536" y="230.588"/>
      <point x="79.292" y="182.668"/>
      <point x="79.292" y="136.264" type="curve" smooth="yes"/>
      <point x="79.292" y="79.896"/>
      <point x="110.056" y="32.592"/>
      <point x="110.056" y="-15.671999999999997" type="curve" smooth="yes"/>
      <point x="110.056" y="-52.704"/>
      <point x="95.364" y="-76.996"/>
      <point x="59.568000000000005" y="-76.996" type="curve" smooth="yes"/>
    </contour>
  </outline>
</glyph>
<glyph name="asciitilde" format="2">
  <advance width="548.168"/>
  <unicode hex="007E"/>
  <outline>
    <contour>
      <point x="491.96000000000004" y="232.856" type="curve"/>
      <point x="491.96000000000004" y="387.66" type="line"/>
      <point x="464.65200000000004" y="361.99600000000004"/>
      <point x="433.096" y="350.96000000000004"/>
      <point x="394.752" y="350.96000000000004" type="curve" smooth="yes"/>
      <point x="292.956" y="350.96000000000004"/>
      <point x="244.67200000000003" y="428.756"/>
      <point x="159.036" y="428.756" type="curve" smooth="yes"/>
      <point x="101.796" y="428.756"/>
      <point x="66.348" y="401.828"/>
      <point x="56.636" y="392.81199999999995" type="curve"/>
      <point x="56.636" y="237.95200000000003" type="line"/>
      <point x="75.636" y="252.668"/>
      <point x="107.47599999999998" y="273.21999999999997"/>
      <point x="155.28000000000003" y="273.21999999999997" type="curve" smooth="yes"/>
      <point x="243.328" y="273.21999999999997"/>
      <point x="295.82399999999996" y="195.08"/>
      <point x="395.124" y="195.08" type="curve" smooth="yes"/>
      <point x="432.40000000000003" y="195.08"/>
      <point x="466.652" y="208.87599999999998"/>
    </contour>
  </outline>
</glyph>
<glyph name="exclamdown" format="2">
  <advance width="265.752"/>
  <unicode hex="00A1"/>
  <outline>
    <contour>
      <point x="218.38400000000001" y="287.156" type="line"/>
      <point x="50.80800000000001" y="287.156" type="line"/>
      <point x="35.672000000000004" y="-193.144" type="line"/>
      <point x="231.972" y="-193.144" type="line"/>
    </contour>
    <contour>
      <point x="239.06400000000002" y="453.832" type="curve" smooth="yes"/>
      <point x="239.06400000000002" y="522.12"/>
      <point x="209.08" y="555.8"/>
      <point x="132.876" y="555.8" type="curve" smooth="yes"/>
      <point x="56.812" y="555.8"/>
      <point x="26.688" y="522.12"/>
      <point x="26.688" y="453.832" type="curve" smooth="yes"/>
      <point x="26.688" y="384.684"/>
      <point x="56.672" y="351.004"/>
      <point x="132.876" y="351.004" type="curve" smooth="yes"/>
      <point x="209.08" y="351.004"/>
      <point x="239.06400000000002" y="384.684"/>
    </contour>
  </outline>
</glyph>
<glyph name="cent" format="2">
  <advance width="656.824"/>
  <unicode hex="00A2"/>
  <outline>
    <contour>
      <point x="351.908" y="-10.516" type="curve" smooth="yes"/>
      <point x="426.068" y="-10.516"/>
      <point x="503.916" y="-0.22000000000000064"/>
      <point x="564.428" y="18.060000000000002" type="curve"/>
      <point x="534.8000000000001" y="173.0" type="line"/>
      <point x="483.5999999999999" y="162.428"/>
      <point x="442.52799999999996" y="157.836"/>
      <point x="400.92400000000004" y="157.836" type="curve" smooth="yes"/>
      <point x="329.852" y="157.836"/>
      <point x="289.812" y="193.2"/>
      <point x="289.812" y="269.312" type="curve" smooth="yes"/>
      <point x="289.812" y="351.736"/>
      <point x="325.692" y="387.12800000000004"/>
      <point x="395.40000000000003" y="387.12800000000004" type="curve" smooth="yes"/>
      <point x="440.56399999999996" y="387.12800000000004"/>
      <point x="482.87999999999994" y="381.64000000000004"/>
      <point x="527.3199999999999" y="372.42400000000004" type="curve"/>
      <point x="553.9359999999999" y="535.448" type="line"/>
      <point x="502.0880000000001" y="547.644"/>
      <point x="443.28800000000007" y="558.232"/>
      <point x="364.61199999999997" y="558.232" type="curve" smooth="yes"/>
      <point x="161.656" y="558.232"/>
      <point x="91.276" y="425.32000000000005"/>
      <point x="91.276" y="264.152" type="curve" smooth="yes"/>
      <point x="91.276" y="83.592"/>
      <point x="180.408" y="-10.516"/>
    </contour>
    <contour>
      <point x="265.92800000000005" y="-105.516" type="line"/>
      <point x="420.94800000000004" y="-105.516" type="line"/>
      <point x="420.94800000000004" y="9.332" type="line"/>
      <point x="265.92800000000005" y="16.236" type="line"/>
    </contour>
    <contour>
      <point x="265.92800000000005" y="528.0720000000001" type="line"/>
      <point x="420.94800000000004" y="539.816" type="line"/>
      <point x="420.94800000000004" y="651.6840000000001" type="line"/>
      <point x="265.92800000000005" y="651.6840000000001" type="line"/>
    </contour>
  </outline>
</glyph>
<glyph name="sterling" format="2">
  <advance width="657.16"/>
  <unicode hex="00A3"/>
  <outline>
    <contour>
      <point x="79.88000000000001" y="0.0" type="line"/>
      <point x="584.7840000000001" y="0.0" type="line"/>
      <point x="584.7840000000001" y="154.44000000000003" type="line"/>
      <point x="303.24" y="154.44000000000003" type="line"/>
      <point x="338.824" y="183.55200000000002"/>
      <point x="368.81600000000003" y="222.22400000000002"/>
      <point x="368.81600000000003" y="272.832" type="curve" smooth="yes"/>
      <point x="368.81600000000003" y="338.984"/>
      <point x="315.32" y="402.58400000000006"/>
      <point x="315.32" y="458.6799999999999" type="curve" smooth="yes"/>
      <point x="315.32" y="519.624"/>
      <point x="360.36" y="540.8"/>
      <point x="411.71999999999997" y="540.8" type="curve" smooth="yes"/>
      <point x="465.608" y="540.8"/>
      <point x="513.376" y="533.8080000000001"/>
      <point x="554.3520000000001" y="521.52" type="curve"/>
      <point x="581.136" y="673.2479999999999" type="line"/>
      <point x="521.784" y="697.2800000000001"/>
      <point x="459.288" y="710.0"/>
      <point x="381.47999999999996" y="710.0" type="curve" smooth="yes"/>
      <point x="204.776" y="710.0"/>
      <point x="112.584" y="634.432"/>
      <point x="112.584" y="517.152" type="curve" smooth="yes"/>
      <point x="112.584" y="409.07199999999995"/>
      <point x="181.56000000000003" y="352.472"/>
      <point x="181.56000000000003" y="262.656" type="curve" smooth="yes"/>
      <point x="181.56000000000003" y="212.60799999999998"/>
      <point x="152.856" y="171.472"/>
      <point x="79.88000000000001" y="121.75999999999999" type="curve"/>
    </contour>
    <contour>
      <point x="73.90400000000001" y="301.088" type="line"/>
      <point x="514.016" y="301.088" type="line"/>
      <point x="514.016" y="396.728" type="line"/>
      <point x="73.90400000000001" y="396.728" type="line"/>
    </contour>
  </outline>
</glyph>
<glyph name="currency" format="2">
  <advance width="490.34000000000003"/>
  <unicode hex="00A4"/>
  <outline>
    <contour>
      <point x="38.452" y="406.96799999999996" type="line"/>
      <point x="91.468" y="352.952" type="line"/>
      <point x="85.368" y="337.176"/>
      <point x="81.79599999999999" y="320.076"/>
      <point x="81.79599999999999" y="301.728" type="curve" smooth="yes"/>
      <point x="81.79599999999999" y="282.52000000000004"/>
      <point x="85.368" y="264.04400000000004"/>
      <point x="92.468" y="247.752" type="curve"/>
      <point x="38.452" y="193.73600000000002" type="line"/>
      <point x="138.624" y="93.564" type="line"/>
      <point x="203.132" y="157.72799999999998" type="line"/>
      <point x="215.46800000000002" y="153.208"/>
      <point x="230.16" y="151.66799999999998"/>
      <point x="245.61599999999999" y="151.66799999999998" type="curve" smooth="yes"/>
      <point x="260.728" y="151.66799999999998"/>
      <point x="274.356" y="153.55200000000002"/>
      <point x="286.86400000000003" y="157.556" type="curve"/>
      <point x="351.716" y="93.564" type="line"/>
      <point x="451.888" y="193.73600000000002" type="line"/>
      <point x="398.216" y="246.892" type="line"/>
      <point x="405.144" y="263.87199999999996"/>
      <point x="409.23199999999997" y="282.176"/>
      <point x="409.23199999999997" y="301.728" type="curve" smooth="yes"/>
      <point x="409.23199999999997" y="319.904"/>
      <point x="405.488" y="337.34799999999996"/>
      <point x="398.732" y="353.812" type="curve"/>
      <point x="451.888" y="406.96799999999996" type="line"/>
      <point x="351.716" y="507.14" type="line"/>
      <point x="288.928" y="444.352" type="line"/>
      <point x="275.904" y="448.70000000000005"/>
      <point x="261.384" y="451.24"/>
      <point x="245.61599999999999" y="451.24" type="curve" smooth="yes"/>
      <point x="228.988" y="451.24"/>
      <point x="214.296" y="448.184"/>
      <point x="200.928" y="444.18" type="curve"/>
      <point x="138.624" y="507.14" type="line"/>
    </contour>
    <contour>
      <point x="245.272" y="258.52799999999996" type="curve" smooth="yes"/>
      <point x="219.908" y="258.52799999999996"/>
      <point x="202.588" y="275.504"/>
      <point x="202.588" y="301.212" type="curve" smooth="yes"/>
      <point x="202.588" y="324.996"/>
      <point x="219.564" y="343.864"/>
      <point x="245.272" y="343.864" type="curve" smooth="yes"/>
      <point x="271.12" y="343.864"/>
      <point x="288.44" y="324.996"/>
      <point x="288.44" y="301.212" type="curve" smooth="yes"/>
      <point x="288.44" y="275.504"/>
      <point x="270.776" y="258.52799999999996"/>
    </contour>
  </outline>
</glyph>
<glyph name="yen" format="2">
  <advance width="701.8000000000001"/>
  <unicode hex="00A5"/>
  <outline>
    <contour>
      <point x="73.92" y="294.24" type="line"/>
      <point x="271.76" y="294.24" type="line"/>
      <point x="271.76" y="252.8" type="line"/>
      <point x="73.92" y="252.8" type="line"/>
      <point x="73.92" y="167.68" type="line"/>
      <point x="271.76" y="167.68" type="line"/>
      <point x="271.76" y="0.0" type="line"/>
      <point x="433.88" y="0.0" type="line"/>
      <point x="433.88" y="167.68" type="line"/>
      <point x="632.28" y="167.68" type="line"/>
      <point x="632.28" y="252.8" type="line"/>
      <point x="433.88" y="252.8" type="line"/>
      <point x="433.88" y="294.24" type="line"/>
      <point x="632.28" y="294.24" type="line"/>
      <point x="632.28" y="379.36" type="line"/>
      <point x="433.88" y="379.36" type="line"/>
      <point x="680.72" y="697.9999999999999" type="line"/>
      <point x="504.68" y="702.2800000000001" type="line"/>
      <point x="353.03999999999996" y="476.08" type="line"/>
      <point x="197.4" y="702.2800000000001" type="line"/>
      <point x="21.36" y="697.9999999999999" type="line"/>
      <point x="271.76" y="379.36" type="line"/>
      <point x="73.92" y="379.36" type="line"/>
    </contour>
  </outline>
</glyph>
<glyph name="section" format="2">
  <advance width="595.464"/>
  <unicode hex="00A7"/>
  <outline>
    <contour>
      <point x="238.776" y="-220.71200000000002" type="curve" smooth="yes"/>
      <point x="426.704" y="-220.71200000000002"/>
      <point x="547.008" y="-101.83200000000001"/>
      <point x="547.008" y="75.24000000000001" type="curve" smooth="yes"/>
      <point x="547.008" y="155.64000000000001"/>
      <point x="523.1519999999999" y="241.07999999999998"/>
      <point x="458.21599999999995" y="352.8159999999999" type="curve" smooth="yes"/>
      <point x="409.696" y="445.19999999999993"/>
      <point x="390.536" y="484.07200000000006"/>
      <point x="390.536" y="513.7439999999999" type="curve" smooth="yes"/>
      <point x="390.536" y="546.088"/>
      <point x="410.928" y="566.3279999999999"/>
      <point x="445.432" y="566.3279999999999" type="curve" smooth="yes"/>
      <point x="459.128" y="566.3279999999999"/>
      <point x="472.52000000000004" y="564.0479999999999"/>
      <point x="489.61600000000004" y="556.776" type="curve"/>
      <point x="520.408" y="724.4159999999999" type="line"/>
      <point x="474.528" y="741.424"/>
      <point x="420.75999999999993" y="749.9999999999999"/>
      <point x="368.864" y="749.9999999999999" type="curve" smooth="yes"/>
      <point x="162.79999999999998" y="749.9999999999999"/>
      <point x="46.864000000000004" y="641.984"/>
      <point x="50.44799999999999" y="467.24" type="curve" smooth="yes"/>
      <point x="52.024" y="385.15200000000004"/>
      <point x="70.288" y="312.64799999999997"/>
      <point x="141.256" y="178.32" type="curve" smooth="yes"/>
      <point x="188.384" y="85.856"/>
      <point x="210.808" y="48.464000000000006"/>
      <point x="210.808" y="11.384000000000004" type="curve" smooth="yes"/>
      <point x="210.80800000000002" y="-20.976000000000006"/>
      <point x="187.69600000000003" y="-38.776"/>
      <point x="149.736" y="-38.776" type="curve" smooth="yes"/>
      <point x="126.496" y="-38.776"/>
      <point x="105.65599999999999" y="-32.80000000000002"/>
      <point x="80.304" y="-18.304000000000006" type="curve"/>
      <point x="47.088" y="-181.072" type="line"/>
      <point x="103.47200000000002" y="-206.864"/>
      <point x="167.376" y="-220.71200000000002"/>
    </contour>
    <contour>
      <point x="242.248" y="-113.576" type="curve" smooth="yes"/>
      <point x="218.552" y="-113.576"/>
      <point x="194.24800000000002" y="-109.144"/>
      <point x="171.79999999999995" y="-97.552" type="curve"/>
      <point x="209.296" y="-123.88799999999999" type="line"/>
      <point x="294.52799999999996" y="-125.312"/>
      <point x="356.808" y="-68.99999999999999"/>
      <point x="356.808" y="13.399999999999984" type="curve" smooth="yes"/>
      <point x="356.808" y="67.99999999999999"/>
      <point x="335.92799999999994" y="129.6"/>
      <point x="277.9440000000001" y="241.79999999999998" type="curve" smooth="yes"/>
      <point x="219.744" y="355.432"/>
      <point x="197.752" y="417.072"/>
      <point x="197.752" y="485.2" type="curve" smooth="yes"/>
      <point x="197.752" y="567.984"/>
      <point x="247.30400000000003" y="621.8480000000001"/>
      <point x="313.216" y="621.8480000000001" type="curve" smooth="yes"/>
      <point x="338.552" y="621.8480000000001"/>
      <point x="354.448" y="617.3999999999999"/>
      <point x="374.59999999999997" y="604.7679999999999" type="curve"/>
      <point x="347.112" y="638.168" type="line"/>
      <point x="294.04799999999994" y="634.016"/>
      <point x="246.688" y="583.6400000000001"/>
      <point x="246.408" y="520.472" type="curve" smooth="yes"/>
      <point x="246.408" y="464.8879999999999"/>
      <point x="262.84000000000003" y="414.43199999999996"/>
      <point x="319.67199999999997" y="301.09600000000006" type="curve" smooth="yes"/>
      <point x="387.20000000000005" y="167.26399999999998"/>
      <point x="406.32000000000005" y="110.616"/>
      <point x="406.32000000000005" y="53.192" type="curve" smooth="yes"/>
      <point x="406.32000000000005" y="-34.391999999999996"/>
      <point x="354.776" y="-113.576"/>
    </contour>
  </outline>
</glyph>
<glyph name="copyright" format="2">
  <advance width="772.5279999999999"/>
  <unicode hex="00A9"/>
  <outline>
    <contour>
      <point x="386.32" y="52.83200000000001" type="curve" smooth="yes"/>
      <point x="203.66" y="52.83200000000001"/>
      <point x="109.87599999999999" y="167.65599999999998"/>
      <point x="109.87599999999999" y="349.82800000000003" type="curve" smooth="yes"/>
      <point x="109.87599999999999" y="532.7719999999999"/>
      <point x="204.06" y="645.7359999999999"/>
      <point x="386.32" y="645.7359999999999" type="curve" smooth="yes"/>
      <point x="570.016" y="645.7359999999999"/>
      <point x="662.136" y="532.7719999999999"/>
      <point x="662.136" y="349.82800000000003" type="curve" smooth="yes"/>
      <point x="662.136" y="167.65599999999998"/>
      <point x="570.4159999999999" y="52.83200000000001"/>
    </contour>
    <contour>
      <point x="386.32" y="710.0" type="curve" smooth="yes"/>
      <point x="165.536" y="710.0"/>
      <point x="40.4" y="563.608"/>
      <point x="40.4" y="349.82800000000003" type="curve" smooth="yes"/>
      <point x="40.4" y="137.22399999999996"/>
      <point x="164.56" y="-10.0"/>
      <point x="386.32" y="-10.0" type="curve" smooth="yes"/>
      <point x="607.968" y="-10.0"/>
      <point x="732.1279999999999" y="137.22399999999996"/>
      <point x="732.1279999999999" y="349.82800000000003" type="curve" smooth="yes"/>
      <point x="732.1279999999999" y="563.608"/>
      <point x="607.1039999999999" y="710.0"/>
    </contour>
    <contour>
      <point x="220.29600000000002" y="348.384" type="curve" smooth="yes"/>
      <point x="220.29600000000002" y="203.3"/>
      <point x="288.94399999999996" y="142.736"/>
      <point x="390.97200000000004" y="142.736" type="curve" smooth="yes"/>
      <point x="438.06399999999996" y="142.736"/>
      <point x="484.98800000000006" y="151.01999999999998"/>
      <point x="523.2599999999999" y="168.996" type="curve"/>
      <point x="505.85600000000005" y="265.552" type="line"/>
      <point x="478.264" y="257.144"/>
      <point x="444.884" y="249.916"/>
      <point x="411.592" y="249.916" type="curve" smooth="yes"/>
      <point x="363.864" y="249.916"/>
      <point x="345.25199999999995" y="273.91200000000003"/>
      <point x="345.25199999999995" y="346.65999999999997" type="curve" smooth="yes"/>
      <point x="345.25199999999995" y="430.248"/>
      <point x="366.9839999999999" y="456.088"/>
      <point x="416.6600000000001" y="456.088" type="curve" smooth="yes"/>
      <point x="442.7120000000001" y="456.088"/>
      <point x="478.7440000000001" y="448.704"/>
      <point x="502.1359999999999" y="442.164" type="curve"/>
      <point x="522.464" y="538.544" type="line"/>
      <point x="488.676" y="555.9119999999999"/>
      <point x="441.21999999999997" y="563.956"/>
      <point x="396.948" y="563.956" type="curve" smooth="yes"/>
      <point x="294.472" y="563.956"/>
      <point x="220.29600000000002" y="507.79200000000003"/>
    </contour>
  </outline>
</glyph>
<glyph name="ordfeminine" format="2">
  <advance width="415.076"/>
  <unicode hex="00AA"/>
  <outline>
    <contour>
      <point x="41.676" y="213.628" type="line"/>
      <point x="388.248" y="213.628" type="line"/>
      <point x="388.248" y="313.388" type="line"/>
      <point x="41.676" y="313.388" type="line"/>
    </contour>
    <component base="a.superior" xOffset="8.728000000000002"/>
  </outline>
</glyph>
<glyph name="logicalnot" format="2">
  <advance width="548.168"/>
  <unicode hex="00AC"/>
  <outline>
    <contour>
      <point x="49.452" y="298.51599999999996" type="line"/>
      <point x="342.92" y="298.51599999999996" type="line"/>
      <point x="342.92" y="169.432" type="line"/>
      <point x="498.8" y="169.432" type="line"/>
      <point x="498.8" y="454.396" type="line"/>
      <point x="49.452" y="454.396" type="line"/>
    </contour>
  </outline>
</glyph>
<glyph name="registered" format="2">
  <advance width="739.728"/>
  <unicode hex="00AE"/>
  <outline>
    <contour>
      <point x="365.00800000000004" y="207.14" type="curve" smooth="yes"/>
      <point x="580.9399999999998" y="207.14"/>
      <point x="699.3280000000001" y="345.264"/>
      <point x="699.3280000000001" y="550.0559999999999" type="curve" smooth="yes"/>
      <point x="699.3280000000001" y="753.0999999999999"/>
      <point x="580.9959999999999" y="892.9720000000001"/>
      <point x="365.00800000000004" y="892.9720000000001" type="curve" smooth="yes"/>
      <point x="155.32000000000002" y="892.9720000000001"/>
      <point x="40.4" y="753.0999999999999"/>
      <point x="40.4" y="550.0559999999999" type="curve" smooth="yes"/>
      <point x="40.4" y="348.012"/>
      <point x="154.404" y="207.14"/>
    </contour>
    <contour>
      <point x="365.00800000000004" y="266.68" type="curve" smooth="yes"/>
      <point x="192.044" y="266.68"/>
      <point x="106.268" y="377.38800000000003"/>
      <point x="106.268" y="550.0559999999999" type="curve" smooth="yes"/>
      <point x="106.268" y="723.668"/>
      <point x="191.98800000000003" y="831.6"/>
      <point x="365.00800000000004" y="831.6" type="curve" smooth="yes"/>
      <point x="545.88" y="831.6"/>
      <point x="632.684" y="723.7239999999999"/>
      <point x="632.684" y="550.0559999999999" type="curve" smooth="yes"/>
      <point x="632.684" y="376.472"/>
      <point x="545.0199999999999" y="266.68"/>
    </contour>
    <contour>
      <point x="525.8920000000002" y="363.17999999999995" type="curve" smooth="yes"/>
      <point x="530.556" y="363.17999999999995"/>
      <point x="536.0239999999999" y="363.17999999999995"/>
      <point x="539.996" y="363.264" type="curve"/>
      <point x="539.744" y="470.25200000000007" type="line"/>
      <point x="538.66" y="470.168"/>
      <point x="536.688" y="470.168"/>
      <point x="534.6880000000001" y="470.168" type="curve" smooth="yes"/>
      <point x="508.27599999999995" y="470.972"/>
      <point x="484.15600000000006" y="492.848"/>
      <point x="465.04800000000006" y="517.1919999999999" type="curve"/>
      <point x="508.6359999999999" y="529.136"/>
      <point x="534.852" y="568.5679999999999"/>
      <point x="534.852" y="628.3919999999999" type="curve" smooth="yes"/>
      <point x="534.852" y="710.62"/>
      <point x="486.1480000000001" y="748.38"/>
      <point x="373.284" y="748.38" type="curve" smooth="yes"/>
      <point x="334.41200000000003" y="748.38"/>
      <point x="284.68799999999993" y="746.4359999999998"/>
      <point x="221.07600000000005" y="742.548" type="curve"/>
      <point x="221.07600000000005" y="367.704" type="line"/>
      <point x="330.652" y="367.704" type="line"/>
      <point x="330.652" y="483.44800000000004" type="line"/>
      <point x="336.976" y="483.36400000000003"/>
      <point x="342.684" y="483.168"/>
      <point x="348.644" y="483.168" type="curve" smooth="yes"/>
      <point x="353.728" y="483.168"/>
      <point x="357.148" y="483.168"/>
      <point x="361.37199999999996" y="483.25200000000007" type="curve"/>
      <point x="411.764" y="385.19599999999997"/>
      <point x="466.80400000000003" y="364.03999999999996"/>
    </contour>
    <contour>
      <point x="361.99199999999996" y="553.364" type="curve" smooth="yes"/>
      <point x="353.36799999999994" y="553.364"/>
      <point x="345.91200000000003" y="553.4200000000001"/>
      <point x="330.652" y="554.364" type="curve"/>
      <point x="330.652" y="657.7040000000001" type="line"/>
      <point x="352.604" y="659.76"/>
      <point x="359.05199999999996" y="659.8439999999999"/>
      <point x="374.50800000000004" y="659.8439999999999" type="curve" smooth="yes"/>
      <point x="413.912" y="659.8439999999999"/>
      <point x="421.78" y="644.5840000000001"/>
      <point x="421.78" y="612.3519999999999" type="curve" smooth="yes"/>
      <point x="421.78" y="568.68"/>
      <point x="412.5680000000001" y="553.364"/>
    </contour>
  </outline>
</glyph>
<glyph name="degree" format="2">
  <advance width="370.44000000000005"/>
  <unicode hex="00B0"/>
  <outline>
    <contour>
      <point x="185.13600000000002" y="372.08000000000004" type="curve" smooth="yes"/>
      <point x="293.316" y="372.08000000000004"/>
      <point x="342.848" y="451.676"/>
      <point x="342.848" y="542.16" type="curve" smooth="yes"/>
      <point x="342.848" y="626.68"/>
      <point x="299.452" y="712.52"/>
      <point x="185.13600000000002" y="712.52" type="curve" smooth="yes"/>
      <point x="70.708" y="712.52"/>
      <point x="27.592" y="626.68"/>
      <point x="27.592" y="542.16" type="curve" smooth="yes"/>
      <point x="27.592" y="451.676"/>
      <point x="76.95599999999999" y="372.08000000000004"/>
    </contour>
    <contour>
      <point x="185.13600000000002" y="491.192" type="curve" smooth="yes"/>
      <point x="161.276" y="491.192"/>
      <point x="146.704" y="511.228"/>
      <point x="146.704" y="541.356" type="curve" smooth="yes"/>
      <point x="146.704" y="569.652"/>
      <point x="160.07200000000003" y="590.0799999999999"/>
      <point x="185.13600000000002" y="590.0799999999999" type="curve" smooth="yes"/>
      <point x="210.088" y="590.0799999999999"/>
      <point x="223.84799999999998" y="569.652"/>
      <point x="223.84799999999998" y="541.356" type="curve" smooth="yes"/>
      <point x="223.84799999999998" y="511.228"/>
      <point x="208.99599999999998" y="491.192"/>
    </contour>
  </outline>
</glyph>
<glyph name="plusminus" format="2">
  <advance width="550.856"/>
  <unicode hex="00B1"/>
  <outline>
    <contour>
      <point x="49.116" y="9.735999999999999" type="line"/>
      <point x="501.74" y="9.735999999999999" type="line"/>
      <point x="501.74" y="165.61599999999999" type="line"/>
      <point x="360.076" y="165.61599999999999" type="line"/>
      <point x="360.076" y="272.372" type="line"/>
      <point x="501.74" y="272.372" type="line"/>
      <point x="501.74" y="428.252" type="line"/>
      <point x="360.076" y="428.252" type="line"/>
      <point x="360.076" y="544.74" type="line"/>
      <point x="190.43599999999998" y="544.74" type="line"/>
      <point x="190.43599999999998" y="428.252" type="line"/>
      <point x="49.116" y="428.252" type="line"/>
      <point x="49.116" y="272.372" type="line"/>
      <point x="190.43599999999998" y="272.372" type="line"/>
      <point x="190.43599999999998" y="165.61599999999999" type="line"/>
      <point x="49.116" y="165.61599999999999" type="line"/>
    </contour>
  </outline>
</glyph>
<glyph name="uni00B2" format="2">
  <advance width="402.196"/>
  <unicode hex="00B2"/>
  <outline>
    <contour>
      <point x="36.78399999999999" y="370.0" type="line"/>
      <point x="370.668" y="370.0" type="line"/>
      <point x="370.668" y="462.196" type="line"/>
      <point x="227.27200000000002" y="462.196" type="line"/>
      <point x="317.80400000000003" y="539.576"/>
      <point x="341.708" y="581.696"/>
      <point x="341.708" y="641.352" type="curve" smooth="yes"/>
      <point x="341.708" y="725.4879999999999"/>
      <point x="281.2" y="774.116"/>
      <point x="184.56000000000003" y="774.116" type="curve" smooth="yes"/>
      <point x="130.50000000000003" y="774.116"/>
      <point x="71.004" y="758.668"/>
      <point x="28.564" y="733.52" type="curve"/>
      <point x="67.068" y="633.9760000000001" type="line"/>
      <point x="104.09599999999999" y="651.36"/>
      <point x="125.79599999999999" y="657.4999999999999"/>
      <point x="152.028" y="657.4999999999999" type="curve" smooth="yes"/>
      <point x="181.512" y="657.4999999999999"/>
      <point x="199.06799999999998" y="638.6999999999999"/>
      <point x="199.06799999999998" y="613.1239999999999" type="curve" smooth="yes"/>
      <point x="199.06799999999998" y="573.752"/>
      <point x="147.212" y="522.5120000000001"/>
      <point x="36.36399999999999" y="452.628" type="curve"/>
    </contour>
  </outline>
</glyph>
<glyph name="uni00B3" format="2">
  <advance width="410.808"/>
  <unicode hex="00B3"/>
  <outline>
    <contour>
      <point x="23.44" y="393.19200000000006" type="line"/>
      <point x="77.436" y="370.684"/>
      <point x="128.208" y="364.12800000000004"/>
      <point x="187.3" y="364.12800000000004" type="curve" smooth="yes"/>
      <point x="304.54400000000004" y="364.12800000000004"/>
      <point x="381.668" y="405.284"/>
      <point x="381.668" y="488.02" type="curve" smooth="yes"/>
      <point x="381.668" y="533.02"/>
      <point x="357.836" y="564.9519999999999"/>
      <point x="308.496" y="583.104" type="curve"/>
      <point x="345.36" y="599.0680000000001"/>
      <point x="370.936" y="631.948"/>
      <point x="370.936" y="672.556" type="curve" smooth="yes"/>
      <point x="370.936" y="735.408"/>
      <point x="313.568" y="775.0920000000001"/>
      <point x="193.872" y="775.0920000000001" type="curve" smooth="yes"/>
      <point x="123.756" y="775.0920000000001"/>
      <point x="63.484" y="764.492"/>
      <point x="27.724" y="746.612" type="curve"/>
      <point x="57.116" y="656.616" type="line"/>
      <point x="65.804" y="661.0559999999999"/>
      <point x="95.576" y="671.1759999999999"/>
      <point x="158.216" y="671.1759999999999" type="curve" smooth="yes"/>
      <point x="204.156" y="671.1759999999999"/>
      <point x="239.56" y="659.16"/>
      <point x="239.56" y="639.88" type="curve" smooth="yes"/>
      <point x="239.56" y="622.7280000000001"/>
      <point x="224.04" y="612.408"/>
      <point x="191.83200000000002" y="612.408" type="curve" smooth="yes"/>
      <point x="107.252" y="612.408" type="line"/>
      <point x="107.252" y="528.3520000000001" type="line"/>
      <point x="181.112" y="528.3520000000001" type="line" smooth="yes"/>
      <point x="234.04399999999998" y="528.3520000000001"/>
      <point x="245.824" y="517.072"/>
      <point x="245.824" y="498.34" type="curve" smooth="yes"/>
      <point x="245.824" y="475.48400000000004"/>
      <point x="221.96800000000002" y="461.56800000000004"/>
      <point x="170.704" y="461.56800000000004" type="curve" smooth="yes"/>
      <point x="110.77199999999999" y="461.56800000000004"/>
      <point x="84.41199999999999" y="467.26800000000003"/>
      <point x="56.436" y="479.71999999999997" type="curve"/>
    </contour>
  </outline>
</glyph>
<glyph name="uni00B5" format="2">
  <advance width="610.88"/>
  <unicode hex="00B5"/>
  <outline>
    <contour>
      <point x="39.019999999999996" y="-210.0" type="line"/>
      <point x="230.67600000000002" y="-210.0" type="line"/>
      <point x="230.67600000000002" y="1.7959999999999958" type="line"/>
      <point x="241.156" y="-5.016000000000001"/>
      <point x="255.24400000000003" y="-8.968"/>
      <point x="273.43600000000004" y="-8.968" type="curve" smooth="yes"/>
      <point x="316.91200000000003" y="-8.968"/>
      <point x="352.644" y="9.928"/>
      <point x="386.0" y="38.28" type="curve"/>
      <point x="408.77200000000005" y="7.655999999999999"/>
      <point x="431.58399999999995" y="-10.0"/>
      <point x="490.48799999999994" y="-10.0" type="curve" smooth="yes"/>
      <point x="538.264" y="-10.0"/>
      <point x="582.168" y="3.752"/>
      <point x="609.064" y="20.328" type="curve"/>
      <point x="594.2080000000001" y="155.09199999999998" type="line"/>
      <point x="588.1080000000001" y="152.49999999999997"/>
      <point x="581.1200000000001" y="151.30399999999997"/>
      <point x="574.5319999999999" y="151.30399999999997" type="curve" smooth="yes"/>
      <point x="561.86" y="151.30399999999997"/>
      <point x="553.04" y="159.10399999999998"/>
      <point x="553.04" y="184.35999999999999" type="curve" smooth="yes"/>
      <point x="553.04" y="547.2" type="line"/>
      <point x="356.74" y="547.2" type="line"/>
      <point x="356.74" y="169.25199999999998" type="line"/>
      <point x="329.656" y="156.38"/>
      <point x="310.436" y="150.52800000000002"/>
      <point x="286.92400000000004" y="150.52800000000002" type="curve" smooth="yes"/>
      <point x="256.46000000000004" y="150.52800000000002"/>
      <point x="235.836" y="166.636"/>
      <point x="235.836" y="207.20000000000002" type="curve" smooth="yes"/>
      <point x="235.836" y="547.2" type="line"/>
      <point x="39.019999999999996" y="547.2" type="line"/>
    </contour>
  </outline>
</glyph>
<glyph name="paragraph" format="2">
  <advance width="702.624"/>
  <unicode hex="00B6"/>
  <outline>
    <contour>
      <point x="492.308" y="-210.0" type="line"/>
      <point x="644.404" y="-210.0" type="line"/>
      <point x="644.404" y="740.0" type="line"/>
      <point x="492.308" y="740.0" type="line"/>
    </contour>
    <contour>
      <point x="276.928" y="338.376" type="line"/>
      <point x="241.61200000000002" y="346.748"/>
      <point x="213.668" y="393.188"/>
      <point x="213.668" y="467.48" type="curve" smooth="yes"/>
      <point x="213.668" y="542.8679999999999"/>
      <point x="241.38" y="582.668"/>
      <point x="298.356" y="583.256" type="curve"/>
      <point x="298.356" y="-210.0" type="line"/>
      <point x="450.45199999999994" y="-210.0" type="line"/>
      <point x="450.45199999999994" y="740.0" type="line"/>
      <point x="346.64" y="740.0" type="line" smooth="yes"/>
      <point x="117.752" y="740.0"/>
      <point x="44.716" y="634.308"/>
      <point x="44.716" y="481.75600000000003" type="curve" smooth="yes"/>
      <point x="44.716" y="341.448"/>
      <point x="111.856" y="247.81999999999996"/>
      <point x="257.64" y="225.668" type="curve"/>
    </contour>
  </outline>
</glyph>
<glyph name="periodcentered" format="2">
  <advance width="257.52000000000004"/>
  <unicode hex="00B7"/>
  <outline>
    <contour>
      <point x="22.320000000000004" y="318.1039999999999" type="curve" smooth="yes"/>
      <point x="22.320000000000004" y="249.64799999999997"/>
      <point x="52.696000000000005" y="215.968"/>
      <point x="128.76" y="215.968" type="curve" smooth="yes"/>
      <point x="205.10399999999998" y="215.968"/>
      <point x="235.20000000000002" y="249.64799999999997"/>
      <point x="235.20000000000002" y="318.1039999999999" type="curve" smooth="yes"/>
      <point x="235.20000000000002" y="387.56"/>
      <point x="205.10399999999998" y="421.24"/>
      <point x="128.76" y="421.24" type="curve" smooth="yes"/>
      <point x="52.416000000000004" y="421.24"/>
      <point x="22.320000000000004" y="387.56"/>
    </contour>
  </outline>
</glyph>
<glyph name="uni00B9" format="2">
  <advance width="379.31200000000007"/>
  <unicode hex="00B9"/>
  <outline>
    <contour>
      <point x="44.1" y="370.0" type="line"/>
      <point x="361.86800000000005" y="370.0" type="line"/>
      <point x="361.86800000000005" y="464.0" type="line"/>
      <point x="279.296" y="464.0" type="line"/>
      <point x="279.296" y="767.308" type="line"/>
      <point x="208.868" y="767.308" type="line"/>
      <point x="21.688000000000002" y="709.324" type="line"/>
      <point x="51.42" y="604.484" type="line"/>
      <point x="137.316" y="631.056" type="line"/>
      <point x="137.316" y="464.0" type="line"/>
      <point x="44.1" y="464.0" type="line"/>
    </contour>
  </outline>
</glyph>
<glyph name="ordmasculine" format="2">
  <advance width="414.728"/>
  <unicode hex="00BA"/>
  <outline>
    <contour>
      <point x="34.872" y="213.68399999999997" type="line"/>
      <point x="381.89200000000005" y="213.68399999999997" type="line"/>
      <point x="381.89200000000005" y="313.444" type="line"/>
      <point x="34.872" y="313.444" type="line"/>
    </contour>
    <component base="o.superior" xOffset="9.008"/>
  </outline>
</glyph>
<glyph name="questiondown" format="2">
  <advance width="511.52400000000006"/>
  <unicode hex="00BF"/>
  <outline>
    <contour>
      <point x="369.4" y="281.648" type="line"/>
      <point x="201.308" y="281.648" type="line"/>
      <point x="200.62" y="218.596" type="line"/>
      <point x="76.328" y="175.384"/>
      <point x="30.984" y="101.56"/>
      <point x="30.984" y="1.3200000000000012" type="curve" smooth="yes"/>
      <point x="30.984" y="-142.48000000000002"/>
      <point x="139.748" y="-208.304"/>
      <point x="280.87199999999996" y="-208.304" type="curve" smooth="yes"/>
      <point x="358.28000000000003" y="-208.304"/>
      <point x="450.812" y="-182.148"/>
      <point x="508.48400000000004" y="-143.64399999999998" type="curve"/>
      <point x="451.36" y="11.191999999999997" type="line"/>
      <point x="399.224" y="-17.996"/>
      <point x="354.29200000000003" y="-30.492000000000004"/>
      <point x="313.38" y="-30.492000000000004" type="curve" smooth="yes"/>
      <point x="264.22" y="-30.492000000000004"/>
      <point x="235.108" y="-10.567999999999996"/>
      <point x="235.108" y="25.232" type="curve" smooth="yes"/>
      <point x="235.108" y="60.072"/>
      <point x="250.66000000000003" y="93.432"/>
      <point x="373.872" y="131.28799999999998" type="curve"/>
    </contour>
    <contour>
      <point x="391.492" y="448.156" type="curve" smooth="yes"/>
      <point x="391.492" y="516.444"/>
      <point x="361.71600000000007" y="550.124"/>
      <point x="285.22" y="550.124" type="curve" smooth="yes"/>
      <point x="209.61599999999999" y="550.124"/>
      <point x="179.032" y="516.444"/>
      <point x="179.032" y="448.156" type="curve" smooth="yes"/>
      <point x="179.032" y="379.008"/>
      <point x="209.61599999999999" y="345.32800000000003"/>
      <point x="285.22" y="345.32800000000003" type="curve" smooth="yes"/>
      <point x="361.94" y="345.32800000000003"/>
      <point x="391.492" y="379.008"/>
    </contour>
  </outline>
</glyph>
<glyph name="AE" format="2">
  <advance width="1023.8880000000003"/>
  <unicode hex="00C6"/>
  <anchor x="561.6560000000001" y="700.0" name="top"/>
  <outline>
    <contour>
      <point x="2.544" y="0.0" type="line"/>
      <point x="227.60000000000002" y="-0.28" type="line"/>
      <point x="304.968" y="148.16" type="line"/>
      <point x="469.528" y="148.16" type="line"/>
      <point x="469.528" y="0.0" type="line"/>
      <point x="999.0399999999997" y="0.0" type="line"/>
      <point x="999.0399999999997" y="167.29600000000002" type="line"/>
      <point x="658.152" y="167.29600000000002" type="line"/>
      <point x="658.152" y="269.016" type="line"/>
      <point x="955.304" y="269.016" type="line"/>
      <point x="955.304" y="424.51200000000006" type="line"/>
      <point x="658.152" y="424.51200000000006" type="line"/>
      <point x="658.152" y="530.5439999999999" type="line"/>
      <point x="981.1759999999999" y="530.5439999999999" type="line"/>
      <point x="981.1759999999999" y="700.0" type="line"/>
      <point x="359.18399999999997" y="700.0" type="line"/>
    </contour>
    <contour>
      <point x="373.5520000000001" y="307.6" type="line"/>
      <point x="468.384" y="558.2239999999999" type="line"/>
      <point x="468.384" y="307.6" type="line"/>
    </contour>
  </outline>
</glyph>
<glyph name="multiply" format="2">
  <advance width="512.088"/>
  <unicode hex="00D7"/>
  <outline>
    <contour>
      <point x="144.336" y="111.59999999999997" type="line"/>
      <point x="256.016" y="219.40400000000002" type="line"/>
      <point x="367.69599999999997" y="111.85199999999999" type="line"/>
      <point x="472.676" y="226.73999999999998" type="line"/>
      <point x="372.188" y="325.668" type="line"/>
      <point x="472.70400000000006" y="425.21999999999997" type="line"/>
      <point x="367.724" y="540.1080000000001" type="line"/>
      <point x="256.016" y="432.016" type="line"/>
      <point x="144.28" y="540.22" type="line"/>
      <point x="39.3" y="425.332" type="line"/>
      <point x="139.584" y="325.668" type="line"/>
      <point x="39.356" y="226.488" type="line"/>
    </contour>
  </outline>
</glyph>
<glyph name="Oslash" format="2">
  <advance width="774.76"/>
  <unicode hex="00D8"/>
  <anchor x="386.6" y="700.0" name="top"/>
  <outline>
    <contour>
      <point x="125.28" y="-10.56" type="line"/>
      <point x="214.24" y="121.24" type="line"/>
      <point x="216.35999999999999" y="113.32" type="line"/>
      <point x="619.6399999999999" y="570.76" type="line"/>
      <point x="621.76" y="561.4" type="line"/>
      <point x="730.76" y="718.6" type="line"/>
      <point x="648.6400000000001" y="718.6" type="line"/>
      <point x="566.72" y="602.32" type="line"/>
      <point x="563.88" y="609.52" type="line"/>
      <point x="161.12" y="150.28000000000003" type="line"/>
      <point x="158.28" y="156.76000000000002" type="line"/>
      <point x="43.44" y="-10.56" type="line"/>
    </contour>
    <contour>
      <point x="386.6" y="133.08" type="curve" smooth="yes"/>
      <point x="291.24" y="133.08"/>
      <point x="194.4" y="168.36"/>
      <point x="194.4" y="349.28" type="curve" smooth="yes"/>
      <point x="194.4" y="534.6400000000001"/>
      <point x="291.96" y="566.92"/>
      <point x="386.6" y="566.92" type="curve" smooth="yes"/>
      <point x="481.96000000000004" y="566.92"/>
      <point x="579.8" y="536.8"/>
      <point x="579.8" y="350.71999999999997" type="curve" smooth="yes"/>
      <point x="579.8" y="164.92"/>
      <point x="481.24000000000007" y="133.08"/>
    </contour>
    <contour>
      <point x="385.88" y="-10.0" type="curve" smooth="yes"/>
      <point x="587.24" y="-10.0"/>
      <point x="738.92" y="72.56"/>
      <point x="738.92" y="353.44000000000005" type="curve" smooth="yes"/>
      <point x="738.92" y="628.5999999999999"/>
      <point x="584.9200000000001" y="710.0"/>
      <point x="386.6" y="710.0" type="curve" smooth="yes"/>
      <point x="186.56" y="710.0"/>
      <point x="35.279999999999994" y="626.16"/>
      <point x="35.279999999999994" y="348.55999999999995" type="curve" smooth="yes"/>
      <point x="35.279999999999994" y="77.0"/>
      <point x="186.96000000000004" y="-10.0"/>
    </contour>
  </outline>
</glyph>
<glyph name="Thorn" format="2">
  <advance width="699.236"/>
  <unicode hex="00DE"/>
  <outline>
    <contour>
      <point x="48.71600000000001" y="0.0" type="line"/>
      <point x="252.41199999999998" y="0.0" type="line"/>
      <point x="252.41199999999998" y="107.732" type="line"/>
      <point x="332.156" y="103.984"/>
      <point x="317.536" y="103.928"/>
      <point x="395.08" y="103.928" type="curve" smooth="yes"/>
      <point x="602.2080000000001" y="103.928"/>
      <point x="673.9159999999999" y="187.156"/>
      <point x="673.9159999999999" y="377.22799999999995" type="curve" smooth="yes"/>
      <point x="673.9159999999999" y="564.2800000000001"/>
      <point x="604.772" y="640.492"/>
      <point x="342.676" y="640.492" type="curve" smooth="yes"/>
      <point x="323.924" y="640.492"/>
      <point x="291.496" y="639.952"/>
      <point x="252.92799999999997" y="638.992" type="curve"/>
      <point x="252.92799999999997" y="700.0" type="line"/>
      <point x="48.71600000000001" y="700.0" type="line"/>
    </contour>
    <contour>
      <point x="329.63199999999995" y="268.58" type="curve" smooth="yes"/>
      <point x="305.83599999999996" y="268.58"/>
      <point x="290.968" y="269.092"/>
      <point x="252.92799999999997" y="271.752" type="curve"/>
      <point x="252.92799999999997" y="476.832" type="line"/>
      <point x="310.012" y="480.456"/>
      <point x="324.81600000000003" y="480.65200000000004"/>
      <point x="358.24" y="480.65200000000004" type="curve" smooth="yes"/>
      <point x="445.40400000000005" y="480.65200000000004"/>
      <point x="467.812" y="449.84400000000005"/>
      <point x="467.812" y="382.82399999999996" type="curve" smooth="yes"/>
      <point x="467.812" y="313.11599999999993"/>
      <point x="454.13200000000006" y="268.58"/>
    </contour>
  </outline>
</glyph>
<glyph name="germandbls" format="2">
  <advance width="756.664"/>
  <unicode hex="00DF"/>
  <outline>
    <contour>
      <point x="80.47999999999999" y="0.0" type="line"/>
      <point x="276.696" y="0.0" type="line"/>
      <point x="276.696" y="490.07200000000006" type="line" smooth="yes"/>
      <point x="276.696" y="564.5920000000001"/>
      <point x="326.29600000000005" y="600.176"/>
      <point x="413.736" y="600.176" type="curve" smooth="yes"/>
      <point x="490.60799999999995" y="600.176"/>
      <point x="511.0399999999999" y="587.5439999999999"/>
      <point x="511.0399999999999" y="558.7120000000001" type="curve" smooth="yes"/>
      <point x="511.0399999999999" y="535.2159999999999"/>
      <point x="496.824" y="528.616"/>
      <point x="449.248" y="509.704" type="curve" smooth="yes"/>
      <point x="373.11199999999997" y="488.336"/>
      <point x="335.04799999999994" y="439.09600000000006"/>
      <point x="335.04799999999994" y="366.216" type="curve" smooth="yes"/>
      <point x="335.04799999999994" y="262.8560000000001"/>
      <point x="375.528" y="216.192"/>
      <point x="495.56" y="200.944" type="curve" smooth="yes"/>
      <point x="559.576" y="192.616"/>
      <point x="573.312" y="191.68"/>
      <point x="573.312" y="167.99200000000002" type="curve" smooth="yes"/>
      <point x="573.312" y="140.32000000000002"/>
      <point x="542.8000000000001" y="131.184"/>
      <point x="505.34399999999994" y="131.184" type="curve" smooth="yes"/>
      <point x="449.536" y="131.184"/>
      <point x="381.55999999999995" y="142.57600000000002"/>
      <point x="327.896" y="156.44799999999998" type="curve"/>
      <point x="308.392" y="18.183999999999997" type="line"/>
      <point x="371.8" y="-2.072"/>
      <point x="434.112" y="-9.712"/>
      <point x="502.25600000000003" y="-9.712" type="curve" smooth="yes"/>
      <point x="631.688" y="-9.712"/>
      <point x="754.448" y="37.28"/>
      <point x="754.448" y="181.28799999999998" type="curve" smooth="yes"/>
      <point x="754.448" y="286.03200000000004"/>
      <point x="704.4800000000001" y="330.944"/>
      <point x="592.28" y="345.248" type="curve" smooth="yes"/>
      <point x="527.16" y="351.608"/>
      <point x="514.4159999999999" y="360.256"/>
      <point x="514.4159999999999" y="376.32" type="curve" smooth="yes"/>
      <point x="514.4159999999999" y="394.80800000000005"/>
      <point x="527.88" y="394.43199999999996"/>
      <point x="561.64" y="405.42400000000004" type="curve" smooth="yes"/>
      <point x="654.5360000000001" y="435.5040000000001"/>
      <point x="701.5840000000001" y="473.68"/>
      <point x="701.5840000000001" y="560.76" type="curve" smooth="yes"/>
      <point x="701.5840000000001" y="690.2320000000001"/>
      <point x="598.424" y="750.0"/>
      <point x="405.61600000000004" y="750.0" type="curve" smooth="yes"/>
      <point x="191.616" y="750.0"/>
      <point x="80.28" y="676.832"/>
      <point x="80.47999999999999" y="523.712" type="curve" smooth="yes"/>
      <point x="80.47999999999999" y="506.70399999999995" type="line"/>
      <point x="11.296" y="495.0" type="line"/>
      <point x="11.296" y="364.984" type="line"/>
      <point x="80.47999999999999" y="364.984" type="line"/>
    </contour>
  </outline>
</glyph>
<glyph name="ae" format="2">
  <advance width="866.3760000000001"/>
  <unicode hex="00E6"/>
  <anchor x="437.952" y="547.2" name="top"/>
  <outline>
    <contour>
      <point x="181.784" y="-10.0" type="curve" smooth="yes"/>
      <point x="274.264" y="-10.0"/>
      <point x="333.352" y="26.999999999999996"/>
      <point x="386.432" y="66.17600000000002" type="curve"/>
      <point x="388.0" y="66.17600000000002" type="line"/>
      <point x="441.232" y="9.511999999999999"/>
      <point x="498.488" y="-10.0"/>
      <point x="608.1279999999999" y="-10.0" type="curve" smooth="yes"/>
      <point x="691.1279999999999" y="-10.0"/>
      <point x="761.6080000000001" y="0.27999999999999914"/>
      <point x="840.0160000000001" y="24.744000000000003" type="curve"/>
      <point x="816.672" y="172.592" type="line"/>
      <point x="752.024" y="158.016"/>
      <point x="680.112" y="148.736"/>
      <point x="632.488" y="148.736" type="curve" smooth="yes"/>
      <point x="550.456" y="148.736"/>
      <point x="525.0" y="148.93599999999998"/>
      <point x="522.424" y="207.84" type="curve" smooth="yes"/>
      <point x="521.856" y="209.81600000000003"/>
      <point x="521.856" y="218.832"/>
      <point x="522.28" y="216.21599999999998" type="curve"/>
      <point x="652.8" y="220.656"/>
      <point x="772.632" y="231.78400000000002"/>
      <point x="838.84" y="237.36" type="curve"/>
      <point x="839.2719999999998" y="256.408"/>
      <point x="840.56" y="281.76800000000003"/>
      <point x="840.56" y="297.77599999999995" type="curve" smooth="yes"/>
      <point x="840.56" y="487.792"/>
      <point x="762.52" y="557.2"/>
      <point x="594.936" y="557.2" type="curve" smooth="yes"/>
      <point x="538.784" y="557.2"/>
      <point x="484.256" y="552.496"/>
      <point x="437.176" y="503.47200000000004" type="curve"/>
      <point x="435.88800000000003" y="503.47200000000004" type="line"/>
      <point x="384.42400000000004" y="542.6"/>
      <point x="338.024" y="557.2"/>
      <point x="254.23199999999997" y="557.2" type="curve" smooth="yes"/>
      <point x="191.176" y="557.2"/>
      <point x="109.08" y="544.328"/>
      <point x="44.04" y="524.6" type="curve"/>
      <point x="73.976" y="372.02400000000006" type="line"/>
      <point x="139.024" y="390.60800000000006"/>
      <point x="204.504" y="395.168"/>
      <point x="239.184" y="395.168" type="curve" smooth="yes"/>
      <point x="299.368" y="395.168"/>
      <point x="322.424" y="377.824"/>
      <point x="322.424" y="352.576" type="curve" smooth="yes"/>
      <point x="322.424" y="337.704" type="line"/>
      <point x="130.504" y="331.35999999999996"/>
      <point x="16.504" y="297.104"/>
      <point x="16.504" y="157.00799999999998" type="curve" smooth="yes"/>
      <point x="16.504" y="48.904"/>
      <point x="81.0" y="-10.0"/>
    </contour>
    <contour>
      <point x="253.304" y="118.496" type="curve" smooth="yes"/>
      <point x="232.44799999999998" y="118.496"/>
      <point x="213.93599999999998" y="132.84"/>
      <point x="213.93599999999998" y="167.88" type="curve" smooth="yes"/>
      <point x="213.93599999999998" y="229.352"/>
      <point x="280.92" y="232.936"/>
      <point x="323.0" y="234.864" type="curve"/>
      <point x="323.28799999999995" y="224.856"/>
      <point x="323.28799999999995" y="211.544"/>
      <point x="323.28799999999995" y="204.71200000000002" type="curve" smooth="yes"/>
      <point x="323.28799999999995" y="185.256"/>
      <point x="322.84" y="167.47199999999998"/>
      <point x="325.68" y="149.808" type="curve"/>
      <point x="314.12800000000004" y="140.568"/>
      <point x="282.296" y="118.496"/>
    </contour>
    <contour>
      <point x="521.5600000000001" y="323.784" type="curve"/>
      <point x="517.944" y="415.59999999999997"/>
      <point x="561.7360000000001" y="419.672"/>
      <point x="583.04" y="419.672" type="curve" smooth="yes"/>
      <point x="621.112" y="419.672"/>
      <point x="635.68" y="399.69599999999997"/>
      <point x="642.5600000000001" y="329.024" type="curve"/>
      <point x="611.72" y="328.76"/>
      <point x="568.6" y="324.072"/>
    </contour>
  </outline>
</glyph>
<glyph name="eth" format="2">
  <advance width="637.36"/>
  <unicode hex="00F0"/>
  <outline>
    <contour>
      <point x="462.48" y="375.68" type="curve"/>
      <point x="469.35999999999996" y="490.9200000000001" type="line"/>
      <point x="418.15999999999997" y="520.24"/>
      <point x="361.52000000000004" y="531.12"/>
      <point x="297.47999999999996" y="531.12" type="curve" smooth="yes"/>
      <point x="116.4" y="531.12"/>
      <point x="28.84" y="435.52"/>
      <point x="28.84" y="249.24" type="curve" smooth="yes"/>
      <point x="28.84" y="77.32"/>
      <point x="121.12" y="-10.0"/>
      <point x="299.72" y="-10.0" type="curve" smooth="yes"/>
      <point x="521.52" y="-10.0"/>
      <point x="606.8" y="91.64"/>
      <point x="606.8" y="359.52" type="curve" smooth="yes"/>
      <point x="606.8" y="612.2399999999999"/>
      <point x="472.56" y="745.52"/>
      <point x="240.08" y="745.52" type="curve" smooth="yes"/>
      <point x="168.67999999999998" y="745.52"/>
      <point x="103.88000000000001" y="732.48"/>
      <point x="40.0" y="712.88" type="curve"/>
      <point x="55.88" y="606.12" type="line"/>
      <point x="106.0" y="618.4"/>
      <point x="151.8" y="628.5600000000001"/>
      <point x="202.56" y="628.5600000000001" type="curve" smooth="yes"/>
      <point x="373.9200000000001" y="628.5600000000001"/>
      <point x="443.04" y="568.0400000000001"/>
      <point x="443.04" y="382.24" type="curve" smooth="yes"/>
      <point x="443.04" y="148.51999999999998"/>
      <point x="402.28" y="110.19999999999999"/>
      <point x="308.4" y="110.19999999999999" type="curve" smooth="yes"/>
      <point x="234.60000000000002" y="110.19999999999999"/>
      <point x="194.71999999999997" y="146.56"/>
      <point x="194.71999999999997" y="250.96" type="curve" smooth="yes"/>
      <point x="194.71999999999997" y="384.88000000000005"/>
      <point x="247.95999999999998" y="410.56"/>
      <point x="324.96000000000004" y="410.56" type="curve" smooth="yes"/>
      <point x="377.88" y="410.56"/>
      <point x="418.28000000000003" y="400.12"/>
    </contour>
    <contour>
      <point x="212.48000000000002" y="561.36" type="line"/>
      <point x="392.24" y="638.6399999999999" type="line"/>
      <point x="396.8" y="643.76" type="line"/>
      <point x="587.72" y="747.36" type="line"/>
      <point x="463.24" y="748.08" type="line"/>
      <point x="334.64" y="681.52" type="line"/>
      <point x="334.4" y="676.6800000000001" type="line"/>
      <point x="92.04" y="562.08" type="line"/>
    </contour>
  </outline>
</glyph>
<glyph name="divide" format="2">
  <advance width="548.336"/>
  <unicode hex="00F7"/>
  <outline>
    <contour>
      <point x="182.776" y="113.59199999999998" type="curve" smooth="yes"/>
      <point x="182.776" y="61.48000000000001"/>
      <point x="209.712" y="35.68000000000001"/>
      <point x="274.168" y="35.68000000000001" type="curve" smooth="yes"/>
      <point x="338.76000000000005" y="35.68000000000001"/>
      <point x="365.84799999999996" y="61.48000000000001"/>
      <point x="365.84799999999996" y="113.59199999999998" type="curve" smooth="yes"/>
      <point x="365.84799999999996" y="166.43199999999996"/>
      <point x="338.76000000000005" y="192.51199999999997"/>
      <point x="274.168" y="192.51199999999997" type="curve" smooth="yes"/>
      <point x="209.432" y="192.51199999999997"/>
      <point x="182.776" y="166.43199999999996"/>
    </contour>
    <contour>
      <point x="182.776" y="526.752" type="curve" smooth="yes"/>
      <point x="182.776" y="474.91999999999996"/>
      <point x="209.71200000000002" y="448.84"/>
      <point x="274.168" y="448.84" type="curve" smooth="yes"/>
      <point x="338.76000000000005" y="448.84"/>
      <point x="365.84799999999996" y="474.91999999999996"/>
      <point x="365.84799999999996" y="526.752" type="curve" smooth="yes"/>
      <point x="365.84799999999996" y="579.872"/>
      <point x="338.76000000000005" y="605.9519999999999"/>
      <point x="274.168" y="605.9519999999999" type="curve" smooth="yes"/>
      <point x="209.432" y="605.9519999999999"/>
      <point x="182.776" y="579.872"/>
    </contour>
    <contour>
      <point x="49.144" y="242.87999999999997" type="line"/>
      <point x="499.19200000000006" y="242.87999999999997" type="line"/>
      <point x="499.19200000000006" y="399.03999999999996" type="line"/>
      <point x="49.144" y="399.03999999999996" type="line"/>
    </contour>
  </outline>
</glyph>
<glyph name="oslash" format="2">
  <advance width="649.12"/>
  <unicode hex="00F8"/>
  <anchor x="323.2" y="547.1999999999999" name="top"/>
  <outline>
    <contour>
      <point x="323.2" y="-10.0" type="curve" smooth="yes"/>
      <point x="95.83999999999999" y="-10.0"/>
      <point x="28.84" y="120.72"/>
      <point x="28.84" y="275.32000000000005" type="curve" smooth="yes"/>
      <point x="28.84" y="424.20000000000005"/>
      <point x="88.55999999999999" y="557.1999999999999"/>
      <point x="323.2" y="557.1999999999999" type="curve" smooth="yes"/>
      <point x="558.28" y="557.1999999999999"/>
      <point x="619.0" y="424.20000000000005"/>
      <point x="619.0" y="275.32000000000005" type="curve" smooth="yes"/>
      <point x="619.0" y="120.72"/>
      <point x="551.28" y="-10.0"/>
    </contour>
    <contour>
      <point x="323.2" y="126.52000000000001" type="curve" smooth="yes"/>
      <point x="422.11999999999995" y="126.52000000000001"/>
      <point x="459.28" y="157.4"/>
      <point x="459.28" y="275.32000000000005" type="curve" smooth="yes"/>
      <point x="459.28" y="388.52"/>
      <point x="428.28" y="421.40000000000003"/>
      <point x="323.2" y="421.40000000000003" type="curve" smooth="yes"/>
      <point x="217.12000000000003" y="421.40000000000003"/>
      <point x="187.56" y="388.52"/>
      <point x="187.56" y="275.32000000000005" type="curve" smooth="yes"/>
      <point x="187.56" y="157.4"/>
      <point x="223.56000000000003" y="126.52000000000001"/>
    </contour>
    <contour>
      <point x="27.400000000000002" y="-1.9600000000000004" type="line"/>
      <point x="131.16" y="131.07999999999998" type="line"/>
      <point x="132.88" y="130.79999999999998" type="line"/>
      <point x="465.76" y="462.68" type="line"/>
      <point x="467.47999999999996" y="462.40000000000003" type="line"/>
      <point x="540.6800000000001" y="557.1999999999999" type="line"/>
      <point x="620.44" y="557.1999999999999" type="line"/>
      <point x="515.44" y="425.24" type="line"/>
      <point x="513.72" y="425.52000000000004" type="line"/>
      <point x="180.08" y="90.83999999999999" type="line"/>
      <point x="178.36" y="91.11999999999999" type="line"/>
      <point x="105.88" y="-1.9600000000000004" type="line"/>
    </contour>
  </outline>
</glyph>
<glyph name="thorn" format="2">
  <advance width="603.436"/>
  <unicode hex="00FE"/>
  <outline>
    <contour>
      <point x="39.019999999999996" y="-210.0" type="line"/>
      <point x="234.63199999999998" y="-210.0" type="line"/>
      <point x="234.63199999999998" y="-6.839999999999999" type="line"/>
      <point x="255.208" y="-8.984"/>
      <point x="275.66799999999995" y="-10.0"/>
      <point x="295.776" y="-10.0" type="curve" smooth="yes"/>
      <point x="499.18399999999997" y="-10.0"/>
      <point x="581.7199999999999" y="73.52399999999999"/>
      <point x="581.7199999999999" y="285.70400000000006" type="curve" smooth="yes"/>
      <point x="581.7199999999999" y="466.328"/>
      <point x="514.4" y="557.2"/>
      <point x="385.22399999999993" y="557.2" type="curve" smooth="yes"/>
      <point x="337.93600000000004" y="557.2"/>
      <point x="284.416" y="542.696"/>
      <point x="235.66400000000002" y="517.428" type="curve"/>
      <point x="235.66400000000002" y="740.0" type="line"/>
      <point x="39.019999999999996" y="740.0" type="line"/>
    </contour>
    <contour>
      <point x="298.45200000000006" y="130.09199999999998" type="curve" smooth="yes"/>
      <point x="279.188" y="130.09199999999998"/>
      <point x="257.67600000000004" y="133.0"/>
      <point x="235.836" y="139.04" type="curve"/>
      <point x="235.836" y="378.176" type="line"/>
      <point x="263.848" y="388.86800000000005"/>
      <point x="287.632" y="393.97600000000006"/>
      <point x="309.592" y="393.97600000000006" type="curve" smooth="yes"/>
      <point x="356.232" y="393.97600000000006"/>
      <point x="378.368" y="362.87600000000003"/>
      <point x="378.368" y="270.052" type="curve" smooth="yes"/>
      <point x="378.368" y="161.75999999999996"/>
      <point x="353.716" y="130.09199999999998"/>
    </contour>
  </outline>
</glyph>
<glyph name="Dcroat" format="2">
  <advance width="708.376"/>
  <unicode hex="0110"/>
  <outline>
    <contour>
      <point x="7.016000000000001" y="276.904" type="line"/>
      <point x="352.832" y="276.904" type="line"/>
      <point x="352.832" y="427.76" type="line"/>
      <point x="7.016000000000001" y="427.76" type="line"/>
    </contour>
    <component base="D" xOffset="3.144"/>
  </outline>
</glyph>
<glyph name="dcroat" format="2">
  <advance width="611.656"/>
  <unicode hex="0111"/>
  <outline>
    <contour>
      <point x="228.23200000000003" y="599.8000000000001" type="line"/>
      <point x="620.24" y="599.8000000000001" type="line"/>
      <point x="620.24" y="694.8399999999999" type="line"/>
      <point x="228.23200000000003" y="694.8399999999999" type="line"/>
    </contour>
    <component base="d"/>
  </outline>
</glyph>
<glyph name="Hbar" format="2">
  <advance width="713.0440000000001"/>
  <unicode hex="0126"/>
  <outline>
    <contour>
      <point x="11.992" y="500.932" type="line"/>
      <point x="50.21200000000001" y="500.932" type="line"/>
      <point x="50.21200000000001" y="0.0" type="line"/>
      <point x="253.39200000000002" y="0.0" type="line"/>
      <point x="253.39200000000002" y="230.972" type="line"/>
      <point x="463.092" y="230.972" type="line"/>
      <point x="463.092" y="0.0" type="line"/>
      <point x="662.832" y="0.0" type="line"/>
      <point x="662.832" y="500.932" type="line"/>
      <point x="701.052" y="500.932" type="line"/>
      <point x="701.052" y="628.948" type="line"/>
      <point x="662.832" y="628.948" type="line"/>
      <point x="662.832" y="700.0" type="line"/>
      <point x="463.092" y="700.0" type="line"/>
      <point x="463.092" y="628.948" type="line"/>
      <point x="253.39200000000002" y="628.948" type="line"/>
      <point x="253.39200000000002" y="700.0" type="line"/>
      <point x="50.21200000000001" y="700.0" type="line"/>
      <point x="50.21200000000001" y="628.948" type="line"/>
      <point x="11.992" y="628.948" type="line"/>
    </contour>
    <contour>
      <point x="253.39200000000002" y="411.70799999999997" type="line"/>
      <point x="253.39200000000002" y="500.932" type="line"/>
      <point x="463.092" y="500.932" type="line"/>
      <point x="463.092" y="411.70799999999997" type="line"/>
    </contour>
  </outline>
</glyph>
<glyph name="hbar" format="2">
  <advance width="593.688"/>
  <unicode hex="0127"/>
  <outline>
    <contour>
      <point x="-6.863999999999998" y="599.8000000000001" type="line"/>
      <point x="378.04" y="599.8000000000001" type="line"/>
      <point x="378.04" y="694.84" type="line"/>
      <point x="-6.863999999999998" y="694.84" type="line"/>
    </contour>
    <component base="h"/>
  </outline>
</glyph>
<glyph name="Idotaccent" format="2">
  <advance width="300.612"/>
  <unicode hex="0130"/>
  <outline>
    <contour>
      <point x="151.07999999999998" y="733.344" type="curve" smooth="yes"/>
      <point x="230.89600000000002" y="733.344"/>
      <point x="265.696" y="765.648"/>
      <point x="265.696" y="830.324" type="curve" smooth="yes"/>
      <point x="265.696" y="896.0319999999999"/>
      <point x="229.864" y="927.8199999999999"/>
      <point x="151.07999999999998" y="927.8199999999999" type="curve" smooth="yes"/>
      <point x="71.78" y="927.8199999999999"/>
      <point x="35.94800000000001" y="896.0319999999999"/>
      <point x="35.94800000000001" y="830.324" type="curve" smooth="yes"/>
      <point x="35.94800000000001" y="765.132"/>
      <point x="71.92" y="733.344"/>
    </contour>
    <component base="I"/>
  </outline>
</glyph>
<glyph name="dotlessi" format="2">
  <advance width="275.888"/>
  <unicode hex="0131"/>
  <anchor x="224.428" y="8.6" name="ogonek"/>
  <anchor x="138.976" y="0.0" name="bottom"/>
  <anchor x="137.944" y="547.2" name="top"/>
  <outline>
    <contour>
      <point x="39.019999999999996" y="0.0" type="line"/>
      <point x="236.868" y="0.0" type="line"/>
      <point x="236.868" y="547.2" type="line"/>
      <point x="39.019999999999996" y="547.2" type="line"/>
    </contour>
  </outline>
</glyph>
<glyph name="kgreenlandic" format="2">
  <advance width="598.1199999999999"/>
  <unicode hex="0138"/>
  <anchor x="301.56" y="547.1999999999999" name="top"/>
  <anchor x="301.56" y="0.0" name="bottom"/>
  <outline>
    <contour>
      <point x="537.84" y="-11.160000000000002" type="curve" smooth="yes"/>
      <point x="551.56" y="-11.160000000000002"/>
      <point x="564.44" y="-10.16"/>
      <point x="579.48" y="-7.44" type="curve"/>
      <point x="578.2" y="164.2" type="line"/>
      <point x="573.64" y="164.2"/>
      <point x="570.8" y="163.92"/>
      <point x="568.2400000000001" y="163.92" type="curve" smooth="yes"/>
      <point x="530.1999999999999" y="163.92"/>
      <point x="486.68" y="192.0"/>
      <point x="382.20000000000005" y="283.68" type="curve" smooth="yes"/>
      <point x="202.95999999999998" y="441.92" type="line"/>
      <point x="202.95999999999998" y="547.1999999999999" type="line"/>
      <point x="51.84" y="547.1999999999999" type="line"/>
      <point x="51.84" y="0.0" type="line"/>
      <point x="202.95999999999998" y="0.0" type="line"/>
      <point x="202.95999999999998" y="202.72000000000003" type="line"/>
      <point x="344.67999999999995" y="86.32" type="line" smooth="yes"/>
      <point x="441.68" y="5.879999999999999"/>
      <point x="483.76" y="-11.160000000000002"/>
    </contour>
    <contour>
      <point x="333.0" y="227.48" type="line"/>
      <point x="436.32000000000005" y="323.64"/>
      <point x="542.32" y="434.99999999999994"/>
      <point x="575.16" y="537.16" type="curve"/>
      <point x="420.2" y="548.3199999999999" type="line"/>
      <point x="394.08" y="454.56"/>
      <point x="318.96" y="398.08"/>
      <point x="226.51999999999998" y="319.24" type="curve"/>
    </contour>
  </outline>
</glyph>
<glyph name="Ldot" format="2">
  <advance width="576.46"/>
  <unicode hex="013F"/>
  <outline>
    <contour>
      <point x="346.976" y="412.196" type="curve" smooth="yes"/>
      <point x="346.976" y="358.356"/>
      <point x="371.94000000000005" y="331.90000000000003"/>
      <point x="435.62" y="331.90000000000003" type="curve" smooth="yes"/>
      <point x="499.95599999999996" y="331.90000000000003"/>
      <point x="524.78" y="358.356"/>
      <point x="524.78" y="412.196" type="curve" smooth="yes"/>
      <point x="524.78" y="466.896"/>
      <point x="499.95599999999996" y="493.352"/>
      <point x="435.62" y="493.352" type="curve" smooth="yes"/>
      <point x="371.8" y="493.352"/>
      <point x="346.976" y="466.896"/>
    </contour>
    <component base="L"/>
  </outline>
</glyph>
<glyph name="ldot" format="2">
  <advance width="410.88"/>
  <unicode hex="0140"/>
  <outline>
    <contour>
      <point x="350.7" y="321.196" type="curve" smooth="yes"/>
      <point x="392.15999999999997" y="321.196"/>
      <point x="412.16799999999995" y="342.4920000000001"/>
      <point x="412.16799999999995" y="390.828" type="curve" smooth="yes"/>
      <point x="412.16799999999995" y="439.68"/>
      <point x="392.15999999999997" y="460.97600000000006"/>
      <point x="350.7" y="460.97600000000006" type="curve" smooth="yes"/>
      <point x="309.75600000000003" y="460.97600000000006"/>
      <point x="289.748" y="439.68"/>
      <point x="289.748" y="390.828" type="curve" smooth="yes"/>
      <point x="289.748" y="342.4920000000001"/>
      <point x="309.896" y="321.196"/>
    </contour>
    <component base="l"/>
  </outline>
</glyph>
<glyph name="Lslash" format="2">
  <advance width="587.248"/>
  <unicode hex="0141"/>
  <outline>
    <contour>
      <point x="5.88" y="184.57999999999998" type="line"/>
      <point x="59.504000000000005" y="212.84000000000003" type="line"/>
      <point x="59.504000000000005" y="0.0" type="line"/>
      <point x="568.0880000000001" y="0.0" type="line"/>
      <point x="568.0880000000001" y="177.12400000000002" type="line"/>
      <point x="263.2" y="177.12400000000002" type="line"/>
      <point x="263.2" y="308.708" type="line"/>
      <point x="438.312" y="396.81999999999994" type="line"/>
      <point x="438.312" y="568.564" type="line"/>
      <point x="263.2" y="480.536" type="line"/>
      <point x="263.2" y="700.0" type="line"/>
      <point x="59.504000000000005" y="700.0" type="line"/>
      <point x="59.504000000000005" y="384.668" type="line"/>
      <point x="5.88" y="356.408" type="line"/>
    </contour>
  </outline>
</glyph>
<glyph name="lslash" format="2">
  <advance width="360.31200000000007"/>
  <unicode hex="0142"/>
  <outline>
    <contour>
      <point x="212.036" y="-10.0" type="curve" smooth="yes"/>
      <point x="265.372" y="-10.0"/>
      <point x="317.472" y="2.6560000000000006"/>
      <point x="355.536" y="16.884" type="curve"/>
      <point x="338.12" y="178.356" type="line"/>
      <point x="315.45599999999996" y="173.93200000000002"/>
      <point x="297.23199999999997" y="171.164"/>
      <point x="283.072" y="171.164" type="curve" smooth="yes"/>
      <point x="260.268" y="171.164"/>
      <point x="245.46800000000002" y="180.792"/>
      <point x="245.46800000000002" y="222.324" type="curve" smooth="yes"/>
      <point x="245.46800000000002" y="335.3" type="line"/>
      <point x="330.0" y="390.164" type="line"/>
      <point x="330.0" y="539.6" type="line"/>
      <point x="245.46800000000002" y="484.73600000000005" type="line"/>
      <point x="245.46800000000002" y="740.0" type="line"/>
      <point x="49.168000000000006" y="740.0" type="line"/>
      <point x="49.168000000000006" y="358.356" type="line"/>
      <point x="1.6119999999999983" y="326.764" type="line"/>
      <point x="1.6119999999999983" y="177.412" type="line"/>
      <point x="49.85600000000001" y="209.26399999999998" type="line"/>
      <point x="50.544000000000004" y="168.832" type="line" smooth="yes"/>
      <point x="56.39200000000001" y="38.028"/>
      <point x="107.26" y="-10.0"/>
    </contour>
  </outline>
</glyph>
<glyph name="Eng" format="2">
  <advance width="691.54"/>
  <unicode hex="014A"/>
  <outline>
    <contour>
      <point x="48.599999999999994" y="0.0" type="line"/>
      <point x="229.42000000000002" y="0.0" type="line"/>
      <point x="229.42000000000002" y="377.03999999999996" type="line"/>
      <point x="451.79999999999995" y="2.7200000000000006" type="line"/>
      <point x="451.79999999999995" y="-3.539999999999999" type="line" smooth="yes"/>
      <point x="451.5199999999999" y="-29.16"/>
      <point x="427.80000000000007" y="-43.52"/>
      <point x="386.7" y="-43.52" type="curve" smooth="yes"/>
      <point x="366.02" y="-43.52"/>
      <point x="340.2" y="-41.10000000000001"/>
      <point x="309.03999999999996" y="-32.66000000000001" type="curve"/>
      <point x="276.94" y="-187.54" type="line"/>
      <point x="318.42" y="-202.14000000000001"/>
      <point x="363.3" y="-212.3"/>
      <point x="419.38" y="-212.3" type="curve" smooth="yes"/>
      <point x="555.0" y="-212.3"/>
      <point x="642.94" y="-147.12"/>
      <point x="642.94" y="-13.44" type="curve" smooth="yes"/>
      <point x="642.94" y="700.0" type="line"/>
      <point x="463.84000000000003" y="700.0" type="line"/>
      <point x="463.84000000000003" y="312.64" type="line"/>
      <point x="241.04000000000002" y="700.56" type="line"/>
      <point x="48.599999999999994" y="700.56" type="line"/>
    </contour>
  </outline>
</glyph>
<glyph name="eng" format="2">
  <advance width="593.952"/>
  <unicode hex="014B"/>
  <outline>
    <contour>
      <point x="555.964" y="31.500000000000004" type="curve"/>
      <point x="555.964" y="399.59600000000006" type="line" smooth="yes"/>
      <point x="555.964" y="491.01599999999996"/>
      <point x="504.22400000000005" y="557.2"/>
      <point x="392.892" y="557.2" type="curve" smooth="yes"/>
      <point x="328.216" y="557.2"/>
      <point x="277.472" y="537.2719999999999"/>
      <point x="216.4" y="500.02799999999996" type="curve"/>
      <point x="216.4" y="547.2" type="line"/>
      <point x="39.019999999999996" y="547.2" type="line"/>
      <point x="39.019999999999996" y="0.0" type="line"/>
      <point x="235.836" y="0.0" type="line"/>
      <point x="235.836" y="373.248" type="line"/>
      <point x="261.356" y="384.168"/>
      <point x="284.068" y="392.71599999999995"/>
      <point x="308.196" y="392.71599999999995" type="curve" smooth="yes"/>
      <point x="340.41600000000005" y="392.71599999999995"/>
      <point x="359.14799999999997" y="374.78"/>
      <point x="359.14799999999997" y="331.48400000000004" type="curve" smooth="yes"/>
      <point x="359.14799999999997" y="29.556" type="line" smooth="yes"/>
      <point x="359.14799999999997" y="-15.316000000000003"/>
      <point x="347.556" y="-32.196000000000005"/>
      <point x="324.416" y="-36.675999999999995" type="curve" smooth="yes"/>
      <point x="317.416" y="-37.432000000000016"/>
      <point x="307.49199999999996" y="-36.844"/>
      <point x="299.49199999999996" y="-36.116" type="curve"/>
      <point x="290.14399999999995" y="-211.584" type="line"/>
      <point x="313.504" y="-215.58399999999997"/>
      <point x="337.12399999999997" y="-216.80799999999996"/>
      <point x="362.524" y="-215.96799999999996" type="curve" smooth="yes"/>
      <point x="481.22399999999993" y="-210.9"/>
      <point x="555.964" y="-119.41199999999999"/>
    </contour>
  </outline>
</glyph>
<glyph name="OE" format="2">
  <advance width="1018.416"/>
  <unicode hex="0152"/>
  <outline>
    <contour>
      <point x="993.568" y="0.0" type="line"/>
      <point x="993.568" y="167.29600000000002" type="line"/>
      <point x="654.6080000000001" y="167.29600000000002" type="line"/>
      <point x="654.6080000000001" y="274.61600000000004" type="line"/>
      <point x="949.5520000000001" y="274.61600000000004" type="line"/>
      <point x="949.5520000000001" y="430.112" type="line"/>
      <point x="654.6080000000001" y="430.112" type="line"/>
      <point x="654.6080000000001" y="530.824" type="line"/>
      <point x="975.424" y="530.824" type="line"/>
      <point x="975.424" y="700.0" type="line"/>
      <point x="628.376" y="700.0" type="line"/>
      <point x="546.3520000000001" y="706.0079999999999"/>
      <point x="467.344" y="709.4399999999999"/>
      <point x="366.904" y="709.4399999999999" type="curve" smooth="yes"/>
      <point x="122.62400000000001" y="709.4399999999999"/>
      <point x="24.616000000000003" y="584.7919999999999"/>
      <point x="24.616000000000003" y="354.576" type="curve" smooth="yes"/>
      <point x="24.616000000000003" y="84.112"/>
      <point x="135.624" y="-9.719999999999999"/>
      <point x="374.8960000000001" y="-9.719999999999999" type="curve" smooth="yes"/>
      <point x="474.74399999999997" y="-9.719999999999999"/>
      <point x="561.8320000000001" y="-7.296000000000001"/>
      <point x="654.176" y="0.0" type="curve"/>
    </contour>
    <contour>
      <point x="453.16800000000006" y="153.15200000000002" type="line"/>
      <point x="432.648" y="151.15200000000002"/>
      <point x="399.04799999999994" y="148.872"/>
      <point x="355.368" y="148.872" type="curve" smooth="yes"/>
      <point x="283.496" y="148.872"/>
      <point x="233.79999999999998" y="199.032"/>
      <point x="233.79999999999998" y="351.42400000000004" type="curve" smooth="yes"/>
      <point x="233.79999999999998" y="501.68799999999993"/>
      <point x="281.62399999999997" y="549.9760000000001"/>
      <point x="351.384" y="549.9760000000001" type="curve" smooth="yes"/>
      <point x="390.28000000000003" y="549.9760000000001"/>
      <point x="419.70400000000006" y="547.128"/>
      <point x="453.16800000000006" y="545.128" type="curve"/>
    </contour>
  </outline>
</glyph>
